<svg width="147" height="53" viewBox="0 0 147 53" fill="none" xmlns="http://www.w3.org/2000/svg">
<path d="M10.0991 28.937H16.856L13.5317 18.4585L10.0991 28.937ZM10.4424 12.3701H16.7295L26.1602 39H20.126L18.4097 33.5259H8.59961L6.75684 39H0.939453L10.4424 12.3701ZM35.084 20.7168C36.3245 20.3434 37.1496 19.6569 37.5591 18.6572C37.7277 18.2598 37.812 17.778 37.812 17.2119H34.9937V12.4604H40.1245V16.2725C40.1245 17.9948 39.703 19.404 38.8599 20.5C38.0288 21.584 36.7702 22.2886 35.084 22.6138V20.7168ZM26.5566 20.7168C27.7731 20.3314 28.5921 19.6689 29.0137 18.7295C29.2425 18.2357 29.3389 17.7298 29.3027 17.2119H26.4663V12.4604H31.6152V16.2725C31.6152 18.043 31.1816 19.4642 30.3145 20.5361C29.4593 21.6081 28.2067 22.3006 26.5566 22.6138V20.7168Z" fill="white"/>
<path d="M58.9512 14.8389H52.0957V17.5898H58.3887V19.8398H52.0957V23.1709H59.2676V25.5H49.4502V12.5449H58.9512V14.8389ZM64.126 22.4414C64.1787 22.8867 64.293 23.2031 64.4688 23.3906C64.7793 23.7246 65.3535 23.8916 66.1914 23.8916C66.6836 23.8916 67.0732 23.8184 67.3604 23.6719C67.6533 23.5254 67.7998 23.3057 67.7998 23.0127C67.7998 22.7314 67.6826 22.5176 67.4482 22.3711C67.2139 22.2246 66.3438 21.9727 64.8379 21.6152C63.7539 21.3457 62.9893 21.0088 62.5439 20.6045C62.0986 20.2061 61.876 19.6318 61.876 18.8818C61.876 17.9971 62.2217 17.2383 62.9131 16.6055C63.6104 15.9668 64.5889 15.6475 65.8486 15.6475C67.0439 15.6475 68.0166 15.8877 68.7666 16.3682C69.5225 16.8428 69.9561 17.666 70.0674 18.8379H67.5625C67.5273 18.5156 67.4365 18.2607 67.29 18.0732C67.0146 17.7334 66.5459 17.5635 65.8838 17.5635C65.3389 17.5635 64.9492 17.6484 64.7148 17.8184C64.4863 17.9883 64.3721 18.1875 64.3721 18.416C64.3721 18.7031 64.4951 18.9111 64.7412 19.04C64.9873 19.1748 65.8574 19.4062 67.3516 19.7344C68.3477 19.9688 69.0947 20.3232 69.5928 20.7979C70.085 21.2783 70.3311 21.8789 70.3311 22.5996C70.3311 23.5488 69.9766 24.3252 69.2676 24.9287C68.5645 25.5264 67.4746 25.8252 65.998 25.8252C64.4922 25.8252 63.3789 25.5088 62.6582 24.876C61.9434 24.2373 61.5859 23.4258 61.5859 22.4414H64.126ZM75.1455 22.4414C75.1982 22.8867 75.3125 23.2031 75.4883 23.3906C75.7988 23.7246 76.373 23.8916 77.2109 23.8916C77.7031 23.8916 78.0928 23.8184 78.3799 23.6719C78.6729 23.5254 78.8193 23.3057 78.8193 23.0127C78.8193 22.7314 78.7021 22.5176 78.4678 22.3711C78.2334 22.2246 77.3633 21.9727 75.8574 21.6152C74.7734 21.3457 74.0088 21.0088 73.5635 20.6045C73.1182 20.2061 72.8955 19.6318 72.8955 18.8818C72.8955 17.9971 73.2412 17.2383 73.9326 16.6055C74.6299 15.9668 75.6084 15.6475 76.8682 15.6475C78.0635 15.6475 79.0361 15.8877 79.7861 16.3682C80.542 16.8428 80.9756 17.666 81.0869 18.8379H78.582C78.5469 18.5156 78.4561 18.2607 78.3096 18.0732C78.0342 17.7334 77.5654 17.5635 76.9033 17.5635C76.3584 17.5635 75.9688 17.6484 75.7344 17.8184C75.5059 17.9883 75.3916 18.1875 75.3916 18.416C75.3916 18.7031 75.5146 18.9111 75.7607 19.04C76.0068 19.1748 76.877 19.4062 78.3711 19.7344C79.3672 19.9688 80.1143 20.3232 80.6123 20.7979C81.1045 21.2783 81.3506 21.8789 81.3506 22.5996C81.3506 23.5488 80.9961 24.3252 80.2871 24.9287C79.584 25.5264 78.4941 25.8252 77.0176 25.8252C75.5117 25.8252 74.3984 25.5088 73.6777 24.876C72.9629 24.2373 72.6055 23.4258 72.6055 22.4414H75.1455ZM87.9932 17.7305C87.4131 17.7305 86.9619 17.9121 86.6396 18.2754C86.3232 18.6387 86.124 19.1309 86.042 19.752H89.9355C89.8945 19.0898 89.6924 18.5889 89.3291 18.249C88.9717 17.9033 88.5264 17.7305 87.9932 17.7305ZM87.9932 15.665C88.79 15.665 89.5078 15.8145 90.1465 16.1133C90.7852 16.4121 91.3125 16.8838 91.7285 17.5283C92.1035 18.0967 92.3467 18.7559 92.458 19.5059C92.5225 19.9453 92.5488 20.5781 92.5371 21.4043H85.9805C86.0156 22.3652 86.3174 23.0391 86.8857 23.4258C87.2314 23.666 87.6475 23.7861 88.1338 23.7861C88.6494 23.7861 89.0684 23.6396 89.3906 23.3467C89.5664 23.1885 89.7217 22.9688 89.8564 22.6875H92.4141C92.3496 23.2559 92.0537 23.833 91.5264 24.4189C90.7061 25.3506 89.5576 25.8164 88.0811 25.8164C86.8623 25.8164 85.7871 25.4238 84.8555 24.6387C83.9238 23.8535 83.458 22.5762 83.458 20.8066C83.458 19.1484 83.877 17.877 84.7148 16.9922C85.5586 16.1074 86.6514 15.665 87.9932 15.665ZM100.542 15.6914C101.532 15.6914 102.341 15.9521 102.968 16.4736C103.601 16.9893 103.917 17.8477 103.917 19.0488V25.5H101.351V19.6729C101.351 19.1689 101.283 18.7822 101.148 18.5127C100.902 18.0205 100.434 17.7744 99.7422 17.7744C98.8926 17.7744 98.3096 18.1348 97.9932 18.8555C97.8291 19.2363 97.7471 19.7227 97.7471 20.3145V25.5H95.251V15.9375H97.668V17.335C97.9902 16.8428 98.2949 16.4883 98.582 16.2715C99.0977 15.8848 99.751 15.6914 100.542 15.6914ZM106.253 17.792V16.0078H107.589V13.3359H110.067V16.0078H111.623V17.792H110.067V22.8545C110.067 23.2471 110.117 23.4932 110.217 23.5928C110.316 23.6865 110.621 23.7334 111.131 23.7334C111.207 23.7334 111.286 23.7334 111.368 23.7334C111.456 23.7275 111.541 23.7217 111.623 23.7158V25.5879L110.437 25.6318C109.253 25.6729 108.444 25.4678 108.011 25.0166C107.729 24.7295 107.589 24.2871 107.589 23.6895V17.792H106.253ZM116.807 14.7773H114.267V12.4658H116.807V14.7773ZM114.267 15.9199H116.807V25.5H114.267V15.9199ZM125.523 20.8418C125.365 20.9414 125.204 21.0234 125.04 21.0879C124.882 21.1465 124.662 21.2021 124.381 21.2549L123.818 21.3604C123.291 21.4541 122.913 21.5684 122.685 21.7031C122.298 21.9316 122.104 22.2861 122.104 22.7666C122.104 23.1943 122.222 23.5049 122.456 23.6982C122.696 23.8857 122.986 23.9795 123.326 23.9795C123.865 23.9795 124.36 23.8213 124.812 23.5049C125.269 23.1885 125.506 22.6113 125.523 21.7734V20.8418ZM124.003 19.6729C124.466 19.6143 124.797 19.541 124.996 19.4531C125.354 19.3008 125.532 19.0635 125.532 18.7412C125.532 18.3486 125.395 18.0791 125.119 17.9326C124.85 17.7803 124.451 17.7041 123.924 17.7041C123.332 17.7041 122.913 17.8506 122.667 18.1436C122.491 18.3604 122.374 18.6533 122.315 19.0225H119.898C119.951 18.1846 120.186 17.4961 120.602 16.957C121.264 16.1133 122.4 15.6914 124.012 15.6914C125.061 15.6914 125.992 15.8994 126.807 16.3154C127.621 16.7314 128.028 17.5166 128.028 18.6709V23.0654C128.028 23.3701 128.034 23.7393 128.046 24.1729C128.063 24.501 128.113 24.7236 128.195 24.8408C128.277 24.958 128.4 25.0547 128.564 25.1309V25.5H125.84C125.764 25.3066 125.711 25.125 125.682 24.9551C125.652 24.7852 125.629 24.5918 125.611 24.375C125.266 24.75 124.867 25.0693 124.416 25.333C123.877 25.6436 123.268 25.7988 122.588 25.7988C121.721 25.7988 121.003 25.5527 120.435 25.0605C119.872 24.5625 119.591 23.8594 119.591 22.9512C119.591 21.7734 120.045 20.9209 120.953 20.3936C121.451 20.1064 122.184 19.9014 123.15 19.7783L124.003 19.6729ZM133.818 25.5H131.313V12.5449H133.818V25.5ZM139.222 22.4414C139.274 22.8867 139.389 23.2031 139.564 23.3906C139.875 23.7246 140.449 23.8916 141.287 23.8916C141.779 23.8916 142.169 23.8184 142.456 23.6719C142.749 23.5254 142.896 23.3057 142.896 23.0127C142.896 22.7314 142.778 22.5176 142.544 22.3711C142.31 22.2246 141.439 21.9727 139.934 21.6152C138.85 21.3457 138.085 21.0088 137.64 20.6045C137.194 20.2061 136.972 19.6318 136.972 18.8818C136.972 17.9971 137.317 17.2383 138.009 16.6055C138.706 15.9668 139.685 15.6475 140.944 15.6475C142.14 15.6475 143.112 15.8877 143.862 16.3682C144.618 16.8428 145.052 17.666 145.163 18.8379H142.658C142.623 18.5156 142.532 18.2607 142.386 18.0732C142.11 17.7334 141.642 17.5635 140.979 17.5635C140.435 17.5635 140.045 17.6484 139.811 17.8184C139.582 17.9883 139.468 18.1875 139.468 18.416C139.468 18.7031 139.591 18.9111 139.837 19.04C140.083 19.1748 140.953 19.4062 142.447 19.7344C143.443 19.9688 144.19 20.3232 144.688 20.7979C145.181 21.2783 145.427 21.8789 145.427 22.5996C145.427 23.5488 145.072 24.3252 144.363 24.9287C143.66 25.5264 142.57 25.8252 141.094 25.8252C139.588 25.8252 138.475 25.5088 137.754 24.876C137.039 24.2373 136.682 23.4258 136.682 22.4414H139.222Z" fill="white"/>
</svg>
