<svg width="1440" height="164" viewBox="0 0 1440 164" fill="none" xmlns="http://www.w3.org/2000/svg">
<mask id="mask0" mask-type="alpha" maskUnits="userSpaceOnUse" x="0" y="0" width="1440" height="164">
<rect width="1440" height="164" fill="#C4C4C4"/>
</mask>
<g mask="url(#mask0)">
<g opacity="0.9">
<path d="M582.848 -88.1377C634.63 -90.3138 675.814 -97.8951 708.204 -90.9576C740.532 -84.3293 764.065 -63.1822 808.844 -41.876C853.622 -20.5697 919.646 0.895607 924.513 23.905C929.619 46.7421 873.806 70.9509 820.636 79.7957C768.003 88.6049 718.786 81.8421 673.45 93.1433C627.576 104.48 585.521 133.572 540.86 138.721C495.899 143.734 447.795 124.84 405.012 98.5477C361.992 72.4273 324.293 38.9082 325.563 5.78379C326.597 -27.1683 366.837 -59.8979 417.761 -74.5442C468.922 -89.3629 531.065 -85.9615 582.848 -88.1377Z" fill="#52A7C1"/>
<path d="M582.848 -88.1377C634.63 -90.3138 675.814 -97.8951 708.204 -90.9576C740.532 -84.3293 764.065 -63.1822 808.844 -41.876C853.622 -20.5697 919.646 0.895607 924.513 23.905C929.619 46.7421 873.806 70.9509 820.636 79.7957C768.003 88.6049 718.786 81.8421 673.45 93.1433C627.576 104.48 585.521 133.572 540.86 138.721C495.899 143.734 447.795 124.84 405.012 98.5477C361.992 72.4273 324.293 38.9082 325.563 5.78379C326.597 -27.1683 366.837 -59.8979 417.761 -74.5442C468.922 -89.3629 531.065 -85.9615 582.848 -88.1377Z" fill="url(#paint0_linear)"/>
</g>
<g opacity="0.9">
<path d="M416.959 -86.2805C471.835 -93.1978 513.917 -104.965 550.46 -100.404C586.853 -96.169 617.707 -75.6054 671.357 -56.7532C725.007 -37.901 801.452 -20.7602 812.814 3.45131C824.383 27.4572 771.077 58.3281 716.496 72.5104C662.481 86.607 607.964 83.7236 562.429 99.8428C516.329 116.048 479.061 150.929 432.606 160.4C385.793 169.751 329.226 153.778 276.381 129.408C223.328 105.244 173.997 72.6853 166.507 37.0972C158.809 1.7146 193.161 -36.9026 243.786 -57.0993C294.619 -77.5015 362.082 -79.3631 416.959 -86.2805Z" fill="#52A7C1"/>
<path d="M416.959 -86.2805C471.835 -93.1978 513.917 -104.965 550.46 -100.404C586.853 -96.169 617.707 -75.6054 671.357 -56.7532C725.007 -37.901 801.452 -20.7602 812.814 3.45131C824.383 27.4572 771.077 58.3281 716.496 72.5104C662.481 86.607 607.964 83.7236 562.429 99.8428C516.329 116.048 479.061 150.929 432.606 160.4C385.793 169.751 329.226 153.778 276.381 129.408C223.328 105.244 173.997 72.6853 166.507 37.0972C158.809 1.7146 193.161 -36.9026 243.786 -57.0993C294.619 -77.5015 362.082 -79.3631 416.959 -86.2805Z" fill="url(#paint1_linear)"/>
</g>
<g opacity="0.9">
<path d="M52.1073 -92.0683C105.367 -102.355 144.998 -116.668 182.182 -114.404C219.157 -112.454 253.685 -93.9279 310.554 -78.5189C367.424 -63.11 446.635 -50.8187 462.468 -27.4545C478.469 -4.3076 431.26 29.6949 379.655 47.1854C328.597 64.5556 273.858 65.0762 231.61 83.9303C188.816 102.905 158.303 139.898 113.894 152.2C69.107 164.405 9.87671 152.039 -47.2267 131.095C-104.499 110.368 -159.644 81.0643 -173.759 46.1493C-188.044 11.4515 -161.13 -29.0744 -114.586 -52.2984C-67.873 -75.7397 -1.15257 -81.7819 52.1073 -92.0683Z" fill="#52A7C1"/>
<path d="M52.1073 -92.0683C105.367 -102.355 144.998 -116.668 182.182 -114.404C219.157 -112.454 253.685 -93.9279 310.554 -78.5189C367.424 -63.11 446.635 -50.8187 462.468 -27.4545C478.469 -4.3076 431.26 29.6949 379.655 47.1854C328.597 64.5556 273.858 65.0762 231.61 83.9303C188.816 102.905 158.303 139.898 113.894 152.2C69.107 164.405 9.87671 152.039 -47.2267 131.095C-104.499 110.368 -159.644 81.0643 -173.759 46.1493C-188.044 11.4515 -161.13 -29.0744 -114.586 -52.2984C-67.873 -75.7397 -1.15257 -81.7819 52.1073 -92.0683Z" fill="url(#paint2_linear)"/>
</g>
<g opacity="0.9">
<path d="M814.986 -85.791C748.358 -86.9834 695.806 -93.9449 653.506 -86.1615C611.31 -78.697 579.366 -56.4874 520.007 -33.6859C460.648 -10.8845 373.874 12.509 365.866 36.2562C357.565 59.8311 427.736 83.5874 495.654 91.6058C562.881 99.5985 626.872 91.6553 684.5 102.356C742.818 113.083 794.877 142.136 852.097 146.528C909.714 150.773 973.181 130.384 1030.34 102.498C1087.79 74.7839 1138.94 39.5727 1139.79 5.55313C1140.93 -28.2941 1091.49 -61.1221 1026.9 -75.1487C962.027 -89.3476 881.615 -84.5986 814.986 -85.791Z" fill="#52A7C1"/>
<path d="M814.986 -85.791C748.358 -86.9834 695.806 -93.9449 653.506 -86.1615C611.31 -78.697 579.366 -56.4874 520.007 -33.6859C460.648 -10.8845 373.874 12.509 365.866 36.2562C357.565 59.8311 427.736 83.5874 495.654 91.6058C562.881 99.5985 626.872 91.6553 684.5 102.356C742.818 113.083 794.877 142.136 852.097 146.528C909.714 150.773 973.181 130.384 1030.34 102.498C1087.79 74.7839 1138.94 39.5727 1139.79 5.55313C1140.93 -28.2941 1091.49 -61.1221 1026.9 -75.1487C962.027 -89.3476 881.615 -84.5986 814.986 -85.791Z" fill="url(#paint3_linear)"/>
</g>
<g opacity="0.9">
<path d="M1028.96 -87.28C961.171 -94.1974 909.185 -105.965 864.043 -101.404C819.084 -97.1686 780.968 -76.605 714.692 -57.7527C648.416 -38.9005 553.979 -21.7597 539.944 2.45176C525.651 26.4576 591.503 57.3286 658.929 71.5108C725.657 85.6074 793.005 82.7241 849.256 98.8433C906.206 115.048 952.244 149.93 1009.63 159.401C1067.46 168.752 1137.34 152.778 1202.62 128.409C1268.16 104.245 1329.1 71.6858 1338.36 36.0977C1347.87 0.715082 1305.43 -37.9021 1242.89 -58.0988C1180.09 -78.501 1096.75 -80.3627 1028.96 -87.28Z" fill="#52A7C1"/>
<path d="M1028.96 -87.28C961.171 -94.1974 909.185 -105.965 864.043 -101.404C819.084 -97.1686 780.968 -76.605 714.692 -57.7527C648.416 -38.9005 553.979 -21.7597 539.944 2.45176C525.651 26.4576 591.503 57.3286 658.929 71.5108C725.657 85.6074 793.005 82.7241 849.256 98.8433C906.206 115.048 952.244 149.93 1009.63 159.401C1067.46 168.752 1137.34 152.778 1202.62 128.409C1268.16 104.245 1329.1 71.6858 1338.36 36.0977C1347.87 0.715082 1305.43 -37.9021 1242.89 -58.0988C1180.09 -78.501 1096.75 -80.3627 1028.96 -87.28Z" fill="url(#paint4_linear)"/>
</g>
<g opacity="0.9">
<path d="M1339.54 -115.648C1267.53 -123.979 1214.87 -136.844 1163.3 -133.205C1112.07 -129.889 1061.92 -110.07 981.409 -92.5462C900.896 -75.0229 790.014 -59.7958 764.976 -35.824C739.735 -12.0636 800.135 20.23 868.864 35.833C936.858 51.3358 1012.24 49.8365 1067.89 67.1498C1124.27 84.5633 1161.24 120.467 1220.77 131.142C1280.83 141.706 1364.17 127.141 1445.77 104.069C1527.57 81.208 1607.62 49.8395 1631.88 14.3689C1656.34 -20.8904 1624.81 -60.463 1563.85 -81.992C1502.68 -103.732 1411.54 -107.318 1339.54 -115.648Z" fill="#52A7C1"/>
<path d="M1339.54 -115.648C1267.53 -123.979 1214.87 -136.844 1163.3 -133.205C1112.07 -129.889 1061.92 -110.07 981.409 -92.5462C900.896 -75.0229 790.014 -59.7958 764.976 -35.824C739.735 -12.0636 800.135 20.23 868.864 35.833C936.858 51.3358 1012.24 49.8365 1067.89 67.1498C1124.27 84.5633 1161.24 120.467 1220.77 131.142C1280.83 141.706 1364.17 127.141 1445.77 104.069C1527.57 81.208 1607.62 49.8395 1631.88 14.3689C1656.34 -20.8904 1624.81 -60.463 1563.85 -81.992C1502.68 -103.732 1411.54 -107.318 1339.54 -115.648Z" fill="url(#paint5_linear)"/>
</g>
</g>
<defs>
<linearGradient id="paint0_linear" x1="874.698" y1="73.4336" x2="508.823" y2="-233.527" gradientUnits="userSpaceOnUse">
<stop stop-color="#52A7C1" stop-opacity="0"/>
<stop offset="1" stop-color="#B3F6D8" stop-opacity="0.74"/>
</linearGradient>
<linearGradient id="paint1_linear" x1="772.695" y1="60.9081" x2="283.981" y2="-208.492" gradientUnits="userSpaceOnUse">
<stop stop-color="#52A7C1" stop-opacity="0"/>
<stop offset="1" stop-color="#B3F6D8" stop-opacity="0.74"/>
</linearGradient>
<linearGradient id="paint2_linear" x1="433.352" y1="32.1593" x2="-118.421" y2="-161.32" gradientUnits="userSpaceOnUse">
<stop stop-color="#52A7C1" stop-opacity="0"/>
<stop offset="1" stop-color="#B3F6D8" stop-opacity="0.74"/>
</linearGradient>
<linearGradient id="paint3_linear" x1="426.4" y1="86.1571" x2="836.279" y2="-322.155" gradientUnits="userSpaceOnUse">
<stop stop-color="#52A7C1" stop-opacity="0"/>
<stop offset="1" stop-color="#B3F6D8" stop-opacity="0.74"/>
</linearGradient>
<linearGradient id="paint4_linear" x1="589.504" y1="59.9086" x2="1127.3" y2="-306.317" gradientUnits="userSpaceOnUse">
<stop stop-color="#52A7C1" stop-opacity="0"/>
<stop offset="1" stop-color="#B3F6D8" stop-opacity="0.74"/>
</linearGradient>
<linearGradient id="paint5_linear" x1="796.912" y1="22.774" x2="1564.96" y2="-246.043" gradientUnits="userSpaceOnUse">
<stop stop-color="#52A7C1" stop-opacity="0"/>
<stop offset="1" stop-color="#B3F6D8" stop-opacity="0.74"/>
</linearGradient>
</defs>
</svg>
