<svg width="186" height="20" viewBox="0 0 186 20" fill="none" xmlns="http://www.w3.org/2000/svg">
<path d="M12.739 13.985C13.047 13.985 13.32 13.9593 13.558 13.908C13.796 13.8567 14.006 13.7937 14.188 13.719C14.37 13.6443 14.524 13.5627 14.65 13.474C14.7807 13.3807 14.8927 13.2967 14.986 13.222C15.084 13.1473 15.1657 13.0843 15.231 13.033C15.2963 12.9817 15.3547 12.956 15.406 12.956C15.448 12.956 15.483 12.9653 15.511 12.984C15.539 12.998 15.5623 13.0167 15.581 13.04L16.036 13.607C15.5973 14.083 15.091 14.454 14.517 14.72C13.9477 14.9813 13.2827 15.112 12.522 15.112C11.92 15.112 11.381 15.0047 10.905 14.79C10.4337 14.5753 10.0323 14.2767 9.701 13.894C9.37433 13.5067 9.12233 13.047 8.945 12.515C8.77233 11.983 8.686 11.3973 8.686 10.758C8.686 9.88533 8.82133 9.08733 9.092 8.364C9.36267 7.64067 9.73367 7.02 10.205 6.502C10.681 5.97933 11.2387 5.57567 11.878 5.291C12.5173 5.00167 13.2057 4.857 13.943 4.857C14.2977 4.857 14.6197 4.88733 14.909 4.948C15.1983 5.00867 15.462 5.09733 15.7 5.214C15.938 5.33067 16.1527 5.47067 16.344 5.634C16.54 5.79733 16.722 5.97933 16.89 6.18L16.442 6.726C16.4047 6.77267 16.3627 6.81233 16.316 6.845C16.2693 6.873 16.211 6.887 16.141 6.887C16.057 6.887 15.9683 6.84033 15.875 6.747C15.7817 6.65367 15.6533 6.55333 15.49 6.446C15.3313 6.334 15.1237 6.23133 14.867 6.138C14.615 6.04467 14.286 5.998 13.88 5.998C13.334 5.998 12.8253 6.10767 12.354 6.327C11.8873 6.54167 11.4813 6.852 11.136 7.258C10.7907 7.65933 10.5177 8.147 10.317 8.721C10.121 9.295 10.023 9.939 10.023 10.653C10.023 11.171 10.0907 11.6353 10.226 12.046C10.3613 12.4567 10.548 12.8067 10.786 13.096C11.0287 13.3807 11.3157 13.6 11.647 13.754C11.9783 13.908 12.3423 13.985 12.739 13.985ZM20.6886 14.125C21.0292 14.125 21.3372 14.0317 21.6126 13.845C21.8926 13.6583 22.1306 13.411 22.3266 13.103C22.5272 12.7903 22.6812 12.431 22.7886 12.025C22.8959 11.619 22.9496 11.1943 22.9496 10.751C22.9496 10.0977 22.8189 9.60767 22.5576 9.281C22.3009 8.94967 21.9299 8.784 21.4446 8.784C21.0992 8.784 20.7866 8.87733 20.5066 9.064C20.2312 9.246 19.9956 9.491 19.7996 9.799C19.6036 10.107 19.4519 10.464 19.3446 10.87C19.2372 11.276 19.1836 11.7007 19.1836 12.144C19.1836 12.7973 19.3119 13.292 19.5686 13.628C19.8252 13.9593 20.1986 14.125 20.6886 14.125ZM20.5696 15.098C20.1822 15.098 19.8276 15.0327 19.5056 14.902C19.1836 14.7667 18.9059 14.573 18.6726 14.321C18.4392 14.069 18.2572 13.761 18.1266 13.397C17.9959 13.033 17.9306 12.6177 17.9306 12.151C17.9306 11.5537 18.0239 10.9913 18.2106 10.464C18.3972 9.93667 18.6539 9.477 18.9806 9.085C19.3072 8.68833 19.6899 8.37567 20.1286 8.147C20.5719 7.91833 21.0479 7.804 21.5566 7.804C21.9439 7.804 22.2986 7.87167 22.6206 8.007C22.9426 8.13767 23.2202 8.329 23.4536 8.581C23.6869 8.833 23.8689 9.141 23.9996 9.505C24.1302 9.869 24.1956 10.282 24.1956 10.744C24.1956 11.3367 24.1022 11.8967 23.9156 12.424C23.7289 12.9513 23.4722 13.4133 23.1456 13.81C22.8236 14.2067 22.4409 14.5217 21.9976 14.755C21.5542 14.9837 21.0782 15.098 20.5696 15.098ZM32.6023 7.909L31.7483 15H31.1323C30.829 15 30.6773 14.8507 30.6773 14.552L30.7823 13.257C30.409 13.8637 29.9867 14.3233 29.5153 14.636C29.0487 14.944 28.568 15.098 28.0733 15.098C27.7747 15.098 27.511 15.0397 27.2823 14.923C27.0537 14.8017 26.867 14.6267 26.7223 14.398C26.5823 14.1693 26.4867 13.8893 26.4353 13.558C26.384 13.2267 26.3863 12.8463 26.4423 12.417L26.9743 7.909H28.2133L27.6813 12.417C27.616 12.9723 27.6487 13.3853 27.7793 13.656C27.9147 13.9267 28.1667 14.062 28.5353 14.062C28.75 14.062 28.9717 14.0037 29.2003 13.887C29.429 13.7703 29.6483 13.6047 29.8583 13.39C30.0683 13.1753 30.2643 12.9163 30.4463 12.613C30.633 12.305 30.7917 11.9643 30.9223 11.591L31.3633 7.909H32.6023ZM36.3785 9.883C36.5652 9.48633 36.7658 9.14333 36.9805 8.854C37.1998 8.56 37.4285 8.33133 37.6665 8.168C37.9045 8 38.1495 7.89967 38.4015 7.867C38.6535 7.82967 38.9102 7.867 39.1715 7.979L38.9475 9.176C38.3408 8.93333 37.8042 9.022 37.3375 9.442C36.8755 9.862 36.4998 10.6203 36.2105 11.717L35.8185 15H34.6005L35.4545 7.902H36.0705C36.3552 7.902 36.4975 8.042 36.4975 8.322L36.3785 9.883ZM44.9156 9.043C44.8783 9.099 44.841 9.141 44.8036 9.169C44.7663 9.19233 44.7196 9.204 44.6636 9.204C44.5983 9.204 44.526 9.17833 44.4466 9.127C44.372 9.07567 44.2786 9.01967 44.1666 8.959C44.0593 8.89367 43.9263 8.83533 43.7676 8.784C43.609 8.728 43.4176 8.7 43.1936 8.7C42.9836 8.7 42.7923 8.73033 42.6196 8.791C42.447 8.847 42.2976 8.92633 42.1716 9.029C42.0503 9.13167 41.9546 9.253 41.8846 9.393C41.8193 9.52833 41.7866 9.673 41.7866 9.827C41.7866 10.0463 41.859 10.2213 42.0036 10.352C42.1483 10.4827 42.3303 10.597 42.5496 10.695C42.769 10.7883 43.0046 10.8793 43.2566 10.968C43.5086 11.0567 43.7443 11.1687 43.9636 11.304C44.183 11.4393 44.365 11.612 44.5096 11.822C44.6543 12.032 44.7266 12.305 44.7266 12.641C44.7266 12.9677 44.6613 13.2803 44.5306 13.579C44.4046 13.8777 44.2203 14.1413 43.9776 14.37C43.7396 14.594 43.4503 14.7737 43.1096 14.909C42.7736 15.0443 42.3956 15.112 41.9756 15.112C41.523 15.112 41.1216 15.0327 40.7716 14.874C40.4263 14.7107 40.144 14.503 39.9246 14.251L40.2326 13.775C40.2746 13.7143 40.319 13.6677 40.3656 13.635C40.417 13.6023 40.4823 13.586 40.5616 13.586C40.6363 13.586 40.711 13.6187 40.7856 13.684C40.8603 13.7493 40.9536 13.824 41.0656 13.908C41.1776 13.9873 41.3176 14.0597 41.4856 14.125C41.6583 14.1903 41.8753 14.223 42.1366 14.223C42.3653 14.223 42.5706 14.188 42.7526 14.118C42.9393 14.048 43.0956 13.9547 43.2216 13.838C43.3523 13.7213 43.4503 13.586 43.5156 13.432C43.5856 13.2733 43.6206 13.1053 43.6206 12.928C43.6206 12.69 43.5483 12.501 43.4036 12.361C43.259 12.221 43.077 12.1043 42.8576 12.011C42.6383 11.9177 42.4026 11.8313 42.1506 11.752C41.8986 11.668 41.663 11.563 41.4436 11.437C41.2243 11.3063 41.0423 11.1383 40.8976 10.933C40.753 10.7277 40.6806 10.4547 40.6806 10.114C40.6806 9.81533 40.739 9.52833 40.8556 9.253C40.977 8.973 41.1496 8.72567 41.3736 8.511C41.5976 8.29633 41.8683 8.126 42.1856 8C42.5076 7.86933 42.8693 7.804 43.2706 7.804C43.6953 7.804 44.0686 7.87633 44.3906 8.021C44.7173 8.161 44.9973 8.35233 45.2306 8.595L44.9156 9.043ZM50.5551 8.707C50.2611 8.707 49.9904 8.76767 49.7431 8.889C49.4958 9.01033 49.2764 9.17833 49.0851 9.393C48.8938 9.603 48.7304 9.85267 48.5951 10.142C48.4598 10.4267 48.3548 10.7347 48.2801 11.066C48.9988 10.9773 49.5751 10.877 50.0091 10.765C50.4431 10.6483 50.7768 10.5247 51.0101 10.394C51.2434 10.2587 51.3974 10.114 51.4721 9.96C51.5468 9.806 51.5841 9.645 51.5841 9.477C51.5841 9.393 51.5654 9.30667 51.5281 9.218C51.4908 9.12467 51.4301 9.04067 51.3461 8.966C51.2668 8.89133 51.1618 8.83067 51.0311 8.784C50.9004 8.73267 50.7418 8.707 50.5551 8.707ZM52.5291 13.691C52.2911 13.9383 52.0578 14.1507 51.8291 14.328C51.6004 14.5007 51.3671 14.6453 51.1291 14.762C50.8958 14.8787 50.6484 14.9627 50.3871 15.014C50.1304 15.07 49.8528 15.098 49.5541 15.098C49.1481 15.098 48.7841 15.0303 48.4621 14.895C48.1401 14.7597 47.8671 14.5683 47.6431 14.321C47.4191 14.069 47.2464 13.7657 47.1251 13.411C47.0038 13.0563 46.9431 12.6597 46.9431 12.221C46.9431 11.857 46.9804 11.4953 47.0551 11.136C47.1344 10.772 47.2464 10.4267 47.3911 10.1C47.5404 9.77333 47.7201 9.47 47.9301 9.19C48.1448 8.91 48.3874 8.66967 48.6581 8.469C48.9334 8.26367 49.2344 8.10267 49.5611 7.986C49.8924 7.86933 50.2471 7.811 50.6251 7.811C50.9844 7.811 51.2948 7.86233 51.5561 7.965C51.8174 8.06767 52.0321 8.19833 52.2001 8.357C52.3681 8.51567 52.4918 8.69067 52.5711 8.882C52.6551 9.07333 52.6971 9.25533 52.6971 9.428C52.6971 9.736 52.6341 10.0207 52.5081 10.282C52.3821 10.5387 52.1511 10.772 51.8151 10.982C51.4791 11.1873 51.0171 11.367 50.4291 11.521C49.8411 11.675 49.0851 11.7987 48.1611 11.892C48.1611 11.9433 48.1588 11.9947 48.1541 12.046C48.1541 12.0927 48.1541 12.1417 48.1541 12.193C48.1541 12.8183 48.2894 13.2967 48.5601 13.628C48.8354 13.9547 49.2484 14.118 49.7991 14.118C50.0231 14.118 50.2214 14.0947 50.3941 14.048C50.5714 14.0013 50.7278 13.9453 50.8631 13.88C51.0031 13.81 51.1244 13.7353 51.2271 13.656C51.3344 13.572 51.4301 13.4973 51.5141 13.432C51.6028 13.362 51.6844 13.3037 51.7591 13.257C51.8338 13.2103 51.9084 13.187 51.9831 13.187C52.0718 13.187 52.1511 13.2267 52.2211 13.306L52.5291 13.691Z" fill="black" fill-opacity="0.5"/>
<rect x="0.5" y="0.5" width="61" height="19" rx="9.5" stroke="black" stroke-opacity="0.1"/>
<path d="M75.071 15.175C74.9963 15.3243 74.8913 15.4387 74.756 15.518C74.6207 15.5973 74.49 15.637 74.364 15.637H73.853L78.928 5.284C78.998 5.14867 79.0913 5.04133 79.208 4.962C79.3247 4.88267 79.4577 4.843 79.607 4.843H80.118L75.071 15.175Z" fill="black" fill-opacity="0.5"/>
<path d="M104.739 13.985C105.047 13.985 105.32 13.9593 105.558 13.908C105.796 13.8567 106.006 13.7937 106.188 13.719C106.37 13.6443 106.524 13.5627 106.65 13.474C106.781 13.3807 106.893 13.2967 106.986 13.222C107.084 13.1473 107.166 13.0843 107.231 13.033C107.296 12.9817 107.355 12.956 107.406 12.956C107.448 12.956 107.483 12.9653 107.511 12.984C107.539 12.998 107.562 13.0167 107.581 13.04L108.036 13.607C107.597 14.083 107.091 14.454 106.517 14.72C105.948 14.9813 105.283 15.112 104.522 15.112C103.92 15.112 103.381 15.0047 102.905 14.79C102.434 14.5753 102.032 14.2767 101.701 13.894C101.374 13.5067 101.122 13.047 100.945 12.515C100.772 11.983 100.686 11.3973 100.686 10.758C100.686 9.88533 100.821 9.08733 101.092 8.364C101.363 7.64067 101.734 7.02 102.205 6.502C102.681 5.97933 103.239 5.57567 103.878 5.291C104.517 5.00167 105.206 4.857 105.943 4.857C106.298 4.857 106.62 4.88733 106.909 4.948C107.198 5.00867 107.462 5.09733 107.7 5.214C107.938 5.33067 108.153 5.47067 108.344 5.634C108.54 5.79733 108.722 5.97933 108.89 6.18L108.442 6.726C108.405 6.77267 108.363 6.81233 108.316 6.845C108.269 6.873 108.211 6.887 108.141 6.887C108.057 6.887 107.968 6.84033 107.875 6.747C107.782 6.65367 107.653 6.55333 107.49 6.446C107.331 6.334 107.124 6.23133 106.867 6.138C106.615 6.04467 106.286 5.998 105.88 5.998C105.334 5.998 104.825 6.10767 104.354 6.327C103.887 6.54167 103.481 6.852 103.136 7.258C102.791 7.65933 102.518 8.147 102.317 8.721C102.121 9.295 102.023 9.939 102.023 10.653C102.023 11.171 102.091 11.6353 102.226 12.046C102.361 12.4567 102.548 12.8067 102.786 13.096C103.029 13.3807 103.316 13.6 103.647 13.754C103.978 13.908 104.342 13.985 104.739 13.985ZM112.689 14.125C113.029 14.125 113.337 14.0317 113.613 13.845C113.893 13.6583 114.131 13.411 114.327 13.103C114.527 12.7903 114.681 12.431 114.789 12.025C114.896 11.619 114.95 11.1943 114.95 10.751C114.95 10.0977 114.819 9.60767 114.558 9.281C114.301 8.94967 113.93 8.784 113.445 8.784C113.099 8.784 112.787 8.87733 112.507 9.064C112.231 9.246 111.996 9.491 111.8 9.799C111.604 10.107 111.452 10.464 111.345 10.87C111.237 11.276 111.184 11.7007 111.184 12.144C111.184 12.7973 111.312 13.292 111.569 13.628C111.825 13.9593 112.199 14.125 112.689 14.125ZM112.57 15.098C112.182 15.098 111.828 15.0327 111.506 14.902C111.184 14.7667 110.906 14.573 110.673 14.321C110.439 14.069 110.257 13.761 110.127 13.397C109.996 13.033 109.931 12.6177 109.931 12.151C109.931 11.5537 110.024 10.9913 110.211 10.464C110.397 9.93667 110.654 9.477 110.981 9.085C111.307 8.68833 111.69 8.37567 112.129 8.147C112.572 7.91833 113.048 7.804 113.557 7.804C113.944 7.804 114.299 7.87167 114.621 8.007C114.943 8.13767 115.22 8.329 115.454 8.581C115.687 8.833 115.869 9.141 116 9.505C116.13 9.869 116.196 10.282 116.196 10.744C116.196 11.3367 116.102 11.8967 115.916 12.424C115.729 12.9513 115.472 13.4133 115.146 13.81C114.824 14.2067 114.441 14.5217 113.998 14.755C113.554 14.9837 113.078 15.098 112.57 15.098ZM124.602 7.909L123.748 15H123.132C122.829 15 122.677 14.8507 122.677 14.552L122.782 13.257C122.409 13.8637 121.987 14.3233 121.515 14.636C121.049 14.944 120.568 15.098 120.073 15.098C119.775 15.098 119.511 15.0397 119.282 14.923C119.054 14.8017 118.867 14.6267 118.722 14.398C118.582 14.1693 118.487 13.8893 118.435 13.558C118.384 13.2267 118.386 12.8463 118.442 12.417L118.974 7.909H120.213L119.681 12.417C119.616 12.9723 119.649 13.3853 119.779 13.656C119.915 13.9267 120.167 14.062 120.535 14.062C120.75 14.062 120.972 14.0037 121.2 13.887C121.429 13.7703 121.648 13.6047 121.858 13.39C122.068 13.1753 122.264 12.9163 122.446 12.613C122.633 12.305 122.792 11.9643 122.922 11.591L123.363 7.909H124.602ZM128.379 9.883C128.565 9.48633 128.766 9.14333 128.981 8.854C129.2 8.56 129.429 8.33133 129.667 8.168C129.905 8 130.15 7.89967 130.402 7.867C130.654 7.82967 130.91 7.867 131.172 7.979L130.948 9.176C130.341 8.93333 129.804 9.022 129.338 9.442C128.876 9.862 128.5 10.6203 128.211 11.717L127.819 15H126.601L127.455 7.902H128.071C128.355 7.902 128.498 8.042 128.498 8.322L128.379 9.883ZM136.916 9.043C136.878 9.099 136.841 9.141 136.804 9.169C136.766 9.19233 136.72 9.204 136.664 9.204C136.598 9.204 136.526 9.17833 136.447 9.127C136.372 9.07567 136.279 9.01967 136.167 8.959C136.059 8.89367 135.926 8.83533 135.768 8.784C135.609 8.728 135.418 8.7 135.194 8.7C134.984 8.7 134.792 8.73033 134.62 8.791C134.447 8.847 134.298 8.92633 134.172 9.029C134.05 9.13167 133.955 9.253 133.885 9.393C133.819 9.52833 133.787 9.673 133.787 9.827C133.787 10.0463 133.859 10.2213 134.004 10.352C134.148 10.4827 134.33 10.597 134.55 10.695C134.769 10.7883 135.005 10.8793 135.257 10.968C135.509 11.0567 135.744 11.1687 135.964 11.304C136.183 11.4393 136.365 11.612 136.51 11.822C136.654 12.032 136.727 12.305 136.727 12.641C136.727 12.9677 136.661 13.2803 136.531 13.579C136.405 13.8777 136.22 14.1413 135.978 14.37C135.74 14.594 135.45 14.7737 135.11 14.909C134.774 15.0443 134.396 15.112 133.976 15.112C133.523 15.112 133.122 15.0327 132.772 14.874C132.426 14.7107 132.144 14.503 131.925 14.251L132.233 13.775C132.275 13.7143 132.319 13.6677 132.366 13.635C132.417 13.6023 132.482 13.586 132.562 13.586C132.636 13.586 132.711 13.6187 132.786 13.684C132.86 13.7493 132.954 13.824 133.066 13.908C133.178 13.9873 133.318 14.0597 133.486 14.125C133.658 14.1903 133.875 14.223 134.137 14.223C134.365 14.223 134.571 14.188 134.753 14.118C134.939 14.048 135.096 13.9547 135.222 13.838C135.352 13.7213 135.45 13.586 135.516 13.432C135.586 13.2733 135.621 13.1053 135.621 12.928C135.621 12.69 135.548 12.501 135.404 12.361C135.259 12.221 135.077 12.1043 134.858 12.011C134.638 11.9177 134.403 11.8313 134.151 11.752C133.899 11.668 133.663 11.563 133.444 11.437C133.224 11.3063 133.042 11.1383 132.898 10.933C132.753 10.7277 132.681 10.4547 132.681 10.114C132.681 9.81533 132.739 9.52833 132.856 9.253C132.977 8.973 133.15 8.72567 133.374 8.511C133.598 8.29633 133.868 8.126 134.186 8C134.508 7.86933 134.869 7.804 135.271 7.804C135.695 7.804 136.069 7.87633 136.391 8.021C136.717 8.161 136.997 8.35233 137.231 8.595L136.916 9.043ZM142.555 8.707C142.261 8.707 141.99 8.76767 141.743 8.889C141.496 9.01033 141.276 9.17833 141.085 9.393C140.894 9.603 140.73 9.85267 140.595 10.142C140.46 10.4267 140.355 10.7347 140.28 11.066C140.999 10.9773 141.575 10.877 142.009 10.765C142.443 10.6483 142.777 10.5247 143.01 10.394C143.243 10.2587 143.397 10.114 143.472 9.96C143.547 9.806 143.584 9.645 143.584 9.477C143.584 9.393 143.565 9.30667 143.528 9.218C143.491 9.12467 143.43 9.04067 143.346 8.966C143.267 8.89133 143.162 8.83067 143.031 8.784C142.9 8.73267 142.742 8.707 142.555 8.707ZM144.529 13.691C144.291 13.9383 144.058 14.1507 143.829 14.328C143.6 14.5007 143.367 14.6453 143.129 14.762C142.896 14.8787 142.648 14.9627 142.387 15.014C142.13 15.07 141.853 15.098 141.554 15.098C141.148 15.098 140.784 15.0303 140.462 14.895C140.14 14.7597 139.867 14.5683 139.643 14.321C139.419 14.069 139.246 13.7657 139.125 13.411C139.004 13.0563 138.943 12.6597 138.943 12.221C138.943 11.857 138.98 11.4953 139.055 11.136C139.134 10.772 139.246 10.4267 139.391 10.1C139.54 9.77333 139.72 9.47 139.93 9.19C140.145 8.91 140.387 8.66967 140.658 8.469C140.933 8.26367 141.234 8.10267 141.561 7.986C141.892 7.86933 142.247 7.811 142.625 7.811C142.984 7.811 143.295 7.86233 143.556 7.965C143.817 8.06767 144.032 8.19833 144.2 8.357C144.368 8.51567 144.492 8.69067 144.571 8.882C144.655 9.07333 144.697 9.25533 144.697 9.428C144.697 9.736 144.634 10.0207 144.508 10.282C144.382 10.5387 144.151 10.772 143.815 10.982C143.479 11.1873 143.017 11.367 142.429 11.521C141.841 11.675 141.085 11.7987 140.161 11.892C140.161 11.9433 140.159 11.9947 140.154 12.046C140.154 12.0927 140.154 12.1417 140.154 12.193C140.154 12.8183 140.289 13.2967 140.56 13.628C140.835 13.9547 141.248 14.118 141.799 14.118C142.023 14.118 142.221 14.0947 142.394 14.048C142.571 14.0013 142.728 13.9453 142.863 13.88C143.003 13.81 143.124 13.7353 143.227 13.656C143.334 13.572 143.43 13.4973 143.514 13.432C143.603 13.362 143.684 13.3037 143.759 13.257C143.834 13.2103 143.908 13.187 143.983 13.187C144.072 13.187 144.151 13.2267 144.221 13.306L144.529 13.691ZM151.381 13.663C151.381 13.635 151.381 13.6 151.381 13.558C151.381 13.5113 151.384 13.446 151.388 13.362C151.398 13.278 151.409 13.1683 151.423 13.033C151.442 12.8977 151.465 12.7203 151.493 12.501L151.927 8.952H151.136C151.071 8.952 151.017 8.931 150.975 8.889C150.938 8.84233 150.924 8.77233 150.933 8.679L150.989 8.182L152.081 8.035L152.613 5.844C152.637 5.774 152.672 5.718 152.718 5.676C152.77 5.62933 152.833 5.606 152.907 5.606H153.558L153.257 8.049H155.119L155.014 8.952H153.145L152.718 12.438C152.695 12.6293 152.676 12.7833 152.662 12.9C152.648 13.0167 152.637 13.11 152.627 13.18C152.623 13.25 152.618 13.299 152.613 13.327C152.613 13.355 152.613 13.376 152.613 13.39C152.613 13.628 152.669 13.8053 152.781 13.922C152.893 14.034 153.043 14.09 153.229 14.09C153.355 14.09 153.463 14.0737 153.551 14.041C153.645 14.0037 153.726 13.964 153.796 13.922C153.866 13.88 153.925 13.8427 153.971 13.81C154.018 13.7727 154.058 13.754 154.09 13.754C154.132 13.754 154.163 13.7633 154.181 13.782C154.205 13.8007 154.226 13.831 154.244 13.873L154.51 14.468C154.282 14.6687 154.02 14.8273 153.726 14.944C153.437 15.056 153.145 15.112 152.851 15.112C152.399 15.112 152.042 14.9883 151.78 14.741C151.524 14.4937 151.391 14.1343 151.381 13.663ZM161.505 8.777C161.403 8.75367 161.3 8.73967 161.197 8.735C161.099 8.72567 161.001 8.721 160.903 8.721C160.623 8.721 160.353 8.76767 160.091 8.861C159.83 8.94967 159.585 9.07567 159.356 9.239C159.128 9.40233 158.92 9.59833 158.733 9.827C158.547 10.051 158.386 10.2983 158.25 10.569C158.12 10.8397 158.017 11.129 157.942 11.437C157.868 11.7403 157.83 12.053 157.83 12.375C157.83 13.4997 158.19 14.062 158.908 14.062C159.137 14.062 159.361 13.992 159.58 13.852C159.8 13.7073 160.007 13.509 160.203 13.257C160.404 13.0003 160.588 12.6993 160.756 12.354C160.924 12.004 161.074 11.6213 161.204 11.206L161.505 8.777ZM161.029 13.131C160.861 13.4297 160.679 13.7003 160.483 13.943C160.292 14.1857 160.087 14.3933 159.867 14.566C159.653 14.734 159.424 14.8647 159.181 14.958C158.943 15.0513 158.696 15.098 158.439 15.098C158.159 15.098 157.905 15.0443 157.676 14.937C157.448 14.825 157.252 14.664 157.088 14.454C156.93 14.2393 156.806 13.978 156.717 13.67C156.629 13.3573 156.584 13.0003 156.584 12.599C156.584 12.179 156.636 11.7707 156.738 11.374C156.846 10.9727 156.995 10.5947 157.186 10.24C157.382 9.88533 157.616 9.561 157.886 9.267C158.157 8.96833 158.458 8.71167 158.789 8.497C159.125 8.27767 159.485 8.10967 159.867 7.993C160.25 7.87167 160.651 7.811 161.071 7.811C161.375 7.811 161.669 7.83667 161.953 7.888C162.243 7.93467 162.527 8.01867 162.807 8.14L161.96 15H161.316C161.153 15 161.041 14.958 160.98 14.874C160.924 14.79 160.896 14.6873 160.896 14.566L161.029 13.131ZM169.369 9.043C169.331 9.099 169.294 9.141 169.257 9.169C169.219 9.19233 169.173 9.204 169.117 9.204C169.051 9.204 168.979 9.17833 168.9 9.127C168.825 9.07567 168.732 9.01967 168.62 8.959C168.512 8.89367 168.379 8.83533 168.221 8.784C168.062 8.728 167.871 8.7 167.647 8.7C167.437 8.7 167.245 8.73033 167.073 8.791C166.9 8.847 166.751 8.92633 166.625 9.029C166.503 9.13167 166.408 9.253 166.338 9.393C166.272 9.52833 166.24 9.673 166.24 9.827C166.24 10.0463 166.312 10.2213 166.457 10.352C166.601 10.4827 166.783 10.597 167.003 10.695C167.222 10.7883 167.458 10.8793 167.71 10.968C167.962 11.0567 168.197 11.1687 168.417 11.304C168.636 11.4393 168.818 11.612 168.963 11.822C169.107 12.032 169.18 12.305 169.18 12.641C169.18 12.9677 169.114 13.2803 168.984 13.579C168.858 13.8777 168.673 14.1413 168.431 14.37C168.193 14.594 167.903 14.7737 167.563 14.909C167.227 15.0443 166.849 15.112 166.429 15.112C165.976 15.112 165.575 15.0327 165.225 14.874C164.879 14.7107 164.597 14.503 164.378 14.251L164.686 13.775C164.728 13.7143 164.772 13.6677 164.819 13.635C164.87 13.6023 164.935 13.586 165.015 13.586C165.089 13.586 165.164 13.6187 165.239 13.684C165.313 13.7493 165.407 13.824 165.519 13.908C165.631 13.9873 165.771 14.0597 165.939 14.125C166.111 14.1903 166.328 14.223 166.59 14.223C166.818 14.223 167.024 14.188 167.206 14.118C167.392 14.048 167.549 13.9547 167.675 13.838C167.805 13.7213 167.903 13.586 167.969 13.432C168.039 13.2733 168.074 13.1053 168.074 12.928C168.074 12.69 168.001 12.501 167.857 12.361C167.712 12.221 167.53 12.1043 167.311 12.011C167.091 11.9177 166.856 11.8313 166.604 11.752C166.352 11.668 166.116 11.563 165.897 11.437C165.677 11.3063 165.495 11.1383 165.351 10.933C165.206 10.7277 165.134 10.4547 165.134 10.114C165.134 9.81533 165.192 9.52833 165.309 9.253C165.43 8.973 165.603 8.72567 165.827 8.511C166.051 8.29633 166.321 8.126 166.639 8C166.961 7.86933 167.322 7.804 167.724 7.804C168.148 7.804 168.522 7.87633 168.844 8.021C169.17 8.161 169.45 8.35233 169.684 8.595L169.369 9.043ZM173.881 4.689L173.139 10.758H173.349C173.447 10.758 173.527 10.7463 173.587 10.723C173.648 10.695 173.713 10.6413 173.783 10.562L176.135 8.161C176.201 8.08167 176.271 8.021 176.345 7.979C176.42 7.93233 176.511 7.909 176.618 7.909H177.724L174.987 10.688C174.847 10.8513 174.705 10.975 174.56 11.059C174.635 11.115 174.698 11.1803 174.749 11.255C174.805 11.325 174.857 11.4067 174.903 11.5L177.031 15H175.96C175.858 15 175.771 14.9837 175.701 14.951C175.636 14.9137 175.582 14.8483 175.54 14.755L173.734 11.85C173.678 11.752 173.62 11.689 173.559 11.661C173.499 11.6283 173.403 11.612 173.272 11.612H173.034L172.621 15H171.389L172.656 4.689H173.881Z" fill="black" fill-opacity="0.5"/>
<rect x="92.5" y="0.5" width="93" height="19" rx="9.5" stroke="black" stroke-opacity="0.1"/>
</svg>
