<svg width="256" height="197" viewBox="0 0 256 197" fill="none" xmlns="http://www.w3.org/2000/svg">
<path d="M212.936 164.359C211.376 160.394 211.149 156.055 212.303 151.96C212.189 152.009 212.059 152.057 211.945 152.106C212.238 152.301 212.514 152.512 212.806 152.707C212.92 152.789 213.148 152.707 213.164 152.561C214.236 145.005 217.389 137.855 222.264 131.972C222.134 131.94 221.988 131.907 221.858 131.859C224.523 143.022 221.224 154.479 217.194 164.879C217.08 165.171 217.551 165.301 217.665 165.009C221.728 154.511 225.01 142.99 222.329 131.729C222.296 131.566 222.036 131.485 221.923 131.615C217.015 137.562 213.798 144.794 212.709 152.431C212.823 152.382 212.953 152.334 213.066 152.285C212.774 152.09 212.498 151.879 212.205 151.684C212.075 151.586 211.88 151.684 211.848 151.83C210.678 156.006 210.889 160.459 212.481 164.489C212.579 164.781 213.05 164.651 212.936 164.359Z" fill="#76D7D2"/>
<path d="M223.076 143.088C224.1 140.601 225.384 138.245 226.895 136.003C226.781 136.035 226.667 136.068 226.554 136.084C226.749 136.23 226.96 136.376 227.155 136.506C227.269 136.588 227.431 136.523 227.496 136.425C228.91 133.874 230.567 131.469 232.469 129.259C232.339 129.243 232.209 129.226 232.079 129.21C234.581 133.516 232.68 138.83 231.152 143.136C229.495 147.865 227.431 152.448 224.864 156.738C223.401 159.175 221.776 161.515 219.989 163.709C219.794 163.953 220.135 164.294 220.33 164.05C223.612 160.02 226.31 155.584 228.504 150.888C229.592 148.564 230.551 146.191 231.429 143.786C232.29 141.398 233.135 138.96 233.525 136.441C233.931 133.874 233.801 131.241 232.485 128.95C232.404 128.82 232.209 128.788 232.095 128.901C230.177 131.16 228.487 133.581 227.041 136.165C227.155 136.133 227.269 136.1 227.382 136.084C227.187 135.938 226.976 135.791 226.781 135.661C226.667 135.58 226.521 135.645 226.44 135.743C224.912 138.001 223.629 140.406 222.572 142.941C222.491 143.25 222.962 143.38 223.076 143.088Z" fill="#76D7D2"/>
<path d="M221.597 132.135C219.452 142.064 216.186 151.732 214.642 161.775C214.594 162.084 215.065 162.214 215.114 161.905C216.657 151.846 219.924 142.177 222.069 132.265C222.134 131.956 221.662 131.826 221.597 132.135Z" fill="#76D7D2"/>
<path d="M232.209 129.324C230.535 139.529 225.562 148.71 220.655 157.664C220.509 157.94 220.931 158.184 221.077 157.908C226.001 148.905 230.99 139.691 232.68 129.454C232.729 129.145 232.257 129.015 232.209 129.324Z" fill="#76D7D2"/>
<path d="M214.935 144.079C216.089 145.866 216.853 147.849 217.178 149.961C217.226 150.27 217.698 150.14 217.649 149.831C217.324 147.686 216.544 145.655 215.358 143.835C215.179 143.575 214.756 143.819 214.935 144.079Z" fill="#76D7D2"/>
<path d="M218.347 147.036C219.989 144.518 221.63 141.983 223.271 139.464C223.45 139.204 223.027 138.96 222.849 139.22C221.207 141.739 219.566 144.274 217.925 146.793C217.746 147.053 218.169 147.296 218.347 147.036Z" fill="#76D7D2"/>
<path d="M224.88 138.473C224.815 141.853 225.059 145.216 225.579 148.548C225.628 148.856 226.099 148.726 226.05 148.418C225.53 145.119 225.303 141.804 225.368 138.473C225.384 138.148 224.896 138.148 224.88 138.473Z" fill="#76D7D2"/>
<path d="M229.592 140.585C230.925 139.236 232.225 137.823 233.46 136.376C233.655 136.133 233.314 135.791 233.119 136.035C231.884 137.481 230.6 138.879 229.251 140.244C229.024 140.471 229.365 140.813 229.592 140.585Z" fill="#76D7D2"/>
<path d="M36.8351 155.925C33.2926 153.406 30.8389 149.588 30.0101 145.314C29.9614 145.411 29.8964 145.509 29.8476 145.606C30.2376 145.493 30.5951 145.59 30.8876 145.883C31.0989 146.094 31.3751 145.834 31.2776 145.59C29.1164 140.715 27.9789 135.434 27.9626 130.104C27.8976 130.185 27.8489 130.266 27.7839 130.331C27.9464 130.413 28.1251 130.51 28.2876 130.591C28.4014 130.786 28.7589 130.721 28.7426 130.461C28.6289 129.048 28.5151 127.634 28.4014 126.22C28.3039 124.969 28.1576 123.653 28.9701 122.596C28.8564 122.629 28.7426 122.661 28.6289 122.678C29.7664 123.49 30.4326 124.806 31.0989 125.993C31.7489 127.163 32.3664 128.365 32.9514 129.568C34.1701 132.103 35.2101 134.719 36.0714 137.4C37.7776 142.633 38.8014 148.06 39.1426 153.553C39.1588 153.861 39.6463 153.861 39.6301 153.553C39.2726 147.833 38.1839 142.161 36.3639 136.718C35.4701 134.053 34.4139 131.453 33.1789 128.934C32.5451 127.634 31.8789 126.366 31.1639 125.115C30.5464 124.026 29.9126 122.986 28.8726 122.239C28.7589 122.158 28.6126 122.223 28.5314 122.32C27.8001 123.279 27.7839 124.481 27.8489 125.651C27.9626 127.244 28.1089 128.836 28.2389 130.445C28.3851 130.396 28.5476 130.364 28.6939 130.315C28.4501 129.893 28.1089 129.763 27.6376 129.828C27.5401 129.844 27.4589 129.958 27.4589 130.055C27.4914 135.483 28.6451 140.829 30.8389 145.785C30.9689 145.688 31.0989 145.59 31.2289 145.493C30.8064 145.054 30.2864 144.924 29.7176 145.086C29.5876 145.119 29.5226 145.249 29.5551 145.379C30.4164 149.783 32.9514 153.683 36.5914 156.283C36.8514 156.526 37.0951 156.104 36.8351 155.925Z" fill="#76D7D2"/>
<path d="M35.3725 133.695C35.2262 132.769 35.1125 131.843 35.0637 130.916C35.015 130.055 34.7712 128.771 35.4212 128.089C35.795 127.715 35.9737 127.536 36.055 126.968C36.1687 126.058 36.1687 125.131 36.2662 124.221C36.4612 122.32 36.7375 120.451 37.1275 118.583C37.1925 118.274 37.225 117.689 37.3875 117.413C37.7775 116.779 38.3787 117.445 38.6875 117.754C39.24 118.306 39.6787 118.956 40.0525 119.639C41.6125 122.499 42.035 126.025 42.4575 129.21C42.9288 132.753 43.1238 136.328 43.0263 139.903C42.9288 143.965 42.3762 148.011 40.9787 151.846C40.865 152.139 41.3362 152.269 41.45 151.976C44.1637 144.485 43.92 135.986 42.7987 128.219C42.3275 124.92 41.8237 121.166 39.825 118.371C39.3862 117.77 38.0537 115.853 37.1925 116.714C36.7375 117.153 36.705 118.176 36.5912 118.745C36.38 119.818 36.185 120.89 36.0387 121.979C35.8925 123.035 35.7787 124.091 35.6812 125.148C35.6325 125.716 35.6812 126.366 35.5512 126.919C35.4212 127.455 35.0312 127.618 34.7712 128.04C34.3487 128.69 34.5112 129.714 34.5437 130.445C34.5925 131.566 34.7225 132.688 34.9012 133.809C34.95 134.134 35.4212 134.004 35.3725 133.695Z" fill="#76D7D2"/>
<path d="M37.3386 117.071C39.9548 127.211 40.6861 137.758 39.4998 148.158C39.4673 148.466 39.9548 148.466 39.9873 148.158C41.1736 137.709 40.4261 127.114 37.8098 116.941C37.7286 116.649 37.2574 116.779 37.3386 117.071Z" fill="#76D7D2"/>
<path d="M28.2876 122.58C32.1063 132.346 35.0801 142.421 37.2088 152.691C37.2738 153 37.7451 152.87 37.6801 152.561C35.5676 142.291 32.5776 132.216 28.7588 122.45C28.6288 122.157 28.1576 122.287 28.2876 122.58Z" fill="#76D7D2"/>
<path d="M28.3689 137.53C31.0339 138.278 33.2439 140.033 34.5927 142.454C34.7389 142.73 35.1614 142.486 35.0152 142.21C33.6014 139.691 31.2614 137.855 28.4989 137.075C28.1902 136.978 28.0602 137.449 28.3689 137.53Z" fill="#76D7D2"/>
<path d="M33.7637 131.225C33.4712 133.744 33.4225 136.263 33.6175 138.781C33.6337 139.09 34.1212 139.09 34.105 138.781C33.91 136.263 33.9587 133.744 34.2512 131.225C34.2837 130.916 33.7962 130.916 33.7637 131.225Z" fill="#76D7D2"/>
<path d="M35.4863 127.975C37.6963 130.851 39.2401 134.166 40.0201 137.709C40.0851 138.018 40.5563 137.888 40.4913 137.579C39.6951 134.004 38.1513 130.64 35.9088 127.731C35.7301 127.471 35.3076 127.715 35.4863 127.975Z" fill="#76D7D2"/>
<path d="M41.1414 122.125C40.3289 124.01 39.7602 125.96 39.4514 127.992C39.4027 128.3 39.8739 128.43 39.9227 128.122C40.2152 126.139 40.7677 124.221 41.5639 122.369C41.6939 122.093 41.2714 121.833 41.1414 122.125Z" fill="#76D7D2"/>
<path d="M19.805 167.544C28.6125 164.44 38.005 166.91 46.845 168.486C56.2863 170.16 65.825 171.265 75.38 171.769C80.7913 172.061 86.2025 172.159 91.63 172.061C91.9388 172.061 91.9388 171.574 91.63 171.574C81.8638 171.736 72.0813 171.281 62.3638 170.225C57.4238 169.689 52.5 168.99 47.6088 168.129C43.2375 167.365 38.8825 166.423 34.4788 165.903C29.5225 165.334 24.4363 165.399 19.675 167.073C19.3825 167.186 19.5125 167.658 19.805 167.544Z" fill="#76D7D2"/>
<path d="M70.8464 167.138C85.4227 170.713 100.519 169.77 115.306 168.405C122.911 167.706 130.5 166.878 138.121 166.471C145.726 166.065 153.315 166.195 160.904 166.943C169.728 167.82 178.454 169.429 187.131 171.249C187.44 171.314 187.57 170.843 187.261 170.778C172.181 167.609 156.955 165.285 141.518 165.838C126.405 166.374 111.423 168.86 96.2939 169.136C87.7952 169.299 79.2639 168.698 70.9927 166.666C70.6677 166.585 70.5377 167.056 70.8464 167.138Z" fill="#76D7D2"/>
<path d="M134.53 177.456C146.49 174.986 158.661 177.326 170.572 178.903C182.419 180.463 194.346 180.723 206.209 179.211C212.774 178.383 219.258 177.05 225.611 175.263C225.92 175.181 225.79 174.71 225.481 174.791C213.96 178.041 202.016 179.731 190.04 179.78C184.093 179.796 178.177 179.39 172.279 178.643C166.25 177.879 160.254 176.888 154.209 176.319C147.595 175.701 140.916 175.636 134.384 177.001C134.091 177.05 134.221 177.521 134.53 177.456Z" fill="#76D7D2"/>
<path d="M188.171 165.009C194.249 167.268 200.781 165.935 206.875 164.473C213.619 162.864 220.33 161.531 227.269 161.141C231.12 160.93 234.988 160.963 238.839 161.206C239.148 161.223 239.148 160.735 238.839 160.719C232.144 160.28 225.433 160.54 218.786 161.499C215.471 161.986 212.189 162.669 208.939 163.465C205.705 164.245 202.455 165.074 199.14 165.48C195.484 165.935 191.779 165.821 188.301 164.521C188.009 164.44 187.879 164.911 188.171 165.009Z" fill="#76D7D2"/>
<path d="M183.248 112.976C182.776 114.439 182.289 115.885 181.818 117.348C181.704 117.721 181.59 118.079 181.704 118.469C181.866 118.989 182.419 119.298 182.435 119.883C182.533 119.801 182.646 119.72 182.744 119.655C180.826 119.086 180.891 122.141 180.956 123.214C181.07 125.343 181.753 127.39 182.89 129.178C183.053 129.438 183.475 129.194 183.313 128.934C182.5 127.666 181.931 126.269 181.639 124.79C181.476 123.994 180.908 119.606 182.614 120.11C182.76 120.159 182.923 120.029 182.923 119.883C182.923 119.493 182.776 119.233 182.549 118.924C182.126 118.323 182.159 117.884 182.386 117.185C182.825 115.82 183.28 114.471 183.719 113.106C183.816 112.798 183.345 112.668 183.248 112.976Z" fill="#76D7D2"/>
<path d="M183.41 113.041C185.246 114.91 185.701 117.949 185.847 120.451C186.01 123.149 185.62 125.846 184.759 128.398C184.661 128.69 185.132 128.82 185.23 128.528C186.172 125.749 186.562 122.791 186.302 119.866C186.091 117.38 185.571 114.536 183.767 112.684C183.524 112.473 183.182 112.814 183.41 113.041Z" fill="#76D7D2"/>
<path d="M186.319 120.273C186.644 118.095 187.196 115.983 187.96 113.919C187.846 113.968 187.716 114.016 187.602 114.065C187.944 114.293 188.285 114.536 188.626 114.764C188.789 114.878 188.984 114.731 189 114.553C189.146 110.929 191.974 108.15 192.737 104.705C192.575 104.705 192.429 104.705 192.266 104.705C193.566 112.538 191.925 120.695 187.7 127.423C187.537 127.683 187.96 127.926 188.122 127.666C192.412 120.825 194.054 112.538 192.737 104.575C192.705 104.331 192.315 104.348 192.266 104.575C191.486 108.085 188.659 110.864 188.512 114.553C188.642 114.488 188.756 114.406 188.886 114.341C188.545 114.114 188.204 113.87 187.862 113.643C187.716 113.545 187.554 113.659 187.505 113.789C186.741 115.853 186.189 117.965 185.864 120.143C185.799 120.451 186.27 120.581 186.319 120.273Z" fill="#76D7D2"/>
<path d="M192.217 105.713C191.697 111.709 190.072 117.559 187.424 122.954C187.294 123.23 187.7 123.474 187.846 123.198C190.527 117.705 192.185 111.79 192.705 105.713C192.721 105.388 192.234 105.404 192.217 105.713Z" fill="#76D7D2"/>
<path d="M183.183 113.431C183.849 118.274 184.483 123.214 183.459 128.04C183.394 128.349 183.865 128.479 183.93 128.17C184.986 123.246 184.336 118.225 183.654 113.301C183.621 112.993 183.15 113.123 183.183 113.431Z" fill="#76D7D2"/>
<path d="M159.571 129.714C162.074 129.519 164.593 129.698 167.03 130.299C169.094 130.803 171.141 131.843 173.303 131.518C175.529 131.176 177.398 129.698 179.689 129.616C181.899 129.535 184.076 130.299 186.254 129.665C186.563 129.584 186.433 129.113 186.124 129.194C183.849 129.844 181.558 128.95 179.266 129.161C177.186 129.356 175.448 130.608 173.433 131.014C171.109 131.469 168.801 130.201 166.559 129.714C164.251 129.21 161.895 129.064 159.555 129.259C159.263 129.243 159.263 129.73 159.571 129.714Z" fill="#76D7D2"/>
<path d="M16.23 152.496C20.715 156.689 27.215 152.155 32.3663 153.829C32.6588 153.926 32.7888 153.455 32.4963 153.358C29.75 152.464 26.9388 153.163 24.1763 153.585C21.5925 153.975 18.6188 154.04 16.5713 152.139C16.3438 151.944 15.9863 152.285 16.23 152.496Z" fill="#76D7D2"/>
<path d="M209.589 158.427C183.117 160.101 155.167 161.125 125.852 161.271C96.3261 161.417 68.1649 160.654 41.5149 159.24C44.1311 154.641 46.7636 150.059 49.4124 145.492C51.5411 141.804 53.7024 138.131 55.8636 134.475C78.7761 135.775 103.541 136.295 129.915 135.645C154.761 135.027 178.129 133.435 199.822 131.209C201.821 134.02 204.129 137.822 206.014 142.616C208.451 148.84 209.296 154.414 209.589 158.427Z" fill="white" stroke="#161616" stroke-miterlimit="10"/>
<path d="M53.7836 155.925C63.0136 156.916 72.3086 157.225 81.6036 156.851C81.9123 156.835 81.9123 156.348 81.6036 156.364C72.3248 156.738 63.0298 156.429 53.7836 155.438C53.4748 155.405 53.4748 155.893 53.7836 155.925Z" fill="#161616"/>
<path d="M70.2124 153.585C74.7137 153.764 79.2312 153.65 83.7324 153.65C88.2987 153.634 92.8487 153.634 97.4149 153.618C97.7237 153.618 97.7237 153.13 97.4149 153.13C92.8487 153.146 88.2987 153.146 83.7324 153.163C79.2312 153.179 74.7137 153.276 70.2124 153.098C69.9036 153.081 69.9036 153.569 70.2124 153.585Z" fill="#161616"/>
<path d="M130.289 152.399C144.052 151.521 157.8 150.481 171.547 149.279C171.856 149.246 171.856 148.759 171.547 148.791C157.816 149.994 144.052 151.034 130.289 151.911C129.98 151.928 129.98 152.415 130.289 152.399Z" fill="#161616"/>
<path d="M166.169 144.046C176.829 143.656 187.472 142.99 198.1 141.999C198.409 141.966 198.409 141.479 198.1 141.511C187.472 142.486 176.829 143.169 166.169 143.559C165.86 143.559 165.86 144.046 166.169 144.046Z" fill="#161616"/>
<path d="M175.496 154.479C184.45 154.089 193.404 153.699 202.357 153.292C202.666 153.276 202.666 152.789 202.357 152.805C193.404 153.195 184.45 153.585 175.496 153.991C175.187 154.007 175.187 154.495 175.496 154.479Z" fill="#161616"/>
<path d="M57.3586 133.89C57.7649 134.654 58.1711 135.417 58.5936 136.197C58.9674 136.441 60.2349 137.189 61.8274 136.896C62.4936 136.782 63.0136 136.522 63.3549 136.311C63.8099 135.515 64.2649 134.719 64.7199 133.922C63.8261 133.646 62.5099 133.321 60.8849 133.337C59.4061 133.354 58.2036 133.63 57.3586 133.89Z" fill="white" stroke="#161616" stroke-miterlimit="10"/>
<path d="M57.635 134.166C59.0975 135.076 61.1937 134.865 62.835 134.768C63.1437 134.751 63.1437 134.264 62.835 134.28C61.2912 134.361 59.26 134.605 57.8787 133.744C57.6187 133.581 57.375 134.004 57.635 134.166Z" fill="#161616"/>
<path d="M53.8486 123.214C55.2299 126.789 56.6111 130.364 57.9761 133.939C58.0899 134.231 58.5611 134.101 58.4474 133.809C57.0661 130.234 55.6849 126.659 54.3199 123.084C54.2061 122.791 53.7349 122.905 53.8486 123.214Z" fill="#161616"/>
<path d="M55.9287 123.295C56.6437 126.951 57.4887 130.591 58.4475 134.199C58.5287 134.507 59 134.377 58.9187 134.069C57.9437 130.461 57.0987 126.821 56.4 123.165C56.335 122.856 55.8637 122.986 55.9287 123.295Z" fill="#161616"/>
<path d="M53.9462 121.394C53.7024 120.614 54.3524 119.882 54.1736 119.07C53.9624 118.209 53.1174 117.851 53.2149 116.86C53.2799 116.177 53.6212 115.527 53.5074 114.829C53.4262 114.39 53.1499 114.13 52.9549 113.74C52.7274 113.252 52.8249 112.797 52.9549 112.294C53.0849 111.725 53.2961 111.107 53.0686 110.522C52.9549 110.214 52.7274 110.067 52.5324 109.824C52.0774 109.287 52.1424 108.735 52.2561 108.085C52.6136 106.07 52.6299 104.136 52.1099 102.137C52.0286 101.829 51.5574 101.959 51.6386 102.267C51.9311 103.405 52.0936 104.559 52.0611 105.729C52.0286 106.72 51.7686 107.646 51.6874 108.621C51.6224 109.417 51.8824 109.759 52.3699 110.327C53.0037 111.091 52.4674 111.969 52.3536 112.83C52.3211 113.106 52.3211 113.399 52.4024 113.675C52.5324 114.13 52.9387 114.439 53.0199 114.926C53.1499 115.706 52.6624 116.47 52.7111 117.25C52.7761 118.095 53.6537 118.534 53.7187 119.346C53.7837 120.11 53.2311 120.727 53.4749 121.524C53.5724 121.816 54.0437 121.686 53.9462 121.394Z" fill="#76D7D2"/>
<path d="M56.3026 121.02C55.7988 120.549 56.4326 120.061 56.2538 119.509C56.1563 119.2 55.8313 118.972 55.8151 118.631C55.7988 118.322 56.0101 117.981 56.0588 117.672C56.1401 117.087 55.8313 116.811 55.6851 116.275C55.4901 115.544 55.9288 114.731 56.0588 114.016C56.1563 113.464 56.1076 112.992 55.9126 112.472C55.7501 112.05 55.5876 111.692 55.6201 111.237C55.6526 110.864 55.8151 110.522 55.8963 110.165C56.2213 108.865 55.0676 107.484 55.6201 106.281C55.7501 106.005 55.3276 105.745 55.1976 106.037C54.5476 107.419 55.7501 108.735 55.3926 110.165C55.2138 110.88 55.0026 111.4 55.2463 112.131C55.3926 112.537 55.6038 112.927 55.6201 113.382C55.6526 113.837 55.4901 114.276 55.3763 114.699C55.2301 115.251 55.0676 115.836 55.2138 116.405C55.3438 116.876 55.6526 117.234 55.5388 117.754C55.4738 118.014 55.3601 118.257 55.3438 118.534C55.3276 118.794 55.3601 118.989 55.4901 119.216C55.5551 119.33 55.7501 119.509 55.7663 119.59C55.7988 119.72 55.6851 119.98 55.6526 120.094C55.5388 120.597 55.5713 120.971 55.9613 121.345C56.1888 121.572 56.5301 121.231 56.3026 121.02Z" fill="#76D7D2"/>
<path d="M34.3974 47.5212C37.6149 48.5287 41.0274 48.4637 44.3587 48.3987C47.5437 48.3337 50.7124 48.1224 53.8649 47.7974C60.1537 47.1312 66.3774 45.9449 72.4874 44.3037C84.8537 40.9887 96.6999 35.8537 107.766 29.4512C114.039 25.8274 120.051 21.7974 125.82 17.4262C126.064 17.2312 125.82 16.8087 125.576 17.0037C115.485 24.6574 104.597 31.2874 93.0274 36.4549C81.4249 41.6387 69.1074 45.3762 56.4812 47.0012C53.0199 47.4562 49.5262 47.7487 46.0324 47.8624C42.2299 47.9924 38.2162 48.2037 34.5437 47.0499C34.2349 46.9687 34.1049 47.4237 34.3974 47.5212Z" fill="#76D7D2"/>
<path d="M118.556 22.6263C122.895 26.38 128.014 29.0613 133.279 31.2875C138.934 33.6763 144.784 35.6588 150.731 37.1863C162.496 40.2413 174.7 41.6063 186.839 41.2325C193.761 41.0213 200.992 40.55 207.606 38.34C207.899 38.2425 207.769 37.7713 207.476 37.8688C201.594 39.8513 195.24 40.355 189.081 40.6638C183.117 40.9563 177.137 40.8263 171.206 40.2738C159.197 39.1688 147.351 36.3575 136.139 31.9213C130.012 29.5 123.951 26.6238 118.93 22.285C118.654 22.0738 118.312 22.415 118.556 22.6263Z" fill="#76D7D2"/>
<path d="M53.3936 30.9299C59.3574 34.3749 66.4586 35.2199 73.1861 35.9349C80.1086 36.6661 87.0961 36.8611 94.0674 36.5523C107.815 35.9348 121.497 33.3349 134.497 28.8336C141.826 26.2986 148.927 23.1624 155.736 19.4736C156.012 19.3274 155.769 18.9049 155.492 19.0511C143.516 25.5674 130.581 30.2961 117.24 33.1236C103.866 35.9511 90.0699 36.8611 76.4361 35.7561C72.5686 35.4474 68.6849 35.0086 64.8661 34.3099C60.9499 33.5949 57.0986 32.5224 53.6374 30.5236C53.3774 30.3611 53.1336 30.7836 53.3936 30.9299Z" fill="#76D7D2"/>
<path d="M73.4137 41.4762C73.4137 43.4912 73.4137 45.5225 73.4137 47.5375C73.4137 47.8462 73.9012 47.8462 73.9012 47.5375C73.9012 45.5225 73.9012 43.4912 73.9012 41.4762C73.9012 41.1512 73.4137 41.1512 73.4137 41.4762Z" fill="#161616"/>
<path d="M73.5599 51.5349C73.5599 53.9074 73.5599 56.2636 73.5599 58.6361C73.5599 58.9449 74.0474 58.9449 74.0474 58.6361C74.0474 56.2636 74.0474 53.9074 74.0474 51.5349C74.0474 51.2262 73.5599 51.2099 73.5599 51.5349Z" fill="#161616"/>
<path d="M81.8474 58.1974C81.8474 61.1549 81.8474 64.1124 81.8474 67.0699C81.8474 67.3786 82.3349 67.3786 82.3349 67.0699C82.3349 64.1124 82.3349 61.1549 82.3349 58.1974C82.3349 57.8724 81.8474 57.8724 81.8474 58.1974Z" fill="#161616"/>
<path d="M81.5548 74.1712C81.5548 75.6012 81.5548 77.0312 81.5548 78.4612C81.5548 78.77 82.0423 78.77 82.0423 78.4612C82.0423 77.0312 82.0423 75.6012 82.0423 74.1712C82.0423 73.8624 81.5548 73.8624 81.5548 74.1712Z" fill="#161616"/>
<path d="M98.4224 30.5236C98.4224 33.1399 98.4224 35.7561 98.4224 38.3724C98.4224 38.6811 98.9099 38.6811 98.9099 38.3724C98.9099 35.7561 98.9099 33.1399 98.9099 30.5236C98.9099 30.2149 98.4224 30.2149 98.4224 30.5236Z" fill="#161616"/>
<path d="M98.4224 41.1674C98.4224 43.1337 98.4224 45.1162 98.4224 47.0824C98.4224 47.3912 98.9099 47.3912 98.9099 47.0824C98.9099 45.1162 98.9099 43.1337 98.9099 41.1674C98.9099 40.8587 98.4224 40.8587 98.4224 41.1674Z" fill="#161616"/>
<path d="M168.249 33.4811C168.249 36.8774 168.249 40.2899 168.249 43.6861C168.249 43.9949 168.736 43.9949 168.736 43.6861C168.736 40.2899 168.736 36.8774 168.736 33.4811C168.736 33.1724 168.249 33.1724 168.249 33.4811Z" fill="#161616"/>
<path d="M168.102 47.6837C168.102 49.455 168.102 51.2425 168.102 53.0137C168.102 53.3225 168.59 53.3225 168.59 53.0137C168.59 51.2425 168.59 49.455 168.59 47.6837C168.59 47.375 168.102 47.375 168.102 47.6837Z" fill="#161616"/>
<path d="M139.096 27.5662C139.096 29.7437 139.096 31.9049 139.096 34.0824C139.096 34.3912 139.584 34.3912 139.584 34.0824C139.584 31.9049 139.584 29.7437 139.584 27.5662C139.584 27.2574 139.096 27.2412 139.096 27.5662Z" fill="#161616"/>
<path d="M139.259 40.2899C139.259 42.2561 139.259 44.2386 139.259 46.2049C139.259 46.5136 139.746 46.5136 139.746 46.2049C139.746 44.2386 139.746 42.2561 139.746 40.2899C139.746 39.9811 139.259 39.9811 139.259 40.2899Z" fill="#161616"/>
<path d="M184.531 50.9336C184.531 52.8512 184.531 54.7849 184.531 56.7024C184.531 57.0112 185.019 57.0112 185.019 56.7024C185.019 54.7849 185.019 52.8512 185.019 50.9336C185.019 50.6249 184.531 50.6249 184.531 50.9336Z" fill="#161616"/>
<path d="M184.677 60.7C184.677 62.2275 184.677 63.755 184.677 65.2825C184.677 65.5913 185.165 65.5913 185.165 65.2825C185.165 63.755 185.165 62.2275 185.165 60.7C185.165 60.3913 184.677 60.3913 184.677 60.7Z" fill="#161616"/>
<path d="M73.7875 52.4774C75.2773 52.4774 76.485 51.2697 76.485 49.7799C76.485 48.2901 75.2773 47.0824 73.7875 47.0824C72.2977 47.0824 71.09 48.2901 71.09 49.7799C71.09 51.2697 72.2977 52.4774 73.7875 52.4774Z" fill="#7C7C7C"/>
<path d="M81.9287 81.6138C82.9518 81.6138 83.7812 80.7844 83.7812 79.7613C83.7812 78.7382 82.9518 77.9088 81.9287 77.9088C80.9056 77.9088 80.0762 78.7382 80.0762 79.7613C80.0762 80.7844 80.9056 81.6138 81.9287 81.6138Z" fill="#7C7C7C"/>
<path d="M98.8775 50.5436C99.3621 50.5436 99.755 50.1508 99.755 49.6661C99.755 49.1815 99.3621 48.7886 98.8775 48.7886C98.3929 48.7886 98 49.1815 98 49.6661C98 50.1508 98.3929 50.5436 98.8775 50.5436Z" fill="#7C7C7C"/>
<path d="M139.957 53.0136C140.639 53.0136 141.192 52.4607 141.192 51.7786C141.192 51.0965 140.639 50.5436 139.957 50.5436C139.275 50.5436 138.722 51.0965 138.722 51.7786C138.722 52.4607 139.275 53.0136 139.957 53.0136Z" fill="#7C7C7C"/>
<path d="M139.876 37.69C140.504 37.69 141.014 37.1808 141.014 36.5525C141.014 35.9243 140.504 35.415 139.876 35.415C139.248 35.415 138.739 35.9243 138.739 36.5525C138.739 37.1808 139.248 37.69 139.876 37.69Z" fill="#7C7C7C"/>
<path d="M81.766 72.9524C82.4661 72.9524 83.0335 72.3849 83.0335 71.6849C83.0335 70.9849 82.4661 70.4174 81.766 70.4174C81.066 70.4174 80.4985 70.9849 80.4985 71.6849C80.4985 72.3849 81.066 72.9524 81.766 72.9524Z" fill="#2D2D2D"/>
<path d="M98.5037 31.0598C99.1947 31.0598 99.7549 30.4996 99.7549 29.8086C99.7549 29.1175 99.1947 28.5573 98.5037 28.5573C97.8126 28.5573 97.2524 29.1175 97.2524 29.8086C97.2524 30.4996 97.8126 31.0598 98.5037 31.0598Z" fill="#2D2D2D"/>
<path d="M98.5037 42.1262C99.1947 42.1262 99.7549 41.566 99.7549 40.875C99.7549 40.1839 99.1947 39.6237 98.5037 39.6237C97.8126 39.6237 97.2524 40.1839 97.2524 40.875C97.2524 41.566 97.8126 42.1262 98.5037 42.1262Z" fill="#2D2D2D"/>
<path d="M139.34 48.3338C139.681 48.3338 139.957 48.0573 139.957 47.7163C139.957 47.3752 139.681 47.0988 139.34 47.0988C138.999 47.0988 138.722 47.3752 138.722 47.7163C138.722 48.0573 138.999 48.3338 139.34 48.3338Z" fill="#2D2D2D"/>
<path d="M168.509 58.1812C169.936 58.1812 171.093 57.0244 171.093 55.5975C171.093 54.1705 169.936 53.0137 168.509 53.0137C167.082 53.0137 165.925 54.1705 165.925 55.5975C165.925 57.0244 167.082 58.1812 168.509 58.1812Z" fill="#2D2D2D"/>
<path d="M185.198 70.3038C185.88 70.3038 186.432 69.7508 186.432 69.0687C186.432 68.3867 185.88 67.8337 185.198 67.8337C184.515 67.8337 183.963 68.3867 183.963 69.0687C183.963 69.7508 184.515 70.3038 185.198 70.3038Z" fill="#2D2D2D"/>
<path d="M168.492 37.69C169.121 37.69 169.63 37.1808 169.63 36.5525C169.63 35.9243 169.121 35.415 168.492 35.415C167.864 35.415 167.355 35.9243 167.355 36.5525C167.355 37.1808 167.864 37.69 168.492 37.69Z" fill="#2D2D2D"/>
<path d="M168.509 42.3537C168.993 42.3537 169.386 41.9609 169.386 41.4762C169.386 40.9916 168.993 40.5987 168.509 40.5987C168.024 40.5987 167.631 40.9916 167.631 41.4762C167.631 41.9609 168.024 42.3537 168.509 42.3537Z" fill="#7C7C7C"/>
<path d="M184.921 59.1724C185.406 59.1724 185.799 58.7795 185.799 58.2949C185.799 57.8102 185.406 57.4174 184.921 57.4174C184.437 57.4174 184.044 57.8102 184.044 58.2949C184.044 58.7795 184.437 59.1724 184.921 59.1724Z" fill="#7C7C7C"/>
<path d="M61.681 70.9212C60.9173 72.1237 60.1535 73.31 59.3898 74.5125C58.7885 75.455 58.1873 76.4462 57.976 77.5675C57.6348 79.5012 58.9348 80.8012 60.0398 82.1987C60.6735 82.995 61.2585 83.905 60.9823 84.945C60.7385 85.8875 59.9585 86.7 60.0723 87.74C60.121 88.1787 60.3485 88.52 60.5435 88.8937C60.8685 89.5437 61.096 90.2425 61.1773 90.9575C61.3235 92.29 61.0148 93.6225 60.316 94.76C60.1535 95.0362 60.576 95.28 60.7385 95.0037C61.811 93.2325 62.0222 91.0062 61.1935 89.0887C60.901 88.4062 60.4135 87.8537 60.6248 87.0412C60.771 86.505 61.0798 86.0337 61.291 85.53C61.5998 84.7662 61.6323 84.0025 61.3073 83.2387C60.576 81.5162 58.5448 80.395 58.4148 78.3962C58.3335 77.0475 59.1298 75.8125 59.8123 74.7237C60.576 73.5212 61.3398 72.3187 62.1035 71.1325C62.266 70.905 61.8435 70.6612 61.681 70.9212Z" fill="#76D7D2"/>
<path d="M91.6948 89.3325C90.4924 90.5512 89.8911 92.2575 90.0861 93.9637C90.1836 94.8575 90.5411 95.605 90.9636 96.4012C91.5973 97.6037 91.7436 98.5137 91.2561 99.7812C90.9636 100.529 90.5899 101.292 90.6874 102.105C90.7849 103.031 91.4999 103.519 91.9386 104.282C92.8648 105.94 90.9961 107.679 91.4348 109.45C91.5161 109.759 91.9873 109.629 91.9061 109.32C91.4998 107.727 93.0273 106.314 92.6373 104.705C92.4423 103.925 91.8086 103.437 91.4186 102.771C90.8661 101.829 91.3861 100.837 91.7273 99.9112C92.0036 99.18 92.1986 98.4487 92.0361 97.6687C91.8248 96.71 91.1749 95.93 90.8336 95.02C90.1511 93.1837 90.6711 91.055 92.0361 89.6737C92.2636 89.4462 91.9223 89.105 91.6948 89.3325Z" fill="#76D7D2"/>
<path d="M197.19 92.875C195.565 94.7762 193.989 97.23 194.151 99.8463C194.232 101.098 194.785 102.105 195.467 103.129C196.264 104.315 196.946 105.436 196.556 106.915C196.036 108.849 194.119 110.783 194.785 112.911C195.191 114.211 196.491 114.926 196.8 116.291C197.157 117.916 196.41 119.623 195.744 121.069C195.614 121.345 196.036 121.605 196.166 121.313C196.719 120.11 197.255 118.859 197.352 117.526C197.45 116.259 197.027 115.251 196.247 114.276C195.321 113.155 194.899 112.196 195.386 110.783C195.76 109.694 196.426 108.719 196.832 107.646C197.222 106.639 197.32 105.599 196.897 104.575C196.459 103.503 195.646 102.674 195.126 101.65C193.664 98.725 195.63 95.4425 197.531 93.2325C197.742 92.9887 197.401 92.6475 197.19 92.875Z" fill="#76D7D2"/>
<path d="M201.756 110.181C200.911 110.977 200.375 112.017 200.229 113.171C200.05 114.552 200.57 115.511 201.122 116.714C201.805 118.192 200.472 119.525 200.83 121.02C201.025 121.832 201.464 122.45 201.447 123.311C201.415 124.205 201.057 125.017 200.44 125.651C200.229 125.879 200.57 126.22 200.781 125.992C201.61 125.147 202.049 123.994 201.902 122.807C201.821 122.125 201.447 121.54 201.301 120.874C201.09 119.98 201.577 119.167 201.756 118.322C202.065 116.892 201.09 116.047 200.781 114.747C200.407 113.204 200.944 111.579 202.097 110.506C202.341 110.311 202 109.97 201.756 110.181Z" fill="#76D7D2"/>
<path d="M156.565 64.86C155.639 66.29 154.615 67.98 155.151 69.7512C155.411 70.6125 156.126 70.97 156.516 71.7175C156.89 72.465 156.532 73.3425 156.272 74.0575C155.899 75.0812 155.379 76.3325 156.321 77.21C156.695 77.5512 157.15 77.7462 157.312 78.2825C157.442 78.7212 157.329 79.2412 157.247 79.6637C157.085 80.4437 156.857 81.2237 156.955 82.02C156.987 82.3287 157.475 82.3287 157.442 82.02C157.296 80.6875 158.271 79.1925 157.702 77.9087C157.377 77.1612 156.37 76.95 156.272 76.105C156.191 75.4712 156.532 74.7725 156.744 74.1875C157.15 73.0662 157.442 71.945 156.565 70.97C155.752 70.0762 155.33 69.215 155.59 67.98C155.801 66.9237 156.419 65.9812 157.004 65.0875C157.166 64.8275 156.744 64.5837 156.565 64.86Z" fill="#76D7D2"/>
<path d="M89.7611 47.6999C88.8023 48.3662 88.6398 49.5524 89.3061 50.4787C89.9073 51.2912 88.9811 51.6649 89.1598 52.4287C89.2248 52.705 89.4523 52.8674 89.5823 53.1112C89.9073 53.7124 89.5336 54.3462 89.2248 54.8825C89.0623 55.1587 89.4848 55.4025 89.6473 55.1262C89.9398 54.6225 90.2648 54.0375 90.2161 53.4362C90.1998 53.1599 90.0861 52.9812 89.9723 52.7375C89.8911 52.5912 89.7936 52.5425 89.7286 52.3637C89.6473 52.055 89.7611 51.99 89.9073 51.6975C90.1186 51.2912 90.1998 50.9499 89.9723 50.5274C89.7611 50.1374 89.4198 49.9099 89.3873 49.4224C89.3548 48.9024 89.5986 48.3987 90.0211 48.1062C90.2648 47.9437 90.0211 47.5212 89.7611 47.6999Z" fill="#2B2B2B"/>
<path d="M66.5073 59.8875C66.1986 60.2288 66.0036 60.6025 65.9711 61.0575C65.9386 61.5775 66.3611 62.1138 66.1336 62.585C65.9711 62.9263 65.7923 63.0563 65.8248 63.4788C65.8573 63.9175 66.5886 65.12 65.9223 65.38C65.6298 65.4938 65.7598 65.965 66.0523 65.8513C66.8648 65.5425 66.7023 64.6813 66.4748 64.015C66.2961 63.495 66.4423 63.235 66.6698 62.7475C66.7186 62.6338 66.7998 62.5525 66.8161 62.4225C66.8486 62.1625 66.7023 62.0163 66.6048 61.805C66.3448 61.2363 66.4098 60.6838 66.8323 60.2288C67.0598 60.0013 66.7023 59.6438 66.5073 59.8875Z" fill="#2B2B2B"/>
<path d="M190.852 64.9412C190.202 64.8925 189.731 65.38 189.634 66.0137C189.487 66.94 190.251 67.59 190.641 68.3375C190.901 68.8575 190.804 69.2637 190.641 69.7675C190.56 70.0275 190.462 69.9462 190.446 70.2387C190.43 70.4825 190.527 70.6612 190.69 70.84C191.129 71.3437 191.486 71.5712 191.437 72.3187C191.389 72.985 191.08 73.6187 190.787 74.1875C190.641 74.4637 191.064 74.7075 191.21 74.4312C191.551 73.7812 191.892 73.0662 191.925 72.3187C191.974 71.5875 191.681 71.2625 191.291 70.71C191.161 70.6287 191.112 70.4987 191.129 70.32C190.999 70.125 191.031 69.9625 191.194 69.8162C191.226 69.67 191.307 69.5562 191.34 69.3937C191.405 69.0525 191.34 68.7112 191.21 68.37C191.08 68.0125 190.852 67.72 190.641 67.4112C190.462 67.1512 190.251 66.8587 190.17 66.55C190.04 66.0787 190.17 65.3637 190.869 65.4125C191.161 65.4612 191.161 64.9737 190.852 64.9412Z" fill="#2B2B2B"/>
<path d="M140.559 153.325C137.358 153.813 134.66 153.926 132.792 153.926C131.768 168.828 131.914 176.384 133.247 176.595C134.368 176.774 136.334 171.736 139.129 161.483C142.98 160.524 146.848 159.565 150.699 158.606C151.089 154.836 150.212 153.374 149.334 152.708C147.709 151.489 145.434 152.561 140.559 153.325Z" fill="#161616" stroke="#161616" stroke-miterlimit="10"/>
<path d="M124.845 126.919C122.148 129.373 123.074 136.035 127.088 143.006C128.03 142.893 129.509 142.795 131.28 142.941C132.011 143.006 134.303 143.234 140.153 145.363C141.371 145.818 143.061 146.451 145.076 147.313C143.5 147.735 141.924 148.158 140.331 148.58C140.51 150.481 140.835 152.643 141.42 154.95C142.493 159.224 144.085 162.718 145.548 165.334C149.204 164.261 152.194 163.205 154.355 162.425C159.539 160.524 162.285 159.159 164.918 157.323C167.729 155.356 169.208 153.699 169.663 151.619C169.923 150.416 169.776 149.376 169.728 149.003C169.403 146.988 168.281 145.623 167.111 144.323C164.544 141.446 163.26 140.016 161.164 138.424C156.37 134.8 151.999 132.899 147.14 130.835C143.386 129.243 140.884 128.186 137.244 127.309C131.426 125.96 127.055 124.904 124.845 126.919Z" fill="#424242"/>
<path opacity="0.11" d="M126.259 132.753C127.77 133.094 129.98 133.663 132.596 134.524C134.53 135.158 138.186 136.441 146.588 140.683C149.415 142.113 153.136 144.046 157.443 146.468C151.999 148.921 146.539 151.375 141.095 153.829C140.868 152.87 140.673 151.765 140.575 150.546C140.526 149.978 140.51 149.425 140.51 148.921C141.973 148.385 143.435 147.865 144.898 147.329C140.949 145.558 137.861 144.518 135.846 143.916C134.628 143.543 133.409 143.218 131.849 143.039C129.915 142.811 128.29 142.893 127.136 143.023C126.844 139.578 126.551 136.165 126.259 132.753Z" fill="#3D3D3D"/>
<path opacity="0.11" d="M127.071 142.714C129.753 142.308 133.945 141.999 138.901 143.055C143.143 143.949 146.425 145.525 148.603 146.776C146.003 148.32 143.419 149.864 140.819 151.408C140.689 150.579 140.559 149.766 140.429 148.938C141.908 148.385 143.386 147.833 144.849 147.28C141.713 145.915 139.064 144.973 137.098 144.355C134.985 143.673 133.961 143.445 133.36 143.315C130.776 142.779 128.599 142.698 127.071 142.714Z" fill="#3D3D3D"/>
<path d="M106.028 158.574C108.449 159.419 110.87 160.264 113.275 161.109C113.779 171.558 114.51 176.806 115.453 176.839C116.606 176.888 118.085 169.348 119.905 154.203C116.054 153.276 112.219 152.334 108.368 151.408C107.604 153.796 106.824 156.185 106.028 158.574Z" fill="#161616" stroke="#161616" stroke-miterlimit="10"/>
<path d="M127.12 142.958C126.974 138.294 126.438 134.426 125.918 131.599C124.829 125.635 123.886 124.693 123.058 124.303C121.254 123.474 119.418 125.066 114.835 127.163C111.081 128.885 111.569 128.154 105.134 130.575C100.421 132.346 94.7338 134.784 88.6888 138.326C87.3888 139.09 84.3338 140.926 81.3926 144.241C78.6301 147.345 78.4351 148.986 78.4351 149.783C78.4351 150.595 78.6301 152.415 81.2951 155.145C84.4313 158.346 87.9738 159.728 98.1951 162.994C101.006 163.888 103.574 164.7 105.865 165.399C107.1 163.043 108.043 160.995 108.725 159.403C110.643 154.918 111.049 152.805 111.211 151.733C111.39 150.546 111.471 149.555 111.488 148.873C109.83 148.434 108.156 148.011 106.499 147.573C108.384 146.5 110.724 145.395 113.519 144.518C119.011 142.811 123.838 142.714 127.12 142.958Z" fill="#424242"/>
<path opacity="0.13" d="M123.724 134.085C116.736 137.481 112.138 139.87 110.074 140.861C104.646 143.429 99.3488 145.785 94.1975 147.962C98.1463 147.41 102.014 149.262 103.964 152.626C106.093 156.282 105.508 161.027 102.501 164.196C103.606 164.586 104.695 164.976 105.8 165.382C106.775 163.546 107.506 162.002 108.026 160.881C109.31 158.07 110.139 156.25 110.772 153.764C111.26 151.879 111.455 150.302 111.536 149.262C109.814 148.694 108.091 148.109 106.369 147.54C107.929 146.695 109.716 145.85 111.731 145.119C117.728 142.941 123.187 142.665 127.087 142.844C127.055 141.771 127.022 140.683 126.941 139.545C126.795 137.189 126.551 134.963 126.259 132.883C125.674 133.143 124.796 133.581 123.724 134.085Z" fill="#3D3D3D"/>
<path opacity="0.15" d="M126.568 142.681C126.568 142.535 122.489 142.08 117.321 142.811C111.601 143.624 107.133 145.493 104.224 146.988C105.703 148.093 107.181 149.214 108.66 150.319C107.864 155.178 107.084 160.036 106.288 164.895C107.945 162.246 109.846 158.476 110.854 153.666C111.211 151.96 111.406 150.368 111.488 148.905C110.935 148.743 110.366 148.58 109.781 148.418C108.66 148.109 107.555 147.816 106.483 147.573C107.441 147.036 108.79 146.338 110.496 145.655C118.995 142.161 126.568 142.876 126.568 142.681Z" fill="#3D3D3D"/>
<path d="M138.983 89.0563C139.811 88.78 141.063 90.0638 141.81 90.8113C143.013 92.03 143.614 93.265 143.793 93.6388C146.003 98.2213 145.613 96.4013 147.481 100.659C149.773 105.908 151.333 110.864 151.333 110.864C152.096 113.285 152.568 115.089 154.046 117.315C155.72 119.818 157.101 120.484 157.67 120.711C159.555 121.491 161.343 121.15 162.139 120.939C163 120.094 163.666 119.363 164.121 118.843C165.048 117.786 165.438 117.218 166.169 117.136C166.331 117.12 167.079 117.039 167.469 117.478C167.648 117.673 167.68 117.884 167.859 117.933C168.086 117.998 168.314 117.738 168.59 117.478C168.704 117.364 169.451 116.665 170.231 116.34C170.638 116.161 171.418 115.934 171.645 116.226C171.873 116.519 171.369 117.136 171.596 117.364C171.824 117.591 172.376 117.071 172.961 117.315C173.286 117.461 173.563 117.819 173.579 118.16C173.611 118.583 173.254 118.68 173.189 119.233C173.124 119.688 173.335 119.769 173.303 120.143C173.238 120.711 172.718 120.793 172.003 121.621C171.596 122.093 171.71 122.125 170.979 123.214C170.703 123.62 170.345 124.156 170.069 124.465C168.996 125.668 167.176 125.765 166.218 125.83C164.365 125.928 162.903 125.375 162.074 124.985C161.521 125.375 160.676 125.863 159.588 126.236C156.776 127.163 154.306 126.513 153.299 126.236C149.285 125.115 146.929 122.076 145.369 119.996C143.045 116.909 142.2 114.228 140.673 109.353C140.201 107.874 138.788 103.178 138.235 96.8888C138.008 94.0288 137.634 89.5113 138.983 89.0563Z" fill="white"/>
<path d="M139.437 89.6413C140.867 90.1125 141.859 91.2663 142.687 92.485C143.549 93.7363 144.312 95.0525 145.044 96.4013C146.522 99.1637 147.757 102.04 148.911 104.949C150.081 107.874 151.154 110.831 152.242 113.772C153.12 116.112 154.176 118.599 156.207 120.159C158.092 121.605 160.774 122.206 162.886 120.89C163.146 120.727 162.902 120.305 162.642 120.467C160.4 121.865 157.507 120.89 155.769 119.119C153.786 117.071 152.941 114.227 151.982 111.628C149.951 106.07 147.871 100.415 144.962 95.2312C143.695 92.9725 142.2 90.0475 139.567 89.17C139.275 89.0725 139.145 89.5438 139.437 89.6413Z" fill="#161616"/>
<path d="M139.275 105.388C140.721 110.393 141.94 115.625 144.914 119.98C147.367 123.588 151.007 126.464 155.476 126.821C157.897 127.016 160.351 126.431 162.301 124.969C162.545 124.79 162.301 124.351 162.057 124.546C159.782 126.269 156.841 126.708 154.079 126.139C151.349 125.57 148.992 123.994 147.124 121.979C142.882 117.38 141.469 111.108 139.779 105.274C139.665 104.965 139.194 105.095 139.275 105.388Z" fill="#161616"/>
<path d="M162.935 120.955C163.618 119.996 164.251 118.891 165.08 118.062C165.568 117.575 166.364 117.087 167.063 117.477C167.664 117.819 167.713 118.599 167.355 119.119C167.176 119.379 167.599 119.622 167.778 119.362C168.541 118.274 167.745 116.811 166.413 116.876C165.616 116.925 164.966 117.429 164.479 118.03C163.78 118.875 163.179 119.817 162.529 120.711C162.334 120.955 162.756 121.199 162.935 120.955Z" fill="#161616"/>
<path d="M165.194 118.826C164.836 119.541 165.275 120.37 166.071 120.5C167.03 120.646 167.729 119.834 167.891 118.972C167.956 118.664 167.485 118.534 167.42 118.842C167.323 119.362 167.046 119.899 166.478 120.012C165.941 120.126 165.34 119.655 165.616 119.086C165.746 118.794 165.324 118.55 165.194 118.826Z" fill="#161616"/>
<path d="M161.976 125.115C163.845 125.489 165.616 126.35 167.55 125.944C169.11 125.619 170.443 124.66 171.304 123.344C171.483 123.084 171.06 122.84 170.881 123.1C170.036 124.384 168.704 125.278 167.176 125.521C165.421 125.798 163.78 124.985 162.09 124.644C161.798 124.595 161.668 125.066 161.976 125.115Z" fill="#161616"/>
<path d="M166.575 120.013C166.055 120.321 166.12 121.036 166.559 121.41C166.933 121.719 167.436 121.67 167.891 121.67C168.671 121.654 169.321 121.784 170.004 122.174C170.28 122.32 170.524 121.914 170.248 121.751C169.744 121.459 169.208 121.264 168.623 121.199C168.346 121.166 168.07 121.183 167.778 121.183C167.599 121.183 167.42 121.199 167.258 121.166C167.063 121.118 166.429 120.679 166.819 120.451C167.079 120.273 166.835 119.85 166.575 120.013Z" fill="#161616"/>
<path d="M166.9 120.224C168.119 119.525 169.614 119.671 170.654 120.63C170.881 120.841 171.223 120.5 170.995 120.289C169.793 119.184 168.07 118.989 166.656 119.801C166.38 119.964 166.624 120.386 166.9 120.224Z" fill="#161616"/>
<path d="M167.956 118.241C168.493 117.851 169.013 117.477 169.549 117.087C169.776 116.925 169.988 116.762 170.231 116.616C170.394 116.519 170.556 116.421 170.735 116.356C171.499 116.096 171.678 116.47 171.255 117.477C170.963 117.575 171.093 118.046 171.385 117.949C172.263 117.64 172.571 116.454 171.661 115.95C171.158 115.657 170.556 115.869 170.101 116.129C169.273 116.6 168.509 117.266 167.729 117.819C167.453 118.014 167.696 118.436 167.956 118.241Z" fill="#161616"/>
<path d="M168.996 119.541C169.646 119.135 170.296 118.712 170.946 118.306C171.239 118.127 171.531 117.916 171.856 117.77C172.1 117.64 172.36 117.591 172.636 117.591C173.205 117.591 173.416 117.932 173.27 118.599C173.075 118.842 173.416 119.184 173.611 118.94C174.229 118.16 173.676 117.201 172.734 117.12C172.116 117.055 171.564 117.364 171.06 117.672C170.28 118.144 169.516 118.647 168.753 119.135C168.476 119.281 168.72 119.704 168.996 119.541Z" fill="#161616"/>
<path d="M170.898 120.305C171.336 120.061 171.775 119.834 172.214 119.623C172.36 119.541 172.848 119.249 172.994 119.281C173.4 119.363 173.124 119.769 173.026 119.931C172.864 120.191 173.286 120.451 173.449 120.175C173.709 119.753 173.936 118.924 173.238 118.794C172.864 118.713 172.458 118.973 172.133 119.135C171.629 119.379 171.125 119.623 170.638 119.899C170.378 120.045 170.638 120.468 170.898 120.305Z" fill="#161616"/>
<path d="M170.215 120.191C171.385 120.841 171.613 122.288 170.686 123.263C170.475 123.49 170.816 123.831 171.028 123.604C172.165 122.418 171.905 120.565 170.459 119.769C170.199 119.623 169.939 120.045 170.215 120.191Z" fill="#161616"/>
<path d="M173.205 120.013C172.685 120.679 172.084 121.264 171.417 121.751C171.174 121.93 171.401 122.353 171.661 122.174C172.376 121.654 173.01 121.053 173.562 120.354C173.741 120.11 173.4 119.769 173.205 120.013Z" fill="#161616"/>
<path d="M165.308 121.914C166.331 121.995 167.29 122.32 168.151 122.889C168.411 123.068 168.655 122.645 168.395 122.466C167.453 121.865 166.429 121.524 165.308 121.426C164.999 121.41 164.999 121.898 165.308 121.914Z" fill="#161616"/>
<path opacity="0.09" d="M137.341 92.9889C137.634 95.0689 138.105 97.9939 138.804 101.504C139.259 103.779 139.584 105.453 140.185 107.679C141.095 111.059 141.843 113.903 143.598 117.201C144.751 119.363 145.531 120.841 147.156 122.434C148.31 123.555 151.333 126.513 155.883 126.578C158.661 126.61 160.855 125.554 162.139 124.758C162.903 125.18 164.219 125.749 165.925 125.781C166.721 125.798 168.216 125.814 169.63 124.839C170.118 124.498 171.418 123.62 171.515 122.141C171.531 121.914 171.596 120.679 170.719 120.029C169.744 119.314 168.151 119.736 168.021 120.24C167.908 120.711 169.078 121.101 169.045 121.768C168.996 122.613 167.079 123.133 166.721 123.23C155.281 126.318 149.123 121.199 149.123 121.199C147.254 119.639 146.263 117.949 143.955 112.18C142.054 107.435 139.665 100.951 137.341 92.9889Z" fill="#3D3D3D"/>
<path d="M90.9151 124.156C91.6626 124.709 93.6451 125.993 96.3589 125.976C98.8939 125.96 100.681 124.806 101.689 124.156C103.363 123.084 104.321 121.898 105.199 120.76C107.929 117.299 109.018 113.691 109.798 111.075C110.496 108.735 110.22 108.865 110.886 106.834C112.138 103.031 113.21 102.17 114.283 99.4564C116.054 94.9714 116.168 89.6251 114.77 89.0401C114.12 88.7801 113.161 89.5439 111.26 91.1039C110.691 91.5751 109.684 92.4039 108.628 93.6876C107.783 94.7276 106.304 96.7751 104.663 101.666C103.33 105.664 103.623 106.314 102.046 110.734C101.071 113.48 100.454 114.601 99.7064 115.625C98.8614 116.763 97.4638 118.615 94.9288 119.59C92.9951 120.338 91.2563 120.24 90.2976 120.11C90.1676 119.46 89.7289 117.673 88.2176 116.795C87.8439 116.568 86.9339 116.048 86.2839 116.438C85.9101 116.665 85.7801 117.088 85.7314 117.315C85.0164 116.308 84.2364 115.869 83.7976 115.674C83.3751 115.495 82.5139 115.105 82.1564 115.463C81.8314 115.788 82.1239 116.535 82.1564 116.633C81.7014 116.389 81.1814 116.421 80.8076 116.698C80.5314 116.909 80.2226 117.331 80.3364 117.786C80.4176 118.095 80.6614 118.29 80.7426 118.339C80.6451 118.615 80.5639 119.038 80.7101 119.476C80.7914 119.704 80.8889 119.85 81.4739 120.5C82.2214 121.345 82.2376 121.313 82.3839 121.524C82.7901 122.125 82.7089 122.45 82.9689 122.986C83.4239 123.978 84.3989 124.449 84.7239 124.595C85.7639 125.099 86.7226 124.969 88.2989 124.741C89.3064 124.628 90.1839 124.4 90.9151 124.156Z" fill="white"/>
<path d="M114.721 88.6013C112.235 89.8526 109.993 91.5751 108.254 93.7688C106.515 95.9626 105.313 98.4976 104.403 101.13C103.493 103.795 102.843 106.541 102.144 109.255C101.478 111.888 100.356 114.618 98.6013 116.714C96.5538 119.168 93.3688 120.11 90.265 119.753C89.9563 119.72 89.9563 120.208 90.265 120.24C92.7188 120.516 95.27 120.045 97.3013 118.599C99.4463 117.071 100.795 114.52 101.754 112.115C102.778 109.564 103.233 106.785 103.98 104.153C104.776 101.309 105.751 98.4813 107.311 95.9626C109.164 92.9563 111.813 90.6163 114.965 89.0401C115.258 88.8776 114.998 88.4551 114.721 88.6013Z" fill="#161616"/>
<path d="M111.228 104.559C109.749 110.181 108.546 116.242 104.841 120.906C103.233 122.921 101.136 124.644 98.6014 125.326C95.9689 126.041 93.1252 125.635 90.9964 123.88C90.7527 123.685 90.4114 124.026 90.6551 124.221C93.8889 126.886 98.5039 126.61 101.884 124.335C105.589 121.849 107.783 117.656 109.213 113.545C110.22 110.652 110.919 107.646 111.699 104.689C111.78 104.38 111.309 104.25 111.228 104.559Z" fill="#161616"/>
<path d="M90.5251 119.996C89.9564 119.119 89.4201 118.193 88.7864 117.364C88.3476 116.779 87.7626 116.226 86.9826 116.161C85.6339 116.08 85.0489 117.624 85.6989 118.648C85.8614 118.908 86.2839 118.664 86.1214 118.404C85.8126 117.916 85.8289 117.104 86.3814 116.763C87.1614 116.275 87.9576 117.071 88.3801 117.624C89.0139 118.453 89.5339 119.363 90.1026 120.24C90.2651 120.5 90.6876 120.256 90.5251 119.996Z" fill="#161616"/>
<path d="M87.665 118.371C87.925 118.924 87.3887 119.476 86.82 119.281C86.3487 119.119 86.1375 118.583 86.0562 118.128C86.0075 117.819 85.5362 117.949 85.585 118.258C85.7312 119.07 86.3162 119.915 87.2425 119.801C88.0387 119.704 88.3962 118.81 88.0875 118.128C87.9575 117.835 87.535 118.079 87.665 118.371Z" fill="#161616"/>
<path d="M90.8663 123.945C89.3713 124.27 87.9088 125.066 86.3488 124.823C84.87 124.595 83.635 123.653 82.8875 122.401C82.725 122.125 82.3025 122.385 82.465 122.645C83.2288 123.929 84.4313 124.904 85.91 125.245C87.6975 125.651 89.29 124.79 90.9963 124.416C91.305 124.351 91.175 123.88 90.8663 123.945Z" fill="#161616"/>
<path d="M86.5762 119.72C86.69 119.801 86.7062 119.964 86.6575 120.078C86.56 120.403 86.2025 120.435 85.91 120.468C85.6012 120.484 85.2925 120.435 84.9675 120.468C84.415 120.533 83.9113 120.728 83.44 121.02C83.18 121.183 83.4238 121.605 83.6838 121.443C84.285 121.069 84.8863 120.923 85.6012 120.939C86.0237 120.955 86.4625 120.988 86.8037 120.695C87.2425 120.338 87.2912 119.606 86.8037 119.298C86.56 119.135 86.3162 119.558 86.5762 119.72Z" fill="#161616"/>
<path d="M86.7549 119.102C85.4711 118.274 83.8461 118.501 82.7736 119.59C82.5461 119.817 82.9036 120.159 83.1149 119.931C84.0411 119.005 85.3899 118.81 86.5111 119.525C86.7711 119.687 87.0149 119.265 86.7549 119.102Z" fill="#161616"/>
<path d="M85.845 117.153C85.1788 116.616 84.5288 116.048 83.83 115.56C83.4075 115.268 82.8713 114.975 82.3513 115.17C81.3275 115.544 81.5388 116.909 82.4325 117.25C82.725 117.364 82.855 116.893 82.5625 116.779C81.9613 116.064 82.01 115.739 82.7088 115.804C82.9688 115.674 83.1963 115.69 83.3913 115.853C83.6675 115.983 83.9275 116.259 84.1713 116.438C84.61 116.795 85.065 117.153 85.5038 117.51C85.7313 117.689 86.0888 117.348 85.845 117.153Z" fill="#161616"/>
<path d="M84.8375 118.42C84.1387 117.933 83.44 117.429 82.7412 116.958C82.2862 116.649 81.7825 116.356 81.23 116.405C80.3525 116.486 79.8162 117.445 80.3525 118.193C80.5312 118.436 80.9537 118.193 80.775 117.949C80.4175 117.299 80.71 116.958 81.62 116.925C81.8312 116.99 82.0262 117.071 82.205 117.185C82.4325 117.315 82.6437 117.478 82.855 117.624C83.44 118.03 84.025 118.436 84.61 118.843C84.8537 119.021 85.0975 118.599 84.8375 118.42Z" fill="#161616"/>
<path d="M83.0987 119.184C82.66 118.907 82.205 118.647 81.7337 118.42C81.425 118.257 81.0024 117.965 80.6287 118.095C80.0437 118.306 80.2712 119.086 80.4987 119.476C80.645 119.752 81.0675 119.509 80.9212 119.232C80.8725 119.135 80.6937 118.842 80.7425 118.729C80.8075 118.566 81.0675 118.664 81.1812 118.696C81.3112 118.729 81.4412 118.826 81.5712 118.891C82.01 119.119 82.4325 119.362 82.855 119.622C83.115 119.769 83.375 119.346 83.0987 119.184Z" fill="#161616"/>
<path d="M83.2612 119.07C81.8962 119.915 81.7175 121.719 82.7412 122.905C82.9525 123.149 83.2937 122.791 83.0825 122.564C82.27 121.621 82.4162 120.159 83.505 119.493C83.765 119.33 83.5212 118.908 83.2612 119.07Z" fill="#161616"/>
<path d="M80.4013 119.606C80.8888 120.289 81.4575 120.906 82.1238 121.443C82.3675 121.638 82.7088 121.296 82.465 121.101C81.8313 120.598 81.295 120.029 80.8238 119.363C80.6288 119.103 80.2063 119.346 80.4013 119.606Z" fill="#161616"/>
<path d="M87.9576 120.728C86.9338 120.825 85.9751 121.166 85.1301 121.768C84.8701 121.946 85.1138 122.369 85.3738 122.19C86.1538 121.638 86.9988 121.296 87.9576 121.215C88.2826 121.183 88.2826 120.695 87.9576 120.728Z" fill="#161616"/>
<path opacity="0.17" d="M113.909 95.0689C111.877 100.009 110.317 103.99 109.326 106.59C107.002 112.635 106.352 114.748 104.159 117.526C102.29 119.883 100.08 122.824 96.3424 123.393C94.0024 123.75 92.0199 123.035 90.8661 122.515C90.5736 122.743 88.3474 124.335 86.1861 123.49C84.9836 123.019 83.7974 121.8 84.0411 121.053C84.2849 120.289 85.9099 120.338 85.8936 119.98C85.8774 119.688 84.7561 119.281 83.7486 119.59C83.6024 119.639 82.6111 119.964 82.2861 120.858C81.8636 122.044 82.9686 123.263 83.2611 123.588C84.7561 125.245 87.0474 125.164 87.4536 125.148C89.0949 125.099 90.2974 124.368 90.8661 123.978C91.5974 124.595 92.8811 125.505 94.6686 125.83C97.9674 126.448 100.632 124.595 102.095 123.685C106.271 121.036 107.847 116.811 109.131 113.626C109.749 112.083 110.025 111.075 111.536 104.916C112.479 101.016 113.291 97.6689 113.909 95.0689Z" fill="#3D3D3D"/>
<path opacity="0.17" d="M81.0999 116.746C81.6524 116.649 82.3674 118.111 82.8549 119.281C82.6112 120.533 82.3024 120.809 82.0749 120.841C81.4249 120.955 80.3199 119.363 80.5149 117.916C80.5312 117.803 80.6612 116.828 81.0999 116.746Z" fill="#3D3D3D"/>
<path d="M114.543 88.7151C111.471 92.2414 111.406 96.5964 111.39 104.234C111.374 113.48 113.031 121.264 114.803 127.065C117.468 127.861 121.335 128.706 126.031 128.706C130.663 128.706 134.481 127.861 137.13 127.065C137.731 124.579 138.528 120.923 139.145 116.47C141.274 101.374 142.671 91.4451 137.13 86.5701C131.54 81.6626 119.791 82.6864 114.543 88.7151Z" fill="white" stroke="#161616" stroke-miterlimit="10"/>
<path opacity="0.1" d="M129.769 83.7589C130.468 85.1889 131.394 87.3989 131.979 90.2102C132.515 92.7777 133.344 98.4814 128.648 112.684C127.315 116.73 125.3 122.158 122.294 128.398C123.578 128.528 124.959 128.609 126.421 128.593C130.598 128.576 134.221 127.894 137.098 127.081C138.333 121.036 139.21 115.885 139.811 111.969C140.559 107.159 141.079 103.096 140.916 97.9614C140.721 91.4614 139.616 89.5764 138.999 88.6989C136.35 84.8314 131.573 83.9864 129.769 83.7589Z" fill="#3D3D3D"/>
<path opacity="0.13" d="M140.656 93.4278C139.925 95.6378 138.869 99.0503 137.829 103.308C136.529 108.622 136.334 110.848 135.619 113.692C134.66 117.397 132.661 122.629 127.965 128.609C129.509 128.658 131.573 128.544 133.913 127.91C135.148 127.569 136.236 127.13 137.13 126.708C137.959 122.19 138.69 117.949 139.34 114.017C140.494 107.127 140.9 104.283 140.949 100.513C140.998 97.539 140.819 95.1015 140.656 93.4278Z" fill="#3D3D3D"/>
<path d="M122.554 79.9237C122.018 80.655 122.278 81.3212 122.164 84.0512C122.083 85.8387 121.904 87.2687 121.774 88.1787C122.327 88.5687 123.887 89.56 126.097 89.56C128.697 89.56 130.435 88.195 130.907 87.7887C130.695 87.2037 130.435 86.3262 130.224 85.2375C129.623 82.1337 130.24 81.175 129.542 80.1187C128.29 78.25 123.838 78.1687 122.554 79.9237Z" fill="white" stroke="#161616" stroke-miterlimit="10"/>
<path d="M115.973 71.165C115.908 73.4725 116.428 75.195 116.85 76.5763C117.484 78.6075 118.183 80.8825 120.198 82.9625C121.953 84.7825 124 85.725 125.609 86.2125C126.844 85.7088 128.875 84.685 130.728 82.67C132.743 80.4763 133.506 78.25 134.075 76.5763C134.563 75.13 135.391 72.5138 135.05 69.1013C134.806 66.7126 134.546 64.1288 132.499 62.13C129.476 59.1888 125.056 59.9526 124.439 60.0663C120.149 60.8626 117.988 64.2588 117.468 65.1851C116.07 67.5575 116.005 69.8813 115.973 71.165Z" fill="white" stroke="#161616" stroke-miterlimit="10"/>
<path d="M124.504 72.9364C124.407 75.0164 124.602 77.0802 125.105 79.0952C125.154 79.2577 125.398 79.3389 125.512 79.2089C125.885 78.7702 126.129 78.2989 126.243 77.7302C126.308 77.4214 125.837 77.2914 125.772 77.6002C125.674 78.1039 125.495 78.4777 125.17 78.8677C125.3 78.9002 125.447 78.9327 125.577 78.9814C125.089 76.9989 124.91 74.9839 124.992 72.9527C124.992 72.6277 124.504 72.6277 124.504 72.9364Z" fill="#161616"/>
<path d="M127.916 73.6513C129.07 74.8701 131.394 75.2113 132.012 73.2451C132.109 72.9526 131.638 72.8226 131.54 73.1151C131.037 74.7238 129.151 74.2201 128.274 73.2938C128.03 73.0826 127.689 73.4238 127.916 73.6513Z" fill="#161616"/>
<path d="M119.775 76.8038C119.775 76.755 119.759 76.82 119.743 76.82C119.726 76.8363 119.694 76.8363 119.661 76.8363C119.613 76.7388 119.548 76.6413 119.499 76.5438C119.515 76.5275 119.515 76.5113 119.531 76.495C119.401 76.5275 119.32 76.6575 119.369 76.7875C119.401 76.9175 119.548 76.9988 119.661 76.95C119.808 76.9013 119.905 76.8038 119.97 76.6575C120.019 76.5438 119.921 76.3813 119.808 76.365C119.596 76.3163 119.353 76.43 119.304 76.6575C119.288 76.7875 119.336 76.9338 119.466 76.95C119.596 77.015 119.759 76.95 119.775 76.8038Z" fill="#161616"/>
<path d="M122.18 76.1701C122.148 76.4139 122.083 76.4301 121.985 76.2189C121.806 76.0726 121.839 76.0076 122.083 76.0401C121.969 75.9751 121.823 76.0076 121.741 76.1214C121.676 76.2351 121.709 76.3976 121.823 76.4626C122.099 76.6251 122.44 76.2676 122.229 76.0076C122.018 75.7476 121.595 75.9751 121.676 76.2839C121.709 76.4139 121.855 76.4951 121.969 76.4464C122.148 76.4464 122.213 76.3001 122.18 76.1701Z" fill="#161616"/>
<path d="M121.303 77.8599C121.303 77.8924 121.286 77.9249 121.254 77.9574C121.286 77.9249 121.221 77.9737 121.238 77.9574C121.254 77.9412 121.189 77.9737 121.238 77.9574C121.205 77.9574 121.189 77.9574 121.205 77.9574C121.221 77.9574 121.221 77.9574 121.173 77.9574C121.156 77.9574 121.156 77.9412 121.14 77.9412C121.156 77.9574 121.156 77.9412 121.124 77.9249C121.059 77.8599 121.059 77.7624 121.108 77.6974C121.173 77.6324 121.286 77.6649 121.319 77.7299C121.254 77.6162 121.108 77.5837 120.978 77.6487C120.864 77.7137 120.815 77.8762 120.896 77.9899C120.994 78.1524 121.205 78.2012 121.368 78.1037C121.53 78.0224 121.595 77.8112 121.498 77.6487C121.303 77.3399 120.783 77.5187 120.783 77.8599C120.783 77.9899 120.896 78.1037 121.026 78.1037C121.189 78.1037 121.303 78.0062 121.303 77.8599Z" fill="#161616"/>
<path d="M129.574 75.7962C129.688 75.8125 129.753 75.8775 129.769 75.9587C129.785 76.0562 129.72 76.1212 129.574 76.17C129.525 76.1537 129.493 76.1537 129.444 76.1375C129.363 76.0887 129.346 76.0237 129.395 75.9425C129.476 75.8125 129.72 75.8612 129.671 76.04C129.704 75.91 129.639 75.7637 129.509 75.7475C129.379 75.715 129.249 75.78 129.216 75.91C129.151 76.1375 129.346 76.3812 129.59 76.3487C129.801 76.3162 129.931 76.105 129.866 75.8937C129.834 75.78 129.72 75.6825 129.59 75.6825C129.493 75.6825 129.395 75.7475 129.346 75.8287C129.249 76.0075 129.379 76.3 129.606 76.2837C129.736 76.2675 129.85 76.1862 129.85 76.04C129.818 75.9262 129.72 75.78 129.574 75.7962Z" fill="#161616"/>
<path d="M131.41 75.975C131.426 75.975 131.426 75.9588 131.41 75.975C131.394 75.9913 131.361 76.0238 131.329 76.0563C131.231 76.0238 131.15 75.9913 131.053 75.9425C131.053 75.8938 131.053 75.8613 131.053 75.8125C131.053 75.7963 131.069 75.7963 131.069 75.78C131.101 75.7475 131.134 75.715 131.15 75.6988C131.248 75.7313 131.329 75.7638 131.426 75.8125C131.426 75.8613 131.426 75.8938 131.426 75.9425V75.9263C131.459 75.7963 131.394 75.65 131.264 75.6338C131.134 75.6013 131.004 75.6663 130.971 75.7963C130.89 76.1213 131.378 76.3163 131.524 75.9913C131.589 75.8613 131.524 75.6988 131.394 75.6338C131.248 75.5525 131.085 75.6013 131.004 75.7313C130.923 75.845 130.988 76.0075 131.085 76.0725C131.199 76.1375 131.345 76.0725 131.41 75.975Z" fill="#161616"/>
<path d="M130.516 77.5837C130.5 77.5349 130.516 77.5837 130.5 77.5999C130.5 77.6162 130.451 77.6487 130.5 77.6162C130.37 77.5999 130.24 77.5837 130.11 77.5674C130.013 77.4212 130.191 77.2912 130.321 77.3562C130.208 77.2912 130.061 77.3237 129.98 77.4374C129.915 77.5512 129.948 77.7137 130.061 77.7787C130.191 77.8437 130.354 77.8274 130.451 77.7137C130.549 77.6162 130.581 77.4374 130.5 77.3074C130.419 77.1774 130.224 77.1449 130.11 77.2587C129.996 77.3724 129.948 77.5512 129.996 77.6974C130.045 77.8274 130.159 77.9087 130.289 77.8599C130.468 77.8599 130.565 77.7137 130.516 77.5837Z" fill="#161616"/>
<path d="M123.432 80.4437C124.585 81.6462 126.422 81.6137 127.51 80.3299C127.705 80.0862 127.364 79.745 127.169 79.9887C126.259 81.0612 124.764 81.1262 123.773 80.1024C123.562 79.8749 123.22 80.2162 123.432 80.4437Z" fill="#161616"/>
<path d="M120.442 70.5963C120.929 70.06 121.612 69.8325 122.327 69.9788C122.635 70.0438 122.765 69.5725 122.457 69.5075C121.579 69.3288 120.702 69.5888 120.1 70.255C119.889 70.4825 120.23 70.8238 120.442 70.5963Z" fill="#161616"/>
<path d="M128.079 69.605C128.827 69.5237 129.509 69.7025 130.11 70.1412C130.37 70.32 130.614 69.8975 130.354 69.7187C129.688 69.2312 128.892 69.02 128.079 69.1175C127.77 69.15 127.77 69.6375 128.079 69.605Z" fill="#161616"/>
<path d="M119.564 73.7977C120.718 75.0165 123.041 75.3577 123.659 73.3914C123.756 73.0989 123.285 72.9689 123.188 73.2614C122.684 74.8702 120.799 74.3664 119.921 73.4402C119.694 73.2127 119.336 73.5702 119.564 73.7977Z" fill="#161616"/>
<path d="M124.927 63.5926C125.983 64.8601 127.251 66.2251 128.778 67.6063C130.858 69.4913 132.889 70.9538 134.661 72.0588C134.563 73.5213 134.254 75.7638 133.149 78.2826C132.061 80.7851 130.614 82.5238 129.623 83.58C129.526 84.36 129.493 85.6925 130.127 87.025C131.606 90.1288 135.863 91.5263 139.129 90.47C139.519 90.34 142.266 89.4138 143.159 86.9438C143.403 86.2613 143.533 85.4326 143.159 83.2388C142.623 80.0701 141.681 77.7463 141.404 77.0313C140.624 75.0488 139.617 72.1888 138.707 68.4513C138.414 67.1513 137.212 62.4876 132.987 59.7901C131.882 59.0751 129.509 57.5638 126.519 58.0188C125.219 58.2138 124.212 58.7176 123.578 59.1076C122.213 59.2213 119.776 59.6113 117.436 61.3013C112.138 65.1038 112.284 71.9613 112.301 72.6601C112.138 73.5213 111.862 74.8213 111.374 76.3651C110.172 80.135 109.164 80.6063 108.937 82.93C108.872 83.515 108.579 86.4725 110.529 88.8938C110.936 89.3975 112.187 90.9088 114.316 91.3313C117.143 91.9 120.182 90.3075 121.433 87.805C122.132 86.4075 122.116 85.0588 122.051 84.3438C121.579 83.9213 117.241 79.9888 117.761 73.8626C118.346 66.8913 124.634 63.7388 124.927 63.5926Z" fill="#444444"/>
<path opacity="0.11" d="M130.939 69.4912C131.231 70.5962 131.556 72.27 131.378 74.285C131.15 76.8525 130.24 78.6562 129.298 80.5087C128.55 81.9712 127.38 83.97 125.528 86.0662C125.82 86.0175 126.161 85.9199 126.503 85.7899C127.299 85.4974 127.9 85.0912 128.306 84.75C128.176 86.2775 128.046 87.805 127.933 89.3325C128.859 88.9262 129.785 88.5362 130.711 88.1299C130.516 86.5049 130.305 84.8962 130.11 83.2712C130.5 82.7837 131.053 82.0687 131.638 81.1425C132.45 79.8587 133.604 78.0062 134.205 75.4225C134.4 74.5937 134.595 73.375 134.579 71.88C133.376 71.1 132.158 70.2875 130.939 69.4912Z" fill="#3D3D3D"/>
<path opacity="0.16" d="M134.595 72.1726C134.465 72.1401 134.108 73.8138 133.019 76.3163C133.019 76.3163 132.206 78.1688 131.28 79.7451C130.419 81.2076 128.713 83.6613 125.495 86.2288C125.853 86.3913 126.226 86.5538 126.584 86.7163C127.64 86.6026 128.696 86.5051 129.753 86.3913C129.704 85.4976 129.639 84.6038 129.59 83.7263C130.858 82.4263 132.596 80.2976 133.685 77.2426C134.563 74.6913 134.758 72.2051 134.595 72.1726Z" fill="#3D3D3D"/>
<path opacity="0.29" d="M110.269 79.3713C110.236 79.9076 110.269 80.8338 110.708 81.8251C111.341 83.2388 112.82 84.7826 114.413 84.7663C116.346 84.7501 118.491 82.4101 118.394 79.0951C118.703 79.8751 119.174 80.8176 119.873 81.8251C120.669 82.9788 121.53 83.8401 122.213 84.4413C122.229 84.9776 122.18 85.8063 121.888 86.7326C121.725 87.2526 121.319 88.3088 120.409 89.3001C120.019 89.7226 118.751 91.0876 116.704 91.4288C113.73 91.9163 111.488 89.8526 111.081 89.4626C108.416 86.9113 108.871 83.3038 108.953 82.7513C109.18 81.1751 109.83 80.0213 110.269 79.3713Z" fill="#0A0A0A"/>
<path opacity="0.12" d="M134.709 72.1075C134.839 72.9037 135.018 74.1712 135.148 75.7637C135.424 79.1762 135.148 80.0862 135.7 81.825C135.782 82.1012 137.033 85.9362 138.869 85.9687C140.299 86.0012 141.892 83.7587 142.525 80.46C143.029 82.1012 143.24 83.4987 143.338 84.49C143.5 86.0987 143.354 86.635 143.289 86.895C142.834 88.3737 141.632 89.1862 140.998 89.625C138.755 91.1525 136.334 90.925 135.977 90.8762C135.408 90.8112 132.775 90.47 131.02 88.26C130.744 87.9187 129.867 86.765 129.607 85.0425C129.525 84.4737 129.525 83.97 129.558 83.6287C130.549 82.6537 131.865 81.11 132.938 78.9325C134.27 76.17 134.612 73.6512 134.709 72.1075Z" fill="#0A0A0A"/>
</svg>
