<svg width="234" height="197" viewBox="0 0 234 197" fill="none" xmlns="http://www.w3.org/2000/svg">
<path d="M30.0028 138.266C30.8396 143.285 31.8507 148.251 33.0535 153.2C33.1407 153.53 33.6288 153.391 33.559 153.061C32.3562 148.13 31.3277 143.146 30.5083 138.127C30.4386 137.798 29.9331 137.936 30.0028 138.266Z" fill="#76D7D2"/>
<path d="M46.8956 138.961C45.954 143.406 45.1518 147.904 44.5066 152.401C44.4543 152.731 44.96 152.87 45.0123 152.54C45.6575 148.025 46.4597 143.545 47.4013 139.1C47.4711 138.77 46.9654 138.631 46.8956 138.961Z" fill="#76D7D2"/>
<path d="M33.1581 153.374C36.9584 155.076 41.4386 155.232 44.9076 152.662C45.1691 152.471 44.9076 152.019 44.6461 152.21C41.3514 154.659 37.063 154.555 33.437 152.922C33.1232 152.783 32.8443 153.235 33.1581 153.374Z" fill="#76D7D2"/>
<path d="M30.1596 138.214C31.4496 138.805 32.7919 138.926 34.1865 139.013C35.7555 139.1 37.3244 139.152 38.8933 139.17C41.7871 139.222 44.7855 139.361 47.5225 138.232C47.8363 138.11 47.6968 137.607 47.383 137.728C44.803 138.805 41.9789 138.701 39.242 138.666C37.7776 138.649 36.3307 138.596 34.8664 138.527C33.3498 138.458 31.8157 138.423 30.4211 137.78C30.1073 137.624 29.8458 138.076 30.1596 138.214Z" fill="#76D7D2"/>
<path d="M47.0169 138.058C45.9884 142.851 45.0819 147.678 44.3323 152.523C44.28 152.853 44.7855 152.992 44.8378 152.662C45.5874 147.817 46.4765 142.99 47.5224 138.197C47.5922 137.867 47.0866 137.728 47.0169 138.058Z" fill="#76D7D2"/>
<path d="M31.624 146.359C32.7745 149.068 34.2389 151.638 35.9996 153.999C36.1913 154.26 36.6446 153.999 36.4528 153.739C34.6921 151.36 33.2278 148.807 32.0772 146.098C31.9378 145.786 31.5019 146.063 31.624 146.359Z" fill="#76D7D2"/>
<path d="M30.3513 138.648C32.7047 144.188 35.7206 149.415 39.3466 154.225C39.5383 154.485 40.009 154.225 39.7998 153.964C36.1738 149.154 33.158 143.927 30.8046 138.388C30.6826 138.075 30.2293 138.336 30.3513 138.648Z" fill="#76D7D2"/>
<path d="M34.3784 138.874C36.4528 144.031 39.1026 148.911 42.3102 153.443C42.5019 153.721 42.9552 153.461 42.7634 153.183C39.5733 148.685 36.9235 143.84 34.8839 138.735C34.7619 138.44 34.2563 138.561 34.3784 138.874Z" fill="#76D7D2"/>
<path d="M37.7776 138.978C39.6081 143.319 41.8394 147.487 44.4369 151.429C44.6287 151.707 45.0819 151.446 44.8901 151.168C42.3101 147.261 40.0962 143.146 38.2832 138.839C38.1612 138.544 37.6556 138.683 37.7776 138.978Z" fill="#76D7D2"/>
<path d="M40.9853 139.36C42.101 142.121 43.4607 144.761 45.0645 147.279C45.2388 147.557 45.6921 147.296 45.5178 147.018C43.9314 144.552 42.5891 141.948 41.4908 139.239C41.3688 138.909 40.8633 139.048 40.9853 139.36Z" fill="#76D7D2"/>
<path d="M43.6698 139.117C44.315 140.628 45.0475 142.086 45.8845 143.493C46.0589 143.788 46.5123 143.528 46.3379 143.233C45.5008 141.826 44.7684 140.367 44.1232 138.857C44.0012 138.544 43.5478 138.805 43.6698 139.117Z" fill="#76D7D2"/>
<path d="M45.7967 138.7C46.0408 139.273 46.3198 139.829 46.6686 140.35C46.8604 140.628 47.3138 140.367 47.122 140.09C46.8081 139.603 46.5291 139.1 46.3024 138.561C46.1629 138.249 45.6572 138.388 45.7967 138.7Z" fill="#76D7D2"/>
<path d="M37.2546 138.544C36.9932 136.825 36.9234 135.088 37.0106 133.335C36.906 133.421 36.784 133.508 36.6794 133.578C37.0455 133.717 37.7253 134.133 38.1263 133.942C38.4749 133.769 38.4052 133.248 38.4226 132.918C38.4924 131.963 38.597 131.112 39.1025 130.278C39.5383 129.566 40.1136 128.941 40.6366 128.281C42.7285 125.677 44.6461 122.933 46.4068 120.085C46.2499 120.085 46.1104 120.085 45.9535 120.085C46.8251 121.596 47.1215 123.61 47.3133 125.329C47.505 127.031 47.4353 128.75 46.9646 130.4C46.5288 131.928 45.8141 133.352 44.9599 134.689C44.1057 135.991 43.0946 137.45 41.8569 138.423C41.5954 138.631 41.9614 138.996 42.2229 138.787C43.5304 137.763 44.6112 136.217 45.5003 134.828C46.4068 133.421 47.1389 131.893 47.5573 130.278C48.0106 128.559 48.0454 126.771 47.8188 125.017C47.5922 123.298 47.2958 121.353 46.4242 119.842C46.3196 119.668 46.0755 119.686 45.9709 119.842C44.2974 122.551 42.4844 125.173 40.4971 127.674C39.7126 128.663 38.719 129.636 38.2657 130.834C38.0565 131.372 37.9868 131.928 37.952 132.501C37.9345 132.657 38.0042 133.369 37.8648 133.456C37.7602 133.526 36.9757 133.144 36.8363 133.091C36.6619 133.039 36.5225 133.178 36.505 133.335C36.4005 135.123 36.505 136.894 36.7665 138.666C36.8014 139.013 37.3069 138.874 37.2546 138.544Z" fill="#76D7D2"/>
<path d="M26.5685 121.648C27.074 124.808 27.8585 127.934 28.9219 130.956C29.8807 133.665 30.9964 136.217 32.9314 138.37C33.158 138.614 33.5241 138.249 33.2975 138.006C31.2753 135.766 30.1596 133.022 29.2008 130.192C28.242 127.361 27.5273 124.444 27.0566 121.492C27.0217 121.179 26.5162 121.318 26.5685 121.648Z" fill="#76D7D2"/>
<path d="M26.6209 121.318C27.6494 122.273 28.922 122.794 30.2991 122.985C30.8047 123.054 32.3562 122.881 32.5654 123.402C32.67 123.662 32.4608 124.374 32.4259 124.669C32.3736 125.19 32.3213 125.729 32.2516 126.25C32.2342 126.441 32.4259 126.527 32.5828 126.493C33.193 126.406 33.8031 126.319 34.4132 126.232C35.2151 126.128 35.5812 126.684 36.1391 127.187C37.0979 128.073 38.0392 128.976 38.998 129.862C39.2421 130.087 39.6082 129.723 39.3641 129.497C38.1438 128.351 36.9584 127.048 35.6335 126.007C34.7793 125.329 33.4544 125.85 32.4434 125.989C32.548 126.076 32.67 126.163 32.7746 126.232C32.8792 125.295 33.193 124.148 33.0884 123.211C33.0361 122.759 32.7223 122.62 32.3039 122.586C30.334 122.429 28.521 122.395 26.9695 120.953C26.7429 120.71 26.3594 121.075 26.6209 121.318Z" fill="#76D7D2"/>
<path d="M26.6557 121.04C26.9521 127.465 29.8982 133.283 33.1581 138.701C33.3324 138.996 33.7856 138.718 33.6113 138.44C30.4037 133.092 27.475 127.379 27.1787 121.04C27.1612 120.693 26.6383 120.693 26.6557 121.04Z" fill="#76D7D2"/>
<path d="M30.3863 138.075C31.2059 138.11 32.0081 138.093 32.8277 138.006C33.159 137.971 33.159 137.45 32.8277 137.485C32.0081 137.572 31.2059 137.589 30.3863 137.554C30.0376 137.537 30.0376 138.058 30.3863 138.075Z" fill="#76D7D2"/>
<path d="M31.0139 138.301C31.7114 138.284 32.3915 138.405 33.0367 138.666C33.3506 138.787 33.6122 138.353 33.2983 138.214C32.5659 137.902 31.816 137.746 31.0139 137.763C30.6825 137.798 30.6825 138.319 31.0139 138.301Z" fill="#76D7D2"/>
<path d="M41.8918 139.013C43.6176 138.301 45.4132 138.023 47.2785 138.214C47.6097 138.249 47.6097 137.728 47.2785 137.693C45.3783 137.52 43.513 137.78 41.7523 138.527C41.456 138.631 41.578 139.135 41.8918 139.013Z" fill="#76D7D2"/>
<path d="M43.0423 138.805C44.1231 138.37 45.3085 138.579 46.4242 138.388C46.7554 138.336 46.616 137.832 46.2847 137.884C45.1516 138.075 43.9836 137.85 42.9028 138.301C42.6065 138.44 42.7459 138.944 43.0423 138.805Z" fill="#76D7D2"/>
<path d="M43.1818 138.075C44.5066 138.214 45.8315 138.232 47.1738 138.127C47.505 138.11 47.505 137.589 47.1738 137.606C45.8315 137.693 44.5066 137.676 43.1818 137.554C42.8505 137.52 42.8505 138.041 43.1818 138.075Z" fill="#76D7D2"/>
<path d="M46.1453 121.37C44.8728 127.639 39.9219 132.397 38.5796 138.648C38.5273 138.891 38.9108 138.996 38.9631 138.752C40.3054 132.501 45.2563 127.743 46.5289 121.474C46.5812 121.231 46.1976 121.127 46.1453 121.37Z" fill="#76D7D2"/>
<path d="M26.5336 120.954C26.9695 125.191 28.1723 129.271 30.1248 133.057C30.2468 133.283 30.578 133.092 30.456 132.866C28.5558 129.15 27.353 125.121 26.9346 120.954C26.8997 120.711 26.4988 120.693 26.5336 120.954Z" fill="#76D7D2"/>
<path d="M26.8649 121.075C28.242 122.152 29.811 122.846 31.5542 123.107C31.7983 123.141 31.9029 122.759 31.6588 122.725C30.0027 122.482 28.4687 121.839 27.1438 120.797C26.9346 120.641 26.6557 120.919 26.8649 121.075Z" fill="#76D7D2"/>
<path d="M40.0962 128.611C40.567 130.14 40.7763 131.685 40.7065 133.265C40.6891 133.508 41.0902 133.508 41.1076 133.265C41.1599 131.633 40.9507 130.053 40.4798 128.507C40.4101 128.264 40.0265 128.368 40.0962 128.611Z" fill="#76D7D2"/>
<path d="M45.9885 120.485C46.1978 121.179 46.1455 121.891 45.8142 122.551C45.6921 122.777 46.0409 122.968 46.1455 122.742C46.5291 121.995 46.5989 121.179 46.3547 120.381C46.3024 120.137 45.9188 120.242 45.9885 120.485Z" fill="#76D7D2"/>
<path d="M42.7983 129.914C44.559 128.577 46.3197 127.239 47.7143 125.486C47.8712 125.295 47.5923 125.017 47.4354 125.208C46.0756 126.927 44.3498 128.264 42.6065 129.566C42.4148 129.723 42.6065 130.07 42.7983 129.914Z" fill="#76D7D2"/>
<path d="M26.9694 121.752C28.4338 124.374 30.0376 126.892 31.7983 129.323C33.4543 131.616 35.5637 133.752 36.4702 136.46C36.5573 136.704 36.9234 136.599 36.8537 136.356C35.9472 133.699 33.9599 131.616 32.3212 129.376C30.4908 126.875 28.8173 124.253 27.3006 121.544C27.196 121.336 26.8474 121.544 26.9694 121.752Z" fill="#76D7D2"/>
<path d="M30.6827 122.846C30.578 124.618 30.735 126.371 31.136 128.091C31.1884 128.334 31.572 128.229 31.5197 127.986C31.1186 126.285 30.9791 124.583 31.0837 122.846C31.1012 122.586 30.7001 122.586 30.6827 122.846Z" fill="#76D7D2"/>
<path d="M35.965 127.24C35.4419 129.237 35.128 131.251 35.0059 133.3C34.9885 133.543 35.3896 133.543 35.407 133.3C35.5291 131.286 35.843 129.289 36.3487 127.344C36.4184 127.101 36.0348 126.997 35.965 127.24Z" fill="#76D7D2"/>
<path d="M30.8046 134.464C31.4845 134.932 32.5828 135.037 33.3847 135.141C34.2389 135.262 35.0582 135.245 35.8775 135.054C36.1216 135.002 36.017 134.62 35.7729 134.672C34.8839 134.863 34.0471 134.846 33.158 134.707C32.4956 134.602 31.5368 134.498 30.9964 134.116C30.7872 133.995 30.5954 134.325 30.8046 134.464Z" fill="#76D7D2"/>
<path d="M189.11 152.453C198.663 152.453 208.199 152.453 217.752 152.453C217.996 152.453 218.013 152.054 217.752 152.054C208.199 152.054 198.663 152.054 189.11 152.054C188.848 152.054 188.848 152.453 189.11 152.453Z" fill="#76D7D2"/>
<path d="M196.851 151.898C196.345 152.054 195.299 146.775 195.246 146.289C195.02 144.379 195.072 142.434 195.386 140.524C195.264 140.524 195.142 140.524 195.002 140.524C195.351 141.496 195.926 142.243 196.764 142.85C196.973 142.989 197.165 142.659 196.955 142.521C196.205 141.982 195.682 141.288 195.368 140.437C195.316 140.28 195.02 140.228 194.985 140.437C194.601 142.746 194.601 145.108 195.002 147.417C195.211 148.633 195.525 149.814 195.961 150.977C196.101 151.359 196.328 152.505 196.955 152.297C197.199 152.193 197.095 151.811 196.851 151.898Z" fill="#76D7D2"/>
<path d="M197.059 142.451C196.658 140.454 197.321 138.527 198.157 136.721C198.907 135.106 199.761 133.56 200.633 132.015C202.324 129.011 204.067 126.007 205.305 122.777C205.183 122.777 205.061 122.777 204.921 122.777C205.932 125.781 206.595 128.872 206.856 132.032C206.978 133.578 206.996 135.141 206.961 136.686C206.944 137.45 207.013 138.301 206.856 139.048C206.682 139.933 206.002 140.402 205.287 140.854C205.148 140.94 205.165 141.097 205.287 141.184C205.514 141.357 205.706 141.392 206.002 141.409C206.159 141.409 206.368 141.357 206.525 141.392C207.31 141.583 207.188 142.191 207.135 142.677C207.013 143.84 206.787 145.004 206.473 146.133C205.845 148.32 204.869 150.387 203.579 152.262C203.44 152.471 203.771 152.662 203.91 152.453C205.444 150.213 206.543 147.713 207.135 145.073C207.275 144.483 207.379 143.875 207.449 143.267C207.519 142.764 207.676 142.139 207.501 141.635C207.135 140.61 206.142 141.357 205.479 140.854C205.479 140.958 205.479 141.079 205.479 141.184C206.473 140.541 207.205 139.899 207.275 138.666C207.379 136.773 207.397 134.863 207.292 132.987C207.1 129.462 206.421 125.989 205.287 122.655C205.218 122.464 204.974 122.481 204.904 122.655C203.544 126.25 201.522 129.549 199.657 132.9C198.07 135.766 195.978 139.117 196.658 142.538C196.728 142.798 197.112 142.694 197.059 142.451Z" fill="#76D7D2"/>
<path d="M207.449 133.665C207.92 132.744 208.39 131.824 208.861 130.886C209.088 130.452 209.314 130.018 209.523 129.567C209.628 129.376 209.715 129.185 209.82 128.976C209.89 128.837 209.959 128.698 210.029 128.577C210.168 128.247 210.465 128.16 210.935 128.299C210.935 128.455 211.162 128.577 211.267 128.438C213.603 125.712 215.607 122.742 217.281 119.564C217.159 119.53 217.037 119.495 216.915 119.46C216.863 121.926 216.828 124.409 216.95 126.875C217.002 128.004 217.107 129.15 217.264 130.279C217.333 130.799 217.542 131.407 217.525 131.946C217.664 132.275 217.577 132.553 217.246 132.762C217.142 133.109 216.915 133.317 216.584 133.369C216.287 133.508 215.921 133.578 215.607 133.647C215.416 133.699 215.416 133.977 215.607 134.029C217.176 134.429 216.636 136.408 216.409 137.52C216.287 138.127 216.252 138.805 215.468 138.857C215.154 138.874 214.962 138.77 214.649 138.857C214.509 138.892 214.474 139.03 214.527 139.152C214.666 139.482 214.893 139.482 215.119 139.708C215.695 140.263 215.276 141.444 215.119 142.087C214.84 143.285 214.474 144.448 214.021 145.594C213.115 147.921 211.877 150.075 210.36 152.054C210.203 152.262 210.552 152.453 210.691 152.245C212.348 150.075 213.672 147.696 214.596 145.126C215.067 143.841 215.433 142.503 215.695 141.166C215.764 140.784 215.974 140.194 215.799 139.812C215.607 139.378 215.032 139.36 214.84 138.926C214.806 139.03 214.771 139.117 214.718 139.221C215.241 139.083 215.921 139.534 216.357 139.065C216.81 138.596 216.793 137.433 216.915 136.825C217.142 135.61 217.142 134.012 215.677 133.647C215.677 133.769 215.677 133.89 215.677 134.029C216.427 133.821 217.909 133.665 217.996 132.675C218.031 132.189 217.839 131.65 217.752 131.181C217.612 130.313 217.508 129.445 217.42 128.559C217.159 125.538 217.211 122.499 217.264 119.46C217.264 119.269 216.985 119.182 216.897 119.356C215.259 122.499 213.254 125.451 210.953 128.143C211.058 128.195 211.18 128.229 211.284 128.282C211.249 127.222 210.081 127.639 209.698 128.247C208.669 129.862 207.92 131.737 207.048 133.439C206.996 133.682 207.327 133.89 207.449 133.665Z" fill="#76D7D2"/>
<path d="M216.671 120.189C214.875 131.372 209.436 141.479 205.932 152.176C205.863 152.419 206.229 152.523 206.316 152.28C209.802 141.6 215.259 131.494 217.054 120.294C217.089 120.051 216.723 119.946 216.671 120.189Z" fill="#76D7D2"/>
<path d="M209.018 129.671C209.175 133.421 209.558 137.155 210.116 140.871C210.151 141.114 210.535 141.01 210.5 140.767C209.942 137.085 209.576 133.387 209.419 129.671C209.402 129.41 209 129.41 209.018 129.671Z" fill="#76D7D2"/>
<path d="M213.115 134.411C214.352 132.467 216.096 130.938 217.542 129.167C217.699 128.976 217.42 128.698 217.264 128.889C215.799 130.695 214.039 132.241 212.783 134.22C212.627 134.429 212.975 134.62 213.115 134.411Z" fill="#76D7D2"/>
<path d="M204.782 123.437C204.66 133.248 199.465 142.33 200.127 152.21C200.145 152.453 200.528 152.453 200.528 152.21C199.866 142.33 205.061 133.248 205.183 123.437C205.183 123.176 204.782 123.176 204.782 123.437Z" fill="#76D7D2"/>
<path d="M198.105 136.009C198.646 138.944 199.483 141.809 200.599 144.57C200.686 144.795 201.07 144.691 200.982 144.466C199.866 141.705 199.029 138.839 198.489 135.905C198.436 135.644 198.07 135.748 198.105 136.009Z" fill="#76D7D2"/>
<path d="M202.359 138.266C204.085 136.304 206.089 134.22 207.17 131.824C207.275 131.598 206.943 131.39 206.839 131.633C205.758 133.995 203.788 136.061 202.08 137.988C201.923 138.179 202.202 138.457 202.359 138.266Z" fill="#76D7D2"/>
<path d="M202.376 128.195C202.638 129.758 203.004 131.303 203.422 132.831C203.492 133.074 203.876 132.97 203.806 132.727C203.37 131.199 203.021 129.653 202.76 128.091C202.707 127.847 202.341 127.952 202.376 128.195Z" fill="#76D7D2"/>
<path d="M206.926 150.422C208.46 149.449 210.029 148.511 211.528 147.47C212.731 146.636 214.073 145.733 214.823 144.465C214.945 144.24 214.614 144.049 214.492 144.274C213.69 145.646 212.121 146.619 210.831 147.487C209.489 148.39 208.111 149.223 206.752 150.092C206.508 150.213 206.717 150.561 206.926 150.422Z" fill="#76D7D2"/>
<path d="M25.4703 153.322C28.521 153.322 31.5717 153.322 34.6224 153.322C34.8665 153.322 34.8839 152.922 34.6224 152.922C31.5717 152.922 28.521 152.922 25.4703 152.922C25.2088 152.94 25.2088 153.322 25.4703 153.322Z" fill="#76D7D2"/>
<path d="M44.4195 153.461C46.7903 153.461 49.1437 153.461 51.5146 153.461C51.7586 153.461 51.7761 153.061 51.5146 153.061C49.1437 153.061 46.7903 153.061 44.4195 153.061C44.1754 153.061 44.1754 153.461 44.4195 153.461Z" fill="#76D7D2"/>
<path d="M116.172 38.8175C116.172 51.0251 116.172 63.2326 116.172 75.4401C116.172 78.8957 116.172 82.3514 116.172 85.807C116.172 86.0501 116.573 86.0674 116.573 85.807C116.573 73.5994 116.573 61.3919 116.573 49.1844C116.573 45.7288 116.573 42.2731 116.573 38.8175C116.556 38.5744 116.172 38.5744 116.172 38.8175Z" fill="#76D7D2"/>
<path d="M116.399 39.0084C129.316 39.0084 142.234 39.0084 155.169 39.0084C158.812 39.0084 162.473 39.0084 166.116 39.0084C166.36 39.0084 166.378 38.609 166.116 38.609C153.199 38.609 140.281 38.609 127.346 38.609C123.703 38.609 120.042 38.609 116.399 38.609C116.155 38.6264 116.155 39.0084 116.399 39.0084Z" fill="#76D7D2"/>
<path d="M116.521 86.2931C129.264 86.2931 142.007 86.2931 154.75 86.2931C158.341 86.2931 161.933 86.2931 165.524 86.2931C165.768 86.2931 165.785 85.8937 165.524 85.8937C152.78 85.8937 140.037 85.8937 127.294 85.8937C123.703 85.8937 120.112 85.8937 116.521 85.8937C116.277 85.911 116.277 86.2931 116.521 86.2931Z" fill="#76D7D2"/>
<path d="M165.925 38.939C165.925 51.0771 165.925 63.2151 165.925 75.3358C165.925 78.8088 165.925 82.2644 165.925 85.7374C165.925 85.9805 166.326 85.9979 166.326 85.7374C166.326 73.5993 166.326 61.4613 166.326 49.3406C166.326 45.8676 166.326 42.412 166.326 38.939C166.326 38.6959 165.925 38.6785 165.925 38.939Z" fill="#76D7D2"/>
<path d="M165.437 86.2932C165.733 86.3105 166.047 86.189 166.239 85.9632C166.396 85.7722 166.134 85.4944 165.96 85.6854C165.82 85.8417 165.646 85.9112 165.437 85.8938C165.192 85.8938 165.192 86.2758 165.437 86.2932Z" fill="#76D7D2"/>
<path d="M116.329 66.0284C129.125 66.0284 141.92 66.0284 154.716 66.0284C158.359 66.0284 162.02 66.0284 165.663 66.0284C165.907 66.0284 165.925 65.629 165.663 65.629C152.868 65.629 140.072 65.629 127.277 65.629C123.633 65.629 119.972 65.629 116.329 65.629C116.085 65.6464 116.085 66.0284 116.329 66.0284Z" fill="#76D7D2"/>
<path d="M118.909 60.9752C133.273 60.9752 147.638 60.9752 161.985 60.9752C162.229 60.9752 162.246 60.5758 161.985 60.5758C147.62 60.5758 133.256 60.5758 118.909 60.5758C118.648 60.5932 118.648 60.9752 118.909 60.9752Z" fill="#76D7D2"/>
<path d="M118.804 55.3664C132.733 55.3664 146.662 55.3664 160.59 55.3664C160.834 55.3664 160.852 54.967 160.59 54.967C146.662 54.967 132.733 54.967 118.804 54.967C118.56 54.967 118.56 55.3664 118.804 55.3664Z" fill="#76D7D2"/>
<path d="M121.402 49.1846C133.64 49.1846 145.877 49.1846 158.098 49.1846C158.342 49.1846 158.359 48.7852 158.098 48.7852C145.86 48.7852 133.622 48.7852 121.402 48.7852C121.14 48.8026 121.14 49.1846 121.402 49.1846Z" fill="#76D7D2"/>
<path d="M125.185 42.464C136.394 42.464 147.62 42.464 158.83 42.464C159.074 42.464 159.091 42.0646 158.83 42.0646C147.62 42.0646 136.394 42.0646 125.185 42.0646C124.941 42.082 124.941 42.464 125.185 42.464Z" fill="#76D7D2"/>
<path d="M117.323 66.0284C117.323 72.1408 117.323 78.2533 117.323 84.3484C117.323 84.5915 117.724 84.6088 117.724 84.3484C117.724 78.2359 117.724 72.1235 117.724 66.0284C117.706 65.7853 117.323 65.7853 117.323 66.0284Z" fill="#76D7D2"/>
<path d="M117.514 84.7477C129.682 84.7477 141.868 84.7477 154.036 84.7477C157.522 84.7477 160.991 84.7477 164.478 84.7477C164.722 84.7477 164.739 84.3483 164.478 84.3483C152.31 84.3483 140.124 84.3483 127.956 84.3483C124.47 84.3483 121.001 84.3483 117.514 84.3483C117.27 84.3483 117.27 84.7477 117.514 84.7477Z" fill="#76D7D2"/>
<path d="M164.565 66.3931C164.565 72.384 164.565 78.3575 164.565 84.3484C164.565 84.5915 164.966 84.6089 164.966 84.3484C164.966 78.3575 164.966 72.384 164.966 66.3931C164.949 66.15 164.565 66.15 164.565 66.3931Z" fill="#76D7D2"/>
<path d="M117.741 77.6281C117.671 76.4126 118.822 75.6485 119.92 76.2736C120.007 76.3257 120.129 76.291 120.182 76.2042C120.478 75.6832 120.443 75.197 120.513 74.624C120.583 74.1204 120.757 73.6515 121.332 73.5821C121.611 73.5474 121.89 73.6863 122.169 73.6342C122.57 73.5474 122.727 73.3042 122.919 72.9569C123.267 72.2797 123.476 71.6719 124.104 71.1857C125.655 69.9355 127.399 71.2205 127.957 72.818C128.48 74.3461 128.096 76.0826 128.079 77.6628C128.079 77.8018 128.201 77.8712 128.323 77.8539C130.798 77.3503 132.105 80.5975 129.944 81.9346C129.804 82.0214 129.822 82.2472 129.996 82.2993C130.885 82.5771 132.071 83.3585 131.373 84.4525C131.234 84.6609 131.583 84.8693 131.705 84.6435C132.541 83.3412 131.251 82.2819 130.101 81.9172C130.118 82.0388 130.136 82.1603 130.153 82.2819C131.234 81.6047 131.792 80.2502 131.304 79.0347C130.815 77.8191 129.456 77.2287 128.218 77.4892C128.305 77.5586 128.375 77.6107 128.462 77.6802C128.48 75.8916 128.95 73.912 128.113 72.2276C127.556 71.0815 126.388 70.0917 125.028 70.3348C124.418 70.439 123.877 70.8037 123.459 71.2552C122.936 71.8109 122.64 73.1827 121.855 73.2869C121.228 73.3737 120.827 73.0959 120.408 73.721C119.938 74.4156 120.234 75.3186 119.833 76.0479C119.92 76.0305 120.007 75.9958 120.094 75.9784C118.77 75.2317 117.235 76.1347 117.323 77.6802C117.358 77.8886 117.758 77.8886 117.741 77.6281Z" fill="#76D7D2"/>
<path d="M139.514 65.8545C139.514 72.0538 139.514 78.2531 139.514 84.4524C139.514 84.6955 139.915 84.7128 139.915 84.4524C139.915 78.2531 139.915 72.0538 139.915 65.8545C139.898 65.5941 139.514 65.5941 139.514 65.8545Z" fill="#76D7D2"/>
<path d="M140.717 65.9415C140.717 72.1061 140.717 78.288 140.717 84.4525C140.717 84.6956 141.118 84.713 141.118 84.4525C141.118 78.288 141.118 72.1061 141.118 65.9415C141.101 65.6984 140.717 65.6811 140.717 65.9415Z" fill="#76D7D2"/>
<path d="M152.589 84.3656C152.223 84.0704 151.804 83.7231 151.682 83.2369C151.455 82.2818 152.118 82.1603 152.658 81.813C152.972 81.6046 153.286 81.3615 153.356 80.9794C153.443 80.5453 153.146 80.2154 152.955 79.8507C152.501 78.9304 152.379 77.6975 153.251 76.9508C154.036 76.2736 155.866 77.055 156.302 75.8568C156.424 75.4921 156.267 75.2317 156.127 74.9191C155.744 74.0161 155.465 73.1305 155.552 72.1407C155.604 71.4288 155.709 71.1162 156.528 71.012C156.877 70.9599 156.79 71.0988 157.086 70.8904C157.173 70.821 157.226 70.6994 157.295 70.63C157.749 70.1785 157.94 69.727 158.673 69.7096C160.608 69.6749 160.59 72.2623 160.677 73.5646C160.73 74.2245 160.799 75.9089 161.758 75.9783C162.159 76.0131 162.246 75.7005 162.421 75.4227C162.944 74.6413 163.536 74.155 164.53 74.2245C164.774 74.2419 164.774 73.8598 164.53 73.8251C163.676 73.7556 162.822 74.1029 162.316 74.8149C162.333 74.7975 162.107 75.2143 162.089 75.2143C161.88 75.2838 161.34 74.9191 161.253 74.7802C161.061 74.4502 161.096 73.9119 161.061 73.5473C161.026 72.9742 161.026 72.3838 160.939 71.8108C160.799 70.9252 160.398 69.9527 159.562 69.5186C158.83 69.1366 157.906 69.2929 157.33 69.8833C157.191 70.0396 157.104 70.3 156.947 70.4216C156.703 70.5952 156.302 70.4737 156.023 70.5605C155.692 70.6647 155.5 70.8731 155.343 71.1856C154.89 72.1233 155.099 73.4431 155.448 74.3808C155.517 74.5892 155.726 74.8844 155.761 75.1101C155.726 75.2664 155.692 75.4227 155.657 75.579C155.709 76.0652 155.482 76.2562 154.959 76.1867C154.82 76.2041 154.681 76.1867 154.559 76.1867C154.053 76.1867 153.6 76.2215 153.164 76.5167C152.397 77.0376 152.083 77.9927 152.205 78.8783C152.292 79.5208 152.641 79.9202 152.833 80.5106C153.146 81.4483 152.013 81.5698 151.525 82.1255C150.741 83.0111 151.525 84.0878 152.257 84.6955C152.501 84.7997 152.78 84.5219 152.589 84.3656Z" fill="#76D7D2"/>
<path d="M46.9648 64.8647C46.9648 64.2743 46.9648 63.7012 46.9648 63.1108C46.9648 62.8677 46.5637 62.8504 46.5637 63.1108C46.5637 63.7012 46.5637 64.2743 46.5637 64.8647C46.5637 65.1252 46.9648 65.1252 46.9648 64.8647Z" fill="#76D7D2"/>
<path d="M46.7554 63.1285C55.9424 63.1285 65.1294 63.1285 74.3164 63.1285C74.5604 63.1285 74.5779 62.7291 74.3164 62.7291C65.1294 62.7291 55.9424 62.7291 46.7554 62.7291C46.5114 62.7291 46.5114 63.1285 46.7554 63.1285Z" fill="#76D7D2"/>
<path d="M47.3482 65.1601C56.3434 65.1601 65.3387 65.1601 74.3339 65.1601C74.5779 65.1601 74.5954 64.7607 74.3339 64.7607C65.3387 64.7607 56.3434 64.7607 47.3482 64.7607C47.0867 64.7607 47.0867 65.1601 47.3482 65.1601Z" fill="#76D7D2"/>
<path d="M74.3164 63.0242C74.3164 63.632 74.3164 64.2571 74.3164 64.8649C74.3164 65.108 74.7175 65.1254 74.7175 64.8649C74.7175 64.2571 74.7175 63.632 74.7175 63.0242C74.7175 62.7637 74.3164 62.7637 74.3164 63.0242Z" fill="#76D7D2"/>
<path d="M48.83 62.8678C48.83 55.9045 48.83 48.9412 48.83 41.9778C48.83 41.7347 48.429 41.7174 48.429 41.9778C48.429 48.9412 48.429 55.9045 48.429 62.8678C48.429 63.1283 48.83 63.1283 48.83 62.8678Z" fill="#76D7D2"/>
<path d="M48.7776 42.1864C50.1723 42.1864 51.5494 42.1864 52.944 42.1864C53.1881 42.1864 53.2055 41.787 52.944 41.787C51.5494 41.787 50.1723 41.787 48.7776 41.787C48.5336 41.787 48.5336 42.1864 48.7776 42.1864Z" fill="#76D7D2"/>
<path d="M52.5953 42.2731C52.5953 49.1149 52.5953 55.9567 52.5953 62.7985C52.5953 63.0416 52.9964 63.0589 52.9964 62.7985C52.9964 55.9567 52.9964 49.1149 52.9964 42.2731C52.9964 42.03 52.5953 42.03 52.5953 42.2731Z" fill="#76D7D2"/>
<path d="M52.8743 46.0413C54.4258 46.0413 55.9948 46.0413 57.5463 46.0413C57.7903 46.0413 57.8078 45.6419 57.5463 45.6419C55.9948 45.6419 54.4258 45.6419 52.8743 45.6419C52.6129 45.6419 52.6129 46.0413 52.8743 46.0413Z" fill="#76D7D2"/>
<path d="M57.1975 45.9197C57.1975 51.4244 57.1975 56.929 57.1975 62.4337C57.1975 62.6768 57.5986 62.6942 57.5986 62.4337C57.5986 56.929 57.5986 51.4244 57.5986 45.9197C57.5986 45.6592 57.1975 45.6592 57.1975 45.9197Z" fill="#76D7D2"/>
<path d="M49.9456 44.4437C50.0328 45.0341 50.0502 45.6245 49.9805 46.215C49.9456 46.4581 50.3467 46.4581 50.3816 46.215C50.4513 45.5898 50.4339 44.9647 50.3292 44.3395C50.2944 44.0964 49.9107 44.2006 49.9456 44.4437Z" fill="#76D7D2"/>
<path d="M50.7649 44.3743C50.887 44.982 50.9219 45.5898 50.9219 46.215C50.9219 46.4581 51.3055 46.4581 51.3229 46.215C51.3404 45.5551 51.2706 44.9126 51.1486 44.2701C51.0962 44.027 50.73 44.1312 50.7649 44.3743Z" fill="#76D7D2"/>
<path d="M54.0597 48.9762C54.7747 49.0804 55.5071 49.1846 56.2395 49.2367C56.4836 49.254 56.4836 48.872 56.2395 48.8373C55.542 48.7852 54.8619 48.6983 54.1643 48.5942C53.9202 48.5594 53.7981 48.9241 54.0597 48.9762Z" fill="#76D7D2"/>
<path d="M54.7745 50.1915C55.2628 50.1567 55.7511 50.122 56.2394 50.1046C56.4835 50.0873 56.4835 49.7053 56.2394 49.7053C55.7511 49.74 55.2628 49.7747 54.7745 49.7921C54.513 49.8268 54.513 50.2088 54.7745 50.1915Z" fill="#76D7D2"/>
<path d="M59.1328 62.5903C59.1328 61.6178 59.1328 60.6454 59.1328 59.673C59.1328 59.4299 58.7317 59.4125 58.7317 59.673C58.7317 60.6454 58.7317 61.6178 58.7317 62.5903C58.7317 62.8334 59.1328 62.8334 59.1328 62.5903Z" fill="#76D7D2"/>
<path d="M59.1501 59.9332C63.5082 59.9332 67.8664 59.9332 72.2245 59.9332C72.4686 59.9332 72.486 59.5338 72.2245 59.5338C67.8664 59.5338 63.5082 59.5338 59.1501 59.5338C58.906 59.5512 58.906 59.9332 59.1501 59.9332Z" fill="#76D7D2"/>
<path d="M72.0327 59.881C72.0327 60.8708 72.0327 61.878 72.0327 62.8678C72.0327 63.1109 72.4338 63.1282 72.4338 62.8678C72.4338 61.878 72.4338 60.8708 72.4338 59.881C72.4164 59.6379 72.0327 59.6379 72.0327 59.881Z" fill="#76D7D2"/>
<path d="M61.7651 59.5338C61.7651 58.874 61.7651 58.2315 61.7651 57.5716C61.7651 57.3285 61.364 57.3111 61.364 57.5716C61.364 58.2315 61.364 58.874 61.364 59.5338C61.364 59.7769 61.7651 59.7769 61.7651 59.5338Z" fill="#76D7D2"/>
<path d="M61.5557 57.5367C65.3212 57.5367 69.104 57.5367 72.8695 57.5367C73.1135 57.5367 73.131 57.1373 72.8695 57.1373C69.104 57.1373 65.3212 57.1373 61.5557 57.1373C61.3117 57.1547 61.3117 57.5367 61.5557 57.5367Z" fill="#76D7D2"/>
<path d="M72.7649 57.3459C72.7649 58.1968 72.7649 59.0477 72.7649 59.8986C72.7649 60.1417 73.166 60.159 73.166 59.8986C73.166 59.0477 73.166 58.1968 73.166 57.3459C73.1485 57.0855 72.7649 57.0855 72.7649 57.3459Z" fill="#76D7D2"/>
<path d="M72.4337 60.107C72.5907 60.0549 72.7476 60.0202 72.9046 60.0549C73.1487 60.107 73.2533 59.725 73.0092 59.6729C72.7825 59.6208 72.5384 59.6381 72.3291 59.725C72.2245 59.7597 72.1547 59.8639 72.1896 59.9681C72.2245 60.0549 72.3291 60.1417 72.4337 60.107Z" fill="#76D7D2"/>
<path d="M64.0835 57.5369C64.3102 58.2315 64.3799 58.9608 64.2753 59.6901C64.2404 59.9332 64.6241 60.0374 64.6589 59.7943C64.781 58.9955 64.7113 58.2141 64.4671 57.4327C64.3799 57.1896 64.0137 57.2938 64.0835 57.5369Z" fill="#76D7D2"/>
<path d="M66.0883 57.8321C66.3324 57.8321 66.3498 57.4327 66.0883 57.4327C65.8441 57.4327 65.8441 57.8321 66.0883 57.8321Z" fill="#76D7D2"/>
<path d="M66.2104 57.45L66.193 57.4327C66.193 57.5195 66.193 57.6237 66.193 57.7105C66.2104 57.6931 66.2104 57.6931 66.2278 57.6758C66.1406 57.6931 66.0709 57.6931 65.9837 57.7105C65.9314 57.641 65.9314 57.6758 65.9837 57.8147C66.0011 57.9015 66.0186 57.971 66.0186 58.0578C66.036 58.2315 66.036 58.4051 66.036 58.5788C66.0186 58.9434 65.9488 59.2734 65.8268 59.6207C65.7396 59.8638 66.1232 59.968 66.2104 59.7249C66.3848 59.256 66.4545 58.7698 66.4371 58.2836C66.4197 58.0057 66.4371 57.5369 66.1755 57.3632C66.1058 57.3285 65.9837 57.3285 65.9314 57.3979C65.914 57.4153 65.9139 57.4153 65.8965 57.4327C65.8268 57.5195 65.8093 57.6237 65.8965 57.7105L65.914 57.7279C66.1232 57.9015 66.4022 57.6237 66.2104 57.45Z" fill="#76D7D2"/>
<path d="M52.9614 51.9628C54.356 52.2754 55.7506 52.3275 57.1801 52.1191C57.4242 52.0844 57.3196 51.7024 57.0755 51.7371C55.7332 51.9281 54.3909 51.876 53.066 51.5808C52.8045 51.5287 52.6999 51.9107 52.9614 51.9628Z" fill="#76D7D2"/>
<path d="M46.3196 35.3097C56.692 35.3097 67.0644 35.3097 77.4543 35.3097C77.6983 35.3097 77.7157 34.9103 77.4543 34.9103C67.0819 34.9103 56.7095 34.9103 46.3196 34.9103C46.0756 34.9103 46.0756 35.3097 46.3196 35.3097Z" fill="#76D7D2"/>
<path d="M46.5116 35.0146C46.5116 34.6152 46.5116 34.1984 46.5116 33.799C46.5116 33.5559 46.1105 33.5386 46.1105 33.799C46.1105 34.1984 46.1105 34.6152 46.1105 35.0146C46.1279 35.2751 46.5116 35.2751 46.5116 35.0146Z" fill="#76D7D2"/>
<path d="M46.2325 33.9032C56.6049 33.9032 66.9773 33.9032 77.3671 33.9032C77.6112 33.9032 77.6286 33.5038 77.3671 33.5038C66.9947 33.5038 56.6223 33.5038 46.2325 33.5038C45.971 33.5211 45.971 33.9032 46.2325 33.9032Z" fill="#76D7D2"/>
<path d="M77.245 33.7989C77.2798 34.1635 77.3147 34.5456 77.367 34.9102C77.3845 35.1533 77.7856 35.1533 77.7681 34.9102C77.7332 34.5456 77.6984 34.1635 77.646 33.7989C77.6112 33.5558 77.2275 33.5558 77.245 33.7989Z" fill="#76D7D2"/>
<path d="M48.83 33.417C48.83 30.1698 48.83 26.9399 48.83 23.6927C48.83 23.4496 48.429 23.4322 48.429 23.6927C48.429 26.9399 48.429 30.1698 48.429 33.417C48.429 33.6601 48.83 33.6601 48.83 33.417Z" fill="#76D7D2"/>
<path d="M48.6208 23.7969C49.3533 23.7969 50.1031 23.7969 50.8355 23.7969C51.0796 23.7969 51.0971 23.3975 50.8355 23.3975C50.1031 23.3975 49.3533 23.3975 48.6208 23.3975C48.3767 23.4148 48.3767 23.7969 48.6208 23.7969Z" fill="#76D7D2"/>
<path d="M50.608 23.7968C50.608 26.9919 50.608 30.2044 50.608 33.3996C50.608 33.6427 51.0091 33.6601 51.0091 33.3996C51.0091 30.2044 51.0091 26.9919 51.0091 23.7968C50.9917 23.5363 50.608 23.5363 50.608 23.7968Z" fill="#76D7D2"/>
<path d="M52.3166 33.3474C52.3166 27.7212 52.3166 22.1123 52.3166 16.4861C52.3166 16.243 51.9155 16.2256 51.9155 16.4861C51.9155 22.1123 51.9155 27.7212 51.9155 33.3474C51.9155 33.5905 52.3166 33.5905 52.3166 33.3474Z" fill="#76D7D2"/>
<path d="M52.177 16.3994C53.5367 16.3994 54.879 16.3994 56.2388 16.3994C56.4828 16.3994 56.5002 16 56.2388 16C54.879 16 53.5367 16 52.177 16C51.9155 16.0174 51.9155 16.3994 52.177 16.3994Z" fill="#76D7D2"/>
<path d="M56.0819 16.2605C56.0819 21.9562 56.0819 27.6519 56.0819 33.3476C56.0819 33.5907 56.483 33.6081 56.483 33.3476C56.483 27.6519 56.483 21.9562 56.483 16.2605C56.483 16.0174 56.0819 16.0174 56.0819 16.2605Z" fill="#76D7D2"/>
<path d="M52.0724 19.473C53.4322 20.237 54.8965 19.9071 56.2911 19.4035C56.5352 19.3167 56.4306 18.9347 56.1865 19.0215C54.8965 19.473 53.5368 19.8376 52.2642 19.1257C52.0376 19.0041 51.8458 19.3514 52.0724 19.473Z" fill="#76D7D2"/>
<path d="M52.3514 22.529C52.8569 22.8416 53.4322 22.8069 54.0075 22.7895C54.7571 22.7895 55.4893 22.72 56.2214 22.5464C56.4655 22.4769 56.3609 22.1123 56.1168 22.1644C55.5067 22.3206 54.8965 22.3727 54.2864 22.3901C53.7286 22.4075 53.0313 22.4943 52.5431 22.1817C52.334 22.0602 52.1422 22.3901 52.3514 22.529Z" fill="#76D7D2"/>
<path d="M58.6621 33.4519C58.6621 33.0525 58.6621 32.6531 58.6621 32.2537C58.6621 32.0106 58.261 31.9932 58.261 32.2537C58.261 32.6531 58.261 33.0525 58.261 33.4519C58.2784 33.695 58.6621 33.7123 58.6621 33.4519Z" fill="#76D7D2"/>
<path d="M58.5748 32.3924C62.6889 32.3924 66.7855 32.3924 70.8996 32.3924C71.1437 32.3924 71.1611 31.993 70.8996 31.993C66.7855 31.993 62.6889 31.993 58.5748 31.993C58.3307 31.993 58.3307 32.3924 58.5748 32.3924Z" fill="#76D7D2"/>
<path d="M70.8124 32.2533C70.8124 32.7222 70.8124 33.191 70.8124 33.6773C70.8124 33.9204 71.2134 33.9377 71.2134 33.6773C71.2134 33.2084 71.2134 32.7396 71.2134 32.2533C71.2134 31.9929 70.8124 31.9929 70.8124 32.2533Z" fill="#76D7D2"/>
<path d="M60.6318 30.8816C60.6667 31.2983 60.7015 31.7151 60.7539 32.1319C60.7713 32.375 61.1724 32.375 61.1549 32.1319C61.1201 31.7151 61.0852 31.2983 61.0329 30.8816C60.998 30.6385 60.5969 30.6385 60.6318 30.8816Z" fill="#76D7D2"/>
<path d="M60.8235 30.9686C64.2578 30.9686 67.692 30.9686 71.1262 30.9686C71.3702 30.9686 71.3877 30.5692 71.1262 30.5692C67.692 30.5692 64.2578 30.5692 60.8235 30.5692C60.5795 30.5866 60.5795 30.9686 60.8235 30.9686Z" fill="#76D7D2"/>
<path d="M70.8124 31.0552C70.8124 31.3852 70.8124 31.7151 70.8124 32.045C70.8124 32.2881 71.2134 32.3055 71.2134 32.045C71.2134 31.7151 71.2134 31.3852 71.2134 31.0552C71.2134 30.7947 70.8124 30.7947 70.8124 31.0552Z" fill="#76D7D2"/>
<path d="M65.4084 30.6212C65.4084 29.9961 65.4084 29.3883 65.4084 28.7632C65.4084 28.5201 65.0073 28.5027 65.0073 28.7632C65.0073 29.3883 65.0073 29.9961 65.0073 30.6212C65.0073 30.8643 65.4084 30.8643 65.4084 30.6212Z" fill="#76D7D2"/>
<path d="M65.2166 28.8498C66.5938 28.8498 67.9535 28.8498 69.3307 28.8498C69.5748 28.8498 69.5922 28.4504 69.3307 28.4504C67.9535 28.4504 66.5938 28.4504 65.2166 28.4504C64.9551 28.4504 64.9551 28.8498 65.2166 28.8498Z" fill="#76D7D2"/>
<path d="M69.1215 28.7631C69.1215 29.423 69.1215 30.0655 69.1215 30.7254C69.1215 30.9685 69.5225 30.9858 69.5225 30.7254C69.5225 30.0655 69.5225 29.423 69.5225 28.7631C69.5225 28.5027 69.1215 28.5027 69.1215 28.7631Z" fill="#76D7D2"/>
<path d="M66.1061 28.3117C65.1121 27.3219 65.0772 25.377 65.0772 24.0747C64.9726 24.1268 64.8505 24.1615 64.7459 24.2136C65.9143 25.4639 66.6641 26.9572 66.9431 28.6416C66.978 28.8848 67.3616 28.7806 67.3268 28.5375C67.0303 26.7836 66.2456 25.2381 65.0249 23.9358C64.9029 23.8142 64.6936 23.901 64.6936 24.0747C64.6762 25.4986 64.7634 27.5129 65.8445 28.5895C66.0015 28.7632 66.2805 28.5027 66.1061 28.3117Z" fill="#76D7D2"/>
<path d="M67.1517 27.7734C67.5005 26.089 68.7735 24.8214 69.2966 23.2064C69.1745 23.1717 69.0525 23.137 68.913 23.1022C68.756 23.8489 68.9479 24.6303 68.8781 25.3944C68.7735 26.471 68.4596 27.5129 67.9713 28.4854C67.8492 28.7111 68.198 28.9021 68.3026 28.6764C68.7212 27.8429 69.035 26.9746 69.192 26.0543C69.3489 25.1166 69.1048 24.1094 69.2966 23.2064C69.3489 22.9633 69.0002 22.8591 68.913 23.1022C68.3898 24.7172 67.1343 25.9848 66.7681 27.6692C66.7158 27.9123 67.0994 28.0165 67.1517 27.7734Z" fill="#76D7D2"/>
<path d="M89.1865 81.6047C94.5731 81.6047 99.9772 81.6047 105.364 81.6047C105.608 81.6047 105.625 81.2053 105.364 81.2053C99.9772 81.2053 94.5731 81.2053 89.1865 81.2053C88.9424 81.2226 88.9424 81.6047 89.1865 81.6047Z" fill="#76D7D2"/>
<path d="M97.2228 81.6046C97.2228 83.1327 97.2228 84.6608 97.2228 86.189C97.2228 86.4321 97.6239 86.4494 97.6239 86.189C97.6239 84.6608 97.6239 83.1327 97.6239 81.6046C97.6239 81.3615 97.2228 81.3615 97.2228 81.6046Z" fill="#76D7D2"/>
<path d="M95.1657 86.4841C99.2101 86.4841 103.272 86.4841 107.316 86.4841C107.56 86.4841 107.578 86.0847 107.316 86.0847C103.272 86.0847 99.2101 86.0847 95.1657 86.0847C94.9217 86.1021 94.9217 86.4841 95.1657 86.4841Z" fill="#76D7D2"/>
<path d="M103.202 86.5883C103.202 88.0122 103.202 89.4535 103.202 90.8774C103.202 91.1205 103.603 91.1378 103.603 90.8774C103.603 89.4535 103.603 88.0122 103.603 86.5883C103.603 86.3451 103.202 86.3278 103.202 86.5883Z" fill="#76D7D2"/>
<path d="M140.02 138.041C145.476 138.041 150.95 138.041 156.406 138.041C156.651 138.041 156.668 137.641 156.406 137.641C150.95 137.641 145.476 137.641 140.02 137.641C139.758 137.641 139.758 138.041 140.02 138.041Z" fill="#76D7D2"/>
<path d="M148.876 137.693C148.876 135.974 148.876 134.255 148.876 132.536C148.876 132.293 148.475 132.276 148.475 132.536C148.475 134.255 148.475 135.974 148.475 137.693C148.492 137.954 148.876 137.954 148.876 137.693Z" fill="#76D7D2"/>
<path d="M144.901 132.553C149.555 132.553 154.21 132.553 158.864 132.553C159.109 132.553 159.126 132.154 158.864 132.154C154.21 132.154 149.555 132.154 144.901 132.154C144.639 132.154 144.639 132.553 144.901 132.553Z" fill="#76D7D2"/>
<path d="M157.104 132.362C157.104 130.834 157.104 129.289 157.104 127.761C157.104 127.518 156.703 127.5 156.703 127.761C156.703 129.289 156.703 130.834 156.703 132.362C156.72 132.605 157.104 132.605 157.104 132.362Z" fill="#76D7D2"/>
<path d="M176.977 74.5893C176.977 78.1491 176.977 81.7263 176.977 85.2861C176.977 85.5292 177.378 85.5466 177.378 85.2861C177.378 81.7263 177.378 78.1491 177.378 74.5893C177.378 74.3462 176.977 74.3462 176.977 74.5893Z" fill="#76D7D2"/>
<path d="M177.5 74.624C183.27 74.624 189.023 74.624 194.793 74.624C195.037 74.624 195.054 74.2246 194.793 74.2246C189.023 74.2246 183.27 74.2246 177.5 74.2246C177.238 74.2246 177.238 74.624 177.5 74.624Z" fill="#76D7D2"/>
<path d="M194.444 74.4849C194.444 77.8885 194.444 81.3093 194.444 84.7129C194.444 84.956 194.845 84.9733 194.845 84.7129C194.845 81.3093 194.845 77.8885 194.845 74.4849C194.845 74.2418 194.444 74.2418 194.444 74.4849Z" fill="#76D7D2"/>
<path d="M177.36 85.529C183.2 85.529 189.023 85.529 194.863 85.529C195.107 85.529 195.124 85.1296 194.863 85.1296C189.023 85.1296 183.2 85.1296 177.36 85.1296C177.099 85.147 177.099 85.529 177.36 85.529Z" fill="#76D7D2"/>
<path d="M194.514 84.7303C194.427 84.9735 194.427 85.2166 194.462 85.477C194.479 85.5812 194.601 85.6333 194.706 85.6159C194.811 85.5812 194.863 85.477 194.846 85.3728C194.811 85.1992 194.846 85.0082 194.898 84.8345C194.968 84.5914 194.601 84.4872 194.514 84.7303Z" fill="#76D7D2"/>
<path d="M177.796 75.1796C177.796 78.2185 177.796 81.24 177.796 84.2789C177.796 84.522 178.197 84.5393 178.197 84.2789C178.197 81.24 178.197 78.2185 178.197 75.1796C178.18 74.9365 177.796 74.9365 177.796 75.1796Z" fill="#76D7D2"/>
<path d="M177.988 84.7652C183.235 84.7652 188.483 84.7652 193.73 84.7652C193.974 84.7652 193.991 84.3658 193.73 84.3658C188.483 84.3658 183.235 84.3658 177.988 84.3658C177.727 84.3831 177.727 84.7652 177.988 84.7652Z" fill="#76D7D2"/>
<path d="M194.078 84.5047C194.078 81.5179 194.078 78.5311 194.078 75.5444C194.078 75.3013 193.677 75.2839 193.677 75.5444C193.677 78.5311 193.677 81.5179 193.677 84.5047C193.677 84.7478 194.078 84.7478 194.078 84.5047Z" fill="#76D7D2"/>
<path d="M178.058 75.4574C183.305 75.4574 188.552 75.4574 193.799 75.4574C194.043 75.4574 194.061 75.058 193.799 75.058C188.552 75.058 183.305 75.058 178.058 75.058C177.814 75.058 177.796 75.4574 178.058 75.4574Z" fill="#76D7D2"/>
<path d="M178.11 80.7537C180.184 80.2675 182.398 80.9621 184.438 81.3615C186.513 81.7609 188.57 82.1603 190.644 82.5597C190.888 82.6118 190.993 82.2297 190.749 82.1776C188.448 81.7261 186.164 81.292 183.863 80.8405C181.945 80.4585 179.94 79.9202 177.988 80.3717C177.761 80.4411 177.866 80.8232 178.11 80.7537Z" fill="#76D7D2"/>
<path d="M185.658 81.5524C186.077 81.7955 186.53 81.6566 186.983 81.5698C187.733 81.4309 188.465 81.2225 189.197 80.9967C190.783 80.5279 192.37 80.0069 194.026 79.868C194.27 79.8507 194.27 79.4513 194.026 79.4686C192.684 79.5728 191.394 79.9201 190.121 80.3021C189.441 80.5105 188.761 80.7189 188.064 80.9099C187.506 81.0662 186.373 81.5177 185.85 81.2051C185.641 81.0836 185.449 81.4309 185.658 81.5524Z" fill="#76D7D2"/>
<path d="M186.6 78.6004C185.728 77.9752 187.245 76.7771 187.838 77.6974C188.1 78.1142 187.855 78.5656 187.42 78.7219C187.036 78.8435 186.617 78.7046 186.286 78.5136C186.059 78.392 185.868 78.7219 186.094 78.8435C186.687 79.1734 187.454 79.3297 188.012 78.8261C188.501 78.392 188.448 77.6279 187.943 77.2286C186.809 76.3256 185.153 78.0447 186.408 78.9303C186.6 79.0692 186.792 78.7393 186.6 78.6004Z" fill="#76D7D2"/>
<path d="M114.516 172.961C128.846 172.961 143.175 172.961 157.487 172.961C157.731 172.961 157.749 172.562 157.487 172.562C143.158 172.562 128.828 172.562 114.516 172.562C114.272 172.579 114.272 172.961 114.516 172.961Z" fill="#76D7D2"/>
<path d="M138.067 176.695C149.399 176.695 160.747 176.695 172.078 176.695C172.322 176.695 172.34 176.296 172.078 176.296C160.747 176.296 149.399 176.296 138.067 176.296C137.806 176.296 137.806 176.695 138.067 176.695Z" fill="#76D7D2"/>
<path d="M137.684 168.863C148.091 168.863 158.481 168.863 168.888 168.863C169.132 168.863 169.15 168.464 168.888 168.464C158.481 168.464 148.091 168.464 137.684 168.464C137.44 168.481 137.44 168.863 137.684 168.863Z" fill="#76D7D2"/>
<path d="M149.173 168.95C148.458 170.252 147.673 171.485 146.784 172.684C146.627 172.892 146.975 173.083 147.115 172.875C147.987 171.676 148.789 170.443 149.504 169.141C149.626 168.933 149.295 168.742 149.173 168.95Z" fill="#76D7D2"/>
<path d="M157.157 173.257C156.877 174.281 156.529 175.271 156.075 176.243C155.971 176.469 156.302 176.66 156.407 176.434C156.878 175.445 157.244 174.42 157.523 173.361C157.61 173.118 157.226 173.014 157.157 173.257Z" fill="#76D7D2"/>
<path d="M16.2484 162.977C21.4085 162.977 26.5859 162.977 31.746 162.977C32.0772 162.977 32.0772 162.456 31.746 162.456C26.5859 162.456 21.4085 162.456 16.2484 162.456C15.9172 162.456 15.9172 162.977 16.2484 162.977Z" fill="#76D7D2"/>
<path d="M22.8379 167.839C31.6937 167.839 40.532 167.839 49.3877 167.839C49.719 167.839 49.719 167.318 49.3877 167.318C40.532 167.318 31.6937 167.318 22.8379 167.318C22.5067 167.318 22.5067 167.839 22.8379 167.839Z" fill="#76D7D2"/>
<path d="M31.5019 162.82C30.1248 164.244 28.7476 165.651 27.3878 167.075C27.1612 167.318 27.5273 167.682 27.7539 167.439C29.1311 166.015 30.5083 164.609 31.868 163.185C32.1121 162.942 31.746 162.577 31.5019 162.82Z" fill="#76D7D2"/>
<path d="M44.1406 176.209C57.5812 176.209 71.0043 176.209 84.4448 176.209C84.776 176.209 84.776 175.688 84.4448 175.688C71.0043 175.688 57.5812 175.688 44.1406 175.688C43.8094 175.688 43.8094 176.209 44.1406 176.209Z" fill="#76D7D2"/>
<path d="M64.0311 172.024C73.6888 172.024 83.3639 172.024 93.0215 172.024C93.3527 172.024 93.3527 171.503 93.0215 171.503C83.3639 171.503 73.6888 171.503 64.0311 171.503C63.6825 171.503 63.6825 172.024 64.0311 172.024Z" fill="#76D7D2"/>
<path d="M78.1167 171.624C76.7046 173.014 75.31 174.403 73.898 175.792C73.6539 176.035 74.02 176.4 74.2641 176.157C75.6761 174.767 77.0707 173.378 78.4828 171.989C78.7268 171.763 78.3433 171.399 78.1167 171.624Z" fill="#76D7D2"/>
<path d="M41.5955 180.932C47.9235 180.932 54.2341 180.932 60.5621 180.932C60.8933 180.932 60.8933 180.411 60.5621 180.411C54.2341 180.411 47.9235 180.411 41.5955 180.411C41.2642 180.411 41.2642 180.932 41.5955 180.932Z" fill="#76D7D2"/>
<path d="M62.3583 175.879C61.6608 177.459 60.9458 179.039 60.2483 180.602C60.1088 180.897 60.5621 181.175 60.7017 180.862C61.3992 179.282 62.1142 177.702 62.8117 176.139C62.9512 175.827 62.4978 175.566 62.3583 175.879Z" fill="#76D7D2"/>
<path d="M97.2752 164.922C77.0534 165.026 71.475 164.818 50.0503 164.922C46.9648 164.939 44.437 164.956 42.7286 164.956C47.2088 161.067 51.689 157.194 56.1692 153.305C57.7032 153.27 59.9695 153.235 62.7413 153.218C72.5907 153.131 78.57 153.235 85.9266 153.305C92.5336 153.357 91.7665 153.27 104.893 153.218C133.971 153.131 136.394 153.6 148.544 153.305C150.828 153.252 157.766 153.061 167.11 153.148C169.411 153.166 171.277 153.2 172.427 153.235C172.689 153.166 173.525 152.888 174.101 152.054C174.258 151.829 174.606 151.29 174.571 150.544C174.519 149.276 173.334 148.547 173.229 148.495C175.826 149.397 177.953 150.162 179.418 150.7C187.227 153.6 193.468 156.343 198.227 158.445C199.517 159.018 200.581 159.487 201.243 159.782C201.452 159.747 202.394 159.591 203.231 160.181C203.37 160.285 204.259 160.91 204.189 161.761C204.12 162.508 203.335 162.942 202.917 163.185C201.941 163.741 200.964 163.741 200.773 163.741C198.245 163.758 198.105 164.627 191.969 165.009C188.605 165.217 187.262 165.043 182.451 164.922C180.063 164.87 179.697 164.904 171.974 164.922C171.974 164.922 162.7 164.956 148.405 164.922C140.316 164.904 137.527 164.87 131.339 164.835C122.169 164.8 113.749 164.852 97.2752 164.922Z" fill="white"/>
<path d="M55.925 153.061C51.3576 156.986 46.7903 160.91 42.2229 164.835C41.9614 165.061 42.345 165.425 42.589 165.2C47.1564 161.275 51.7237 157.351 56.291 153.426C56.5525 153.218 56.1864 152.853 55.925 153.061Z" fill="#161616"/>
<path d="M56.2562 153.513C71.4226 153.513 86.5889 153.513 101.738 153.513C116.834 153.513 131.949 153.513 147.045 153.513C155.587 153.513 164.129 153.513 172.671 153.513C173.002 153.513 173.002 152.992 172.671 152.992C157.505 152.992 142.338 152.992 127.189 152.992C112.093 152.992 96.9788 152.992 81.8821 152.992C73.3402 152.992 64.7982 152.992 56.2562 152.992C55.925 152.992 55.925 153.513 56.2562 153.513Z" fill="#161616"/>
<path d="M42.6414 165.182C61.5557 165.182 80.4527 165.182 99.367 165.182C118.212 165.182 137.074 165.182 155.918 165.182C166.535 165.182 177.151 165.182 187.768 165.182C188.099 165.182 188.099 164.661 187.768 164.661C168.853 164.661 149.956 164.661 131.042 164.661C112.197 164.661 93.3354 164.661 74.4907 164.661C63.8743 164.661 53.2578 164.661 42.6414 164.661C42.2927 164.661 42.2927 165.182 42.6414 165.182Z" fill="#161616"/>
<path d="M171.277 147.765C172.654 147.765 173.909 148.564 174.24 149.936C174.554 151.273 173.822 152.575 172.514 153.027C172.2 153.131 172.34 153.635 172.654 153.53C174.118 153.009 175.042 151.603 174.78 150.04C174.502 148.321 172.967 147.227 171.259 147.227C170.945 147.244 170.945 147.765 171.277 147.765Z" fill="#161616"/>
<path d="M171.416 147.852C181.283 151.603 191.08 155.579 200.79 159.764C201.104 159.903 201.365 159.452 201.051 159.313C191.307 155.111 181.475 151.134 171.555 147.348C171.224 147.227 171.102 147.73 171.416 147.852Z" fill="#161616"/>
<path d="M201.086 159.938C201.975 159.903 203.091 160.146 203.666 160.893C204.555 162.039 203.248 162.803 202.306 163.081C200.755 163.55 199.029 163.706 197.425 163.967C195.647 164.245 193.869 164.47 192.073 164.557C190.435 164.644 188.779 164.54 187.14 164.627C186.809 164.644 186.809 165.165 187.14 165.148C189.459 165.009 191.777 165.148 194.113 164.922C196.397 164.696 198.68 164.297 200.947 163.915C202.167 163.706 204.363 163.359 204.503 161.761C204.66 160.112 202.376 159.382 201.086 159.434C200.755 159.434 200.755 159.955 201.086 159.938Z" fill="#161616"/>
<path d="M75.2412 117.446C71.807 120.207 73.0796 125.972 74.2476 139.169C74.8054 145.508 75.1715 151.498 75.3807 157.09C74.0907 157.837 71.4932 159.452 71.7721 160.216C72.1034 161.136 76.4615 160.337 77.6818 160.111C81.116 160.111 83.8878 160.424 85.8751 160.754C87.4789 161.014 89.1873 161.379 89.4139 160.893C89.6057 160.476 88.6469 159.625 87.723 158.913C85.9797 157.923 84.2364 156.934 82.4757 155.944C81.9702 150.925 81.9005 146.845 81.9179 144.101C81.9702 135.123 82.6326 128.16 82.6326 128.16C83.3125 120.919 84.0621 118.279 82.3537 116.873C80.6628 115.518 77.2983 115.796 75.2412 117.446Z" fill="white" stroke="#161616" stroke-miterlimit="10"/>
<path d="M76.1642 160.615C77.245 160.372 78.2386 159.938 79.1626 159.347C79.302 159.261 79.18 159.035 79.0231 159.122C78.1166 159.712 77.1404 160.129 76.0944 160.372C75.9375 160.389 76.0073 160.65 76.1642 160.615Z" fill="#161616"/>
<path d="M77.6111 160.285C78.3084 160.094 78.9185 159.469 79.6158 159.573C80.6095 159.712 81.638 160.129 82.5968 160.407C82.7537 160.459 82.8234 160.198 82.6665 160.163C81.6206 159.868 80.5746 159.573 79.5287 159.295C79.3718 159.243 79.2497 159.191 79.0929 159.226C78.9708 159.261 78.6396 159.573 78.4653 159.677C78.1689 159.851 77.8551 159.955 77.5239 160.042C77.367 160.077 77.4368 160.32 77.6111 160.285Z" fill="#161616"/>
<path d="M78.2909 160.077C78.9185 159.938 79.5112 159.938 80.1562 160.077C80.6269 160.181 81.0453 160.285 81.5159 160.233C81.6728 160.215 81.6903 159.955 81.5159 159.972C80.8884 160.042 80.3305 159.816 79.7204 159.747C79.2148 159.695 78.7093 159.729 78.2037 159.833C78.0643 159.868 78.134 160.111 78.2909 160.077Z" fill="#161616"/>
<path d="M78.6047 159.799C79.6333 159.799 80.6444 159.92 81.6555 160.181C81.8124 160.216 81.8821 159.973 81.7252 159.938C80.6967 159.66 79.6681 159.538 78.6047 159.538C78.4304 159.538 78.4304 159.799 78.6047 159.799Z" fill="#161616"/>
<path opacity="0.11" d="M77.0359 116.769C77.9075 117.29 76.9313 120.328 76.635 121.301C75.7285 124.374 75.9028 128.577 76.234 136.999C76.4258 141.635 77.0359 148.112 78.9012 155.944C84.898 158.705 87.8093 160.355 87.6175 160.875C87.4432 161.362 84.6365 160.91 79.1975 159.486C78.4479 159.816 77.2974 160.25 75.833 160.476C75.5541 160.511 72.1896 161.014 71.8759 160.181C71.5621 159.347 74.4036 157.559 75.4495 156.916C75.1706 152.592 74.9266 148.928 74.7522 146.15C74.421 140.958 74.4036 140.385 74.2641 138.839C73.7237 132.883 73.3053 132.449 73.0787 128.386C72.6255 120.207 74.1421 118.262 75.1532 117.428C75.3972 117.272 76.4781 116.439 77.0359 116.769Z" fill="#6D6C6C"/>
<path opacity="0.19" d="M73.0786 123.385C74.8218 139.36 76.2164 151.221 76.7394 154.763C76.7917 155.145 76.9137 155.944 77.4367 156.83C78.9882 159.538 82.5445 160.32 84.863 160.58C81.6728 159.764 79.8424 159.782 78.7267 159.99C78.5698 160.025 78.1515 160.094 77.5413 160.181C76.8266 160.285 75.6586 160.459 74.1768 160.476C73.5144 160.494 72.6253 160.476 71.5968 160.372C71.6665 160.181 71.7886 159.886 71.9977 159.591C72.329 159.087 72.7299 158.792 73.4795 158.306C74.0025 157.958 74.6824 157.559 75.4668 157.125C74.6649 145.89 73.8805 134.637 73.0786 123.385Z" fill="#6D6C6C"/>
<path d="M133.448 154.103C135.697 154.034 137.998 153.929 140.316 153.808C141.781 153.738 143.21 153.652 144.657 153.547C145.72 153.044 146.801 152.558 147.865 152.054C148.562 152.801 149.678 153.877 151.194 154.937C156.685 158.774 162.299 158.74 162.264 159.695C162.229 160.337 159.649 160.841 157.644 160.98C152.606 161.327 148.544 159.625 146.208 158.357C142.373 159 138.538 159.625 134.703 160.268C134.285 158.219 133.866 156.169 133.448 154.103Z" fill="#161616"/>
<path d="M115.476 114.737C111.798 118.47 110.682 124.34 112.53 129.862C110.107 138.718 107.666 147.556 105.243 156.413C105.104 156.847 104.65 158.41 105.4 159.955C106.289 161.778 108.468 162.855 110.821 162.577C119.817 162.317 128.794 162.056 137.79 161.813C138.365 157.802 138.923 153.79 139.498 149.779C134.286 150.144 129.056 150.491 123.844 150.856C125.935 146.289 128.899 139.412 131.897 130.782C136.221 118.401 135.942 115.848 134.687 114.112C131.531 109.753 121.141 108.989 115.476 114.737Z" fill="#A3A2A2"/>
<path opacity="0.25" d="M115.422 122.794C115.056 121.769 114.063 119.043 113.156 119.147C112.145 119.252 111.5 122.846 111.709 125.763C111.849 127.5 112.267 128.906 112.633 129.844C112.372 130.73 111.936 132.258 111.395 134.151C107.072 149.414 107.56 147.956 107.055 149.814C106.218 152.835 105.538 155.284 105.102 156.812C104.998 157.229 104.754 158.323 105.224 159.573C105.712 160.875 106.671 161.535 107.055 161.796C107.334 161.987 108.136 162.508 109.234 162.629C109.443 162.646 109.53 162.646 110.768 162.594C111.343 162.577 111.936 162.56 112.511 162.542C114.167 162.473 115.963 162.455 116.573 162.455C118.055 162.438 122.953 162.299 137.754 161.796C138.067 159.747 138.381 157.68 138.678 155.631C118.996 161.587 112.529 160.094 110.611 157.159C106.636 151.029 119.484 134.046 115.422 122.794Z" fill="#6D6C6C"/>
<path opacity="0.3" d="M105.486 155.648C107.316 148.928 109.147 142.191 110.96 135.47C110.541 137.207 107.002 152.366 108.99 157.888C109.129 158.305 109.495 159.278 110.367 160.181C112.738 162.629 116.643 162.317 118.037 162.143C115.614 162.403 113.522 162.542 111.866 162.594C109.774 162.681 108.624 162.646 107.421 161.969C107.037 161.761 106.061 161.188 105.451 160.007C104.457 158.027 105.346 155.961 105.486 155.648Z" fill="#6D6C6C"/>
<path d="M176.036 105.29C178.11 104.405 180.202 103.484 182.329 102.529C183.654 101.922 184.979 101.331 186.269 100.723C187.088 99.8725 187.907 99.0216 188.727 98.1707C189.65 98.6222 191.08 99.2126 192.876 99.6641C199.395 101.244 204.608 99.1779 204.921 100.081C205.131 100.689 202.899 102.095 201.086 102.946C196.519 105.082 192.126 104.978 189.459 104.648C186.112 106.627 182.782 108.607 179.435 110.587C178.302 108.833 177.169 107.062 176.036 105.29Z" fill="#161616"/>
<path d="M114.847 111.507C115.527 111.264 116.59 110.899 117.95 110.587C126.091 108.694 131.617 111.629 138.712 112.601C144.988 113.469 149.799 112.428 154.837 111.368C159.858 110.292 168.051 107.791 176.994 101.175C177.883 101.713 179.714 102.981 181.021 105.343C182.503 107.999 182.486 110.5 182.416 111.525C178.354 114.65 172.235 118.766 164.129 122.169C158.952 124.357 154.628 125.416 145.999 127.57C136.516 129.931 130.066 131.494 121.349 131.581C116.887 131.633 113.226 131.268 110.803 130.956C112.162 124.461 113.505 117.984 114.847 111.507Z" fill="#A3A2A2"/>
<path opacity="0.13" d="M110.803 130.886C112.424 131.129 114.603 131.407 117.166 131.529C119.083 131.633 122.605 131.754 127.852 131.164C132.994 130.591 137.178 129.636 145.302 127.726C149.921 126.649 152.31 126.094 155.291 125.173C158.219 124.27 161.793 123.176 166.273 121.145C167.494 120.589 172.392 118.331 178.337 114.39C179.993 113.296 181.335 112.323 182.294 111.611C182.381 111.003 182.433 110.17 182.329 109.197C182.189 108.086 181.893 107.2 181.614 106.593C163.833 116.977 141.606 125.052 117.096 122.551C115.614 122.395 114.15 122.221 112.703 121.995C112.093 124.965 111.448 127.917 110.803 130.886Z" fill="#6D6C6C"/>
<path opacity="0.11" d="M110.855 130.834C111.169 129.375 111.5 127.917 111.814 126.458C117.967 127.274 125.115 127.691 133.012 127.17C155.134 125.711 172.148 117.654 182.294 111.646C179.505 113.747 175.356 116.612 170.004 119.39C160.904 124.096 153.652 125.781 140.909 128.75C129.769 131.338 124.4 131.615 120.356 131.581C116.451 131.511 113.174 131.164 110.855 130.834Z" fill="#6D6C6C"/>
<path d="M71.4748 104.266C67.1515 105.429 63.8393 114.164 65.7743 120.849C67.7442 127.674 74.6127 130.383 80.0168 132.519C90.2846 136.565 99.9074 134.707 104.632 133.786C108.083 133.126 110.872 132.223 112.79 131.529C113.801 130.626 116.782 127.708 117.845 122.673C119.118 116.664 116.73 111.924 116.155 110.864C106.863 114.459 99.7853 113.99 95.6887 113.261C86.3448 111.576 79.4938 107.774 79.4938 107.774C75.1531 105.36 73.7062 103.658 71.4748 104.266Z" fill="white" stroke="#161616" stroke-miterlimit="10"/>
<path opacity="0.13" d="M66.3151 111.195C66.1931 115.015 76.7398 118.349 77.35 118.557C80.9934 119.773 86.659 121.11 100.849 120.502C105.138 120.329 111.047 119.929 118.107 118.991C118.125 117.967 118.072 116.665 117.759 115.171C117.375 113.417 116.765 112.011 116.242 111.004C115.196 111.333 113.714 111.785 111.919 112.289C110.35 112.723 109.321 113.001 108.136 113.244C108.136 113.244 105.242 113.834 102 113.886C97.3103 113.956 93.3879 112.809 89.4133 111.629C85.3341 110.431 80.5227 108.59 78.2913 107.044C77.594 106.558 76.9839 106.211 75.781 105.499C73.8111 104.353 73.3056 104.214 72.8001 104.162C71.4752 104.04 70.4118 104.7 69.8888 105.047C68.285 106.055 67.6052 107.548 67.1345 108.59C66.9601 108.972 66.3326 110.309 66.3151 111.195Z" fill="#6D6C6C"/>
<path opacity="0.15" d="M71.0042 104.457C73.8805 106.697 77.9772 109.51 83.2941 112.028C86.0833 113.348 90.5809 115.432 96.4732 116.595C100.657 117.411 108.258 118.314 117.828 115.918C117.723 115.084 117.497 114.06 117.044 112.931C116.747 112.202 116.416 111.559 116.102 111.038C111.831 112.879 108.083 113.556 105.556 113.817C99.3321 114.477 94.5033 113.313 91.6269 112.601C89.0643 111.959 85.8741 111.177 82.3528 109.232C81.0627 108.538 78.8488 107.183 75.1357 105.29C74.264 104.839 73.5319 104.474 73.0263 104.249C72.329 104.318 71.6666 104.388 71.0042 104.457Z" fill="#6D6C6C"/>
<path d="M96.6126 105.36C97.676 104.7 98.565 104.578 100.465 104.283C105.364 103.502 104.893 103.467 105.817 103.432C108.031 103.345 109.53 103.276 111.134 104.179C111.639 104.457 112.895 105.186 113.609 106.714C113.731 106.975 114.603 108.885 113.906 110.482C113.139 112.236 110.001 112.688 103.725 113.608C102.853 113.73 100.378 114.077 97.3273 113.539C95.34 113.191 94.7647 112.74 94.4161 112.306C93.3178 110.934 93.7885 108.659 94.6427 107.27C95.2877 106.193 96.1593 105.638 96.6126 105.36Z" fill="#161616"/>
<path d="M112.703 108.017C112.895 107.634 114.08 107.721 114.917 108.208C115.736 108.676 116.416 109.649 116.416 110.673C116.399 111.785 115.597 112.566 114.429 113.695C112.912 115.171 111.796 115.57 111.918 116.039C112.093 116.751 114.638 116.265 115.021 117.237C115.353 118.071 113.941 119.529 113.522 119.356C113.243 119.234 113.592 118.505 113.156 118.019C112.581 117.394 111.517 118.019 110.977 117.463C110.541 116.994 110.733 116.039 111.012 115.449C111.395 114.685 111.884 114.667 113.365 113.365C114.498 112.375 114.62 112.028 114.638 111.767C114.655 111.524 114.603 111.264 113.888 110.135C112.947 108.59 112.563 108.26 112.703 108.017Z" fill="#161616"/>
<path d="M108.432 108.311C107.996 108.607 106.95 109.353 106.828 110.69C106.724 111.889 107.438 112.774 107.613 112.965C104.928 113.851 104.353 114.268 104.388 114.493C104.475 114.928 106.881 115.014 108.885 114.459C109.635 114.25 110.315 113.955 110.838 113.712C111.831 113.26 112.337 113.052 112.598 112.705C113.261 111.854 113.034 110.656 112.86 109.805C112.668 108.85 112.546 108.173 111.953 107.756C110.907 107.009 109.234 107.756 108.432 108.311Z" fill="#161616"/>
<path d="M91.2615 109.267C90.878 108.694 90.7908 108.068 90.7385 107.582C90.5642 106.332 90.878 105.307 91.0872 104.769C91.0174 103.97 90.9303 103.172 90.8606 102.39C91.122 102.512 91.4184 102.668 91.7322 102.859C92.2726 103.206 92.7084 103.571 93.0396 103.883C93.4754 103.658 93.9636 103.432 94.5388 103.224C95.149 102.998 95.7242 102.842 96.2298 102.72C96.3344 102.442 96.5784 101.956 97.0666 101.522C97.3978 101.227 97.7464 101.053 97.973 100.966C97.973 101.122 97.973 101.279 97.9905 101.452C98.0602 102.025 98.2171 102.512 98.3914 102.859C98.6529 103.05 99.8035 103.936 100.082 105.551C100.309 106.818 99.8558 107.843 99.5943 108.294C98.5658 110.152 96.4913 110.552 96.0206 110.638C94.5388 110.934 92.2377 110.743 91.2615 109.267Z" fill="#161616"/>
<path d="M97.868 97.5801C98.1121 97.3197 98.147 97.528 98.1993 97.7711C98.2342 97.9622 98.2516 98.1705 98.2865 98.3615C98.3214 98.5699 98.4086 98.7957 98.6178 98.8999C99.141 99.1603 99.7687 98.4831 100.135 98.1879C100.397 97.9622 100.013 97.5975 99.7687 97.8232C99.5944 97.9795 99.4025 98.1184 99.2107 98.2574C99.0015 98.4136 98.8794 98.4831 98.8096 98.1879C98.7399 97.8753 98.7573 97.528 98.6178 97.2328C98.3737 96.7119 97.8331 96.8855 97.5192 97.2328C97.2751 97.4586 97.6413 97.8232 97.868 97.5801Z" fill="white"/>
<path d="M92.1326 107.287C92.9522 108.051 94.26 107.686 94.5042 106.575C94.5391 106.419 94.2949 106.349 94.26 106.506C94.0682 107.409 93.0219 107.756 92.3418 107.113C92.1849 106.992 92.0105 107.183 92.1326 107.287Z" fill="white"/>
<path d="M95.968 107.096C95.9506 107.096 95.9506 107.114 95.9332 107.114C95.968 107.148 96.0203 107.183 96.0552 107.218C96.0552 107.2 96.0552 107.2 96.0552 107.183C96.0203 107.218 96.0029 107.235 95.968 107.27C95.9506 107.252 95.9506 107.235 95.9332 107.218C95.9855 107.235 96.0552 107.252 96.1075 107.27C96.1075 107.252 96.0901 107.235 96.0901 107.2C96.0029 107.235 95.9332 107.27 95.846 107.305C96.0727 107.721 95.7239 108.208 95.2531 108.121C95.0961 108.086 95.0264 108.346 95.1833 108.364C95.8808 108.503 96.404 107.791 96.0727 107.166C96.0029 107.027 95.8111 107.131 95.8285 107.27C95.846 107.322 95.846 107.357 95.8808 107.391C95.9157 107.461 96.0029 107.461 96.0552 107.443C96.3342 107.322 96.1598 106.94 95.8808 107.027C95.846 107.044 95.7936 107.079 95.7936 107.114C95.7762 107.183 95.7762 107.218 95.7936 107.287C95.7936 107.339 95.8634 107.391 95.9157 107.391C95.9855 107.374 96.0203 107.374 96.0901 107.339C96.247 107.235 96.125 107.009 95.968 107.096Z" fill="white"/>
<path d="M95.9677 107.287C96.1246 108.12 97.293 108.138 97.4848 107.322C97.5197 107.165 97.2756 107.096 97.2407 107.252C97.1012 107.825 96.3339 107.791 96.2292 107.218C96.1944 107.044 95.9328 107.113 95.9677 107.287Z" fill="white"/>
<path d="M96.4907 105.967C97.4324 106.384 98.4612 105.811 98.5659 104.786C98.5833 104.613 98.3217 104.613 98.3043 104.786C98.2171 105.603 97.3801 106.089 96.6128 105.741C96.4733 105.672 96.3338 105.898 96.4907 105.967Z" fill="white"/>
<path d="M88.8726 111.507C88.7157 110.934 88.9423 110.222 89.3955 109.822C89.9534 109.336 90.6856 109.458 91.6095 109.597C92.5508 109.753 94.6951 110.1 95.6887 111.872C95.9328 112.306 96.264 112.896 96.0199 113.33C95.497 114.303 92.6031 113.625 91.1562 113.104C90.058 112.722 89.0992 112.375 88.8726 111.507Z" fill="#161616"/>
<path d="M101.703 107.721C101.319 107.756 101.354 108.416 100.727 109.249C100.117 110.048 99.3495 110.413 97.9549 111.038C96.5952 111.663 96.0548 111.663 95.4098 112.375C95.2529 112.549 94.6427 113.226 94.8519 113.677C95.0611 114.129 95.9676 114.094 96.5429 114.094C97.0136 114.077 97.3796 114.025 99.2449 113.469C100.064 113.226 100.744 113 101.598 112.618C102.348 112.271 102.54 112.097 102.679 111.906C103.185 111.229 103.028 110.343 102.941 109.857C102.766 108.919 102.226 107.669 101.703 107.721Z" fill="#161616"/>
<path d="M59.4463 105.968C59.5509 107.357 60.6492 108.277 61.7649 109.215C62.7237 110.031 64.6587 111.385 67.7617 111.941C68.337 111.524 69.3132 110.726 70.0802 109.388C70.7078 108.277 70.9344 107.235 71.0216 106.575C68.2498 104.926 65.4954 103.276 62.7237 101.626C60.6318 102.668 59.3243 104.353 59.4463 105.968Z" fill="white" stroke="#161616" stroke-width="2" stroke-miterlimit="10"/>
<path d="M58.627 87.578C56.9709 88.1337 56.0295 89.4187 54.234 91.9366C52.2118 94.7845 50.6777 97.3197 49.8933 99.2299C49.7712 99.5077 49.8584 99.8377 50.1025 100.029C50.4162 100.272 51.0438 100.463 51.3925 100.619C51.253 101.574 51.1658 102.963 51.4971 104.561C52.0898 107.443 53.711 109.354 54.5129 110.187C55.9772 110.326 58.2783 110.343 60.8409 109.423C61.6951 109.111 63.2118 108.555 64.7633 107.2C66.123 106.02 66.9249 104.752 67.3781 103.901C67.814 104.005 68.5287 104.075 69.2957 103.832C70.917 103.328 72.5556 101.522 72.0327 100.115C71.6491 99.0736 70.1325 98.3964 68.4067 98.6742C68.5636 98.0143 68.7205 97.0593 68.7205 95.9132C68.7205 95.6353 68.6682 93.5342 67.9186 91.8845C66.4891 88.7415 61.9915 86.4493 58.627 87.578Z" fill="white" stroke="#161616" stroke-miterlimit="10"/>
<path d="M51.3405 96.1043C50.9744 95.1666 50.2248 92.8571 50.9395 90.1308C51.1836 89.2105 51.6717 87.4566 53.3103 86.0327C55.2802 84.3136 57.5988 84.2267 58.2612 84.2267C58.6447 83.7926 59.3072 83.1675 60.2834 82.7681C60.6669 82.6118 61.7303 82.2298 64.0488 82.5597C65.2691 82.7333 67.117 83.1501 69.2089 84.2267C70.8301 85.0776 71.8238 86.0327 72.4165 86.7273C75.1011 89.8703 74.09 92.7008 76.8792 95.1493C77.96 96.1043 78.2564 95.8091 79.8776 97.1636C80.4529 97.6498 81.8998 98.9348 83.1549 100.914C84.0266 102.286 86.2231 105.724 85.7175 110.083C85.334 113.504 83.155 118.47 79.9822 118.87C76.548 119.304 75.7112 113.886 68.8602 111.281C65.0076 109.823 62.1661 110.344 61.7303 108.92C61.2596 107.357 64.2057 105.082 66.6637 103.45C67.0124 103.675 67.6922 104.057 68.4767 103.936C70.0979 103.693 71.2136 101.505 70.6383 100.185C70.4117 99.6468 69.941 99.3689 69.8016 99.2821C68.6336 98.6049 67.3262 99.2995 67.2216 99.3516C65.8095 97.8061 64.781 96.3822 64.0837 95.3229C63.1423 93.8816 62.7065 92.9439 62.5496 92.614C62.0615 91.5547 61.7652 90.617 61.5734 89.9051C60.5623 89.9571 59.1677 90.1482 57.6685 90.7386C57.3198 90.8775 56.0996 91.3811 54.7398 92.4056C54.5655 92.5272 53.8159 93.1002 52.9617 94.0379C52.2644 94.7672 51.724 95.5139 51.3405 96.1043Z" fill="#232323"/>
<path d="M54.3386 96.278C54.7047 96.9552 55.1231 97.4241 55.9076 97.563C56.6746 97.7019 57.4242 97.5283 58.0518 97.0594C58.2435 96.9032 58.0518 96.5732 57.86 96.7295C57.3719 97.0942 56.7966 97.2678 56.1865 97.2157C55.4369 97.1463 55.0359 96.7295 54.6873 96.087C54.5478 95.8612 54.2166 96.0523 54.3386 96.278Z" fill="#161616"/>
<path d="M54.879 93.9857C56.0992 93.2738 57.3195 93.569 58.4701 94.3157C58.6793 94.4546 58.871 94.1073 58.6618 93.9857C57.4067 93.1696 56.0295 92.8744 54.6872 93.6558C54.478 93.7773 54.6698 94.1246 54.879 93.9857Z" fill="#161616"/>
<path d="M55.8903 100.011C55.8379 100.237 55.7507 100.237 55.6287 100.011C55.6461 99.9768 55.6636 99.9594 55.681 99.9247C55.7159 99.9073 55.7682 99.9073 55.8031 99.9247C55.8379 99.9768 55.8728 100.029 55.9077 100.098C55.8903 100.098 55.8903 100.116 55.8903 100.133C55.8031 100.133 55.6984 100.133 55.6112 100.133C55.6461 100.064 55.681 99.9768 55.6984 99.9073C55.5938 99.8899 55.5066 100.011 55.5066 100.098C55.5066 100.22 55.5938 100.289 55.6984 100.289C55.9251 100.307 56.0646 99.9941 55.8728 99.8552C55.7856 99.7858 55.681 99.7858 55.5938 99.8552C55.4543 99.9768 55.4543 100.237 55.6461 100.307C55.8031 100.359 55.9949 100.237 55.9949 100.064C55.9949 99.8899 55.8379 99.7684 55.681 99.8031C55.5415 99.8378 55.4369 99.9768 55.4892 100.116C55.5938 100.341 55.96 100.255 55.8903 100.011Z" fill="#161616"/>
<path d="M57.7555 99.3691C57.7729 99.4559 57.6508 99.508 57.5811 99.4386C57.5636 99.4212 57.5462 99.4038 57.5462 99.3691C57.6857 99.2128 57.7555 99.2128 57.7903 99.3865C57.8601 99.1434 57.4939 99.0392 57.4067 99.2823C57.3544 99.4559 57.4939 99.6296 57.6683 99.6296C57.8426 99.6296 57.9647 99.4907 57.9298 99.317C57.9124 99.1607 57.7555 99.0392 57.5811 99.0739C57.4067 99.1086 57.3195 99.2996 57.3544 99.4559C57.4416 99.7164 57.8252 99.6122 57.7555 99.3691Z" fill="#161616"/>
<path d="M57.1802 101.019C57.3023 101.019 57.2326 101.262 57.1105 101.192C56.971 101.123 57.1628 100.897 57.2326 101.036C57.1105 100.81 56.7792 101.019 56.9012 101.227C56.9884 101.383 57.1977 101.418 57.3372 101.314C57.5116 101.192 57.4941 100.949 57.3197 100.845C57.1628 100.741 56.9361 100.81 56.8838 101.001C56.8315 101.192 56.9884 101.418 57.1977 101.401C57.3023 101.401 57.3895 101.314 57.3895 101.21C57.3721 101.105 57.2849 101.001 57.1802 101.019Z" fill="#161616"/>
<path d="M51.515 103.797C52.8921 103.814 54.1473 103.311 55.1235 102.338C55.2978 102.165 55.0189 101.887 54.8446 102.06C53.9381 102.963 52.7875 103.415 51.515 103.398C51.2535 103.398 51.2535 103.78 51.515 103.797Z" fill="#161616"/>
<path opacity="0.1" d="M61.5731 89.8182C61.852 91.7978 62.1832 93.4128 62.4098 94.5068C63.0374 97.4414 63.4907 98.6223 63.2466 100.48C63.0548 101.904 62.5667 102.929 62.2878 103.502C60.2656 107.704 55.7855 109.649 54.3734 110.205C55.1579 110.274 56.0992 110.291 57.1278 110.205C59.0105 110.031 60.562 109.545 61.6777 109.093C62.0961 109.51 62.619 109.962 63.2466 110.378C64.9376 111.49 66.6111 111.854 67.6745 111.993C68.0929 111.715 68.4938 111.438 68.9122 111.16C69.7315 111.507 70.9344 112.08 72.2593 113.018C76.2339 115.814 77.1927 118.904 79.5984 118.8C80.8012 118.748 81.9169 117.949 82.161 117.758C82.806 117.272 83.2767 116.699 83.7996 115.796C84.4621 114.65 85.7521 112.375 85.8044 109.093C85.8392 107.062 85.3686 105.377 84.9327 104.231C80.993 109.111 75.0659 110.743 70.9344 108.694C68.1626 107.322 66.9074 104.648 66.4368 103.432C67.9011 104.214 69.5921 103.814 70.3591 102.703C70.9344 101.869 71.1261 100.411 70.1848 99.5252C69.4352 98.7959 68.2149 98.6743 67.2038 99.2474C66.2799 98.2923 65.2688 97.0594 64.2926 95.566C62.9503 93.4475 62.096 91.4158 61.5731 89.8182Z" fill="#6D6C6C"/>
<path d="M27.6493 87.1614C29.7761 87.0572 31.467 88.4811 32.0249 88.95C32.1643 89.0715 32.5827 89.4014 33.5589 90.6517C34.5003 91.8673 34.9535 92.8223 36.261 94.5067C37.6033 96.2432 38.9282 97.2157 41.5605 99.1605C43.9662 100.949 45.8663 101.956 48.5858 103.415C53.0137 105.759 56.5525 107.652 61.5208 109.111C64.5889 110.014 65.2688 109.875 67.8837 110.917C71.2656 112.254 74.6301 113.591 75.188 116.369C75.5018 117.897 74.9439 119.79 73.6539 120.762C72.4336 121.683 70.6032 121.77 65.5652 119.964C57.0755 116.925 50.9218 112.653 47.7491 110.291C46.8426 109.614 45.6223 108.607 43.1643 106.61C38.8933 103.137 35.4591 100.237 33.158 98.2402C32.5827 98.1186 31.3973 97.8755 29.8632 97.563C27.4575 97.0767 26.7777 96.9552 25.8886 96.469C24.6334 95.7917 23.1865 94.5762 23.4132 94.0031C23.7095 93.2738 26.6905 93.899 27.1786 93.9858C26.8997 93.5517 26.4639 92.996 25.8189 92.4403C24.3197 91.1553 23.2388 91.2769 23.0471 90.617C22.7507 89.5577 25.0867 87.2829 27.6493 87.1614Z" fill="white" stroke="#161616" stroke-miterlimit="10"/>
<path d="M23.3261 89.8182C24.8776 89.8355 26.0107 90.8427 27.0741 91.8325C27.2659 92.0061 27.5274 91.7283 27.353 91.5546C26.2025 90.478 24.9648 89.4361 23.3261 89.4188C23.0821 89.4361 23.0821 89.8182 23.3261 89.8182Z" fill="#161616"/>
<path d="M24.4246 88.6374C25.9761 88.6895 27.3359 89.3493 28.347 90.5301C28.5039 90.7211 28.7828 90.4433 28.6259 90.2523C27.5625 89.002 26.0633 88.3074 24.4246 88.2553C24.1631 88.238 24.1631 88.62 24.4246 88.6374Z" fill="#161616"/>
<path d="M26.7253 87.5434C27.8236 87.8039 28.7824 88.3943 29.4971 89.2626C29.654 89.4536 29.9329 89.1758 29.776 88.9847C29.009 88.0644 27.9979 87.4393 26.8299 87.1614C26.5859 87.1093 26.4813 87.4914 26.7253 87.5434Z" fill="#161616"/>
<path opacity="0.16" d="M23.2912 89.5926C23.7096 89.2627 24.5986 89.7662 25.3657 90.2177C26.3593 90.7908 27.0218 91.3464 27.2484 91.5201C27.7016 91.8153 27.998 92.3362 27.998 92.3362C28.4164 93.0135 30.5083 93.7949 30.5083 93.7949C31.5368 94.1769 32.0424 94.8542 34.849 97.1811C37.9869 99.7684 40.2182 101.956 40.7586 102.477C45.5177 107.01 55.2277 112.566 65.4258 114.98C69.7839 116.005 74.8394 116.63 75.0486 118.523C75.1531 119.547 73.8457 120.554 72.9741 121.006C72.0327 121.509 69.627 122.395 59.9519 117.689C57.1801 116.335 54.1469 114.859 50.2943 112.219C48.6905 111.125 47.5574 110.239 42.0312 105.672C39.6778 103.728 36.6794 101.244 33.1755 98.3098C31.3276 98.0319 25.6272 97.0942 23.8142 94.9757C23.6398 94.7673 23.2215 94.2811 23.3784 93.9685C23.6398 93.3955 25.5749 93.7428 27.231 94.1422C26.5859 93.0829 25.8886 92.4925 25.4005 92.1279C24.3023 91.3464 23.2563 91.1554 23.1169 90.3566C23.0471 90.0962 23.082 89.7489 23.2912 89.5926Z" fill="#6D6C6C"/>
<path opacity="0.11" d="M23.483 94.1074C24.2152 94.5068 25.0171 94.9062 25.8887 95.2882C28.7651 96.5385 31.4846 97.1115 33.716 97.372C34.1343 97.6846 34.7968 98.1708 35.5987 98.7959C38.632 101.21 40.6541 103.259 41.09 103.71C43.8443 106.454 50.0329 110.865 56.4481 114.077C60.475 116.091 66.4892 118.609 74.3339 120.085C74.1247 120.398 73.7063 120.919 73.009 121.197C72.6255 121.353 72.2071 121.422 71.2483 121.353C69.7143 121.249 68.7206 120.954 68.7206 120.954C63.9615 119.547 59.063 117.116 59.063 117.116C56.0994 115.657 54.6176 114.928 52.8918 113.834C50.2421 112.184 48.4291 110.691 47.4006 109.84C43.6874 106.784 38.8934 102.877 33.1233 98.1534C31.2754 97.9277 29.7588 97.5978 28.6256 97.3199C25.4878 96.5385 24.529 95.8786 23.9537 95.0104C23.6748 94.6631 23.5528 94.3158 23.483 94.1074Z" fill="#6D6C6C"/>
</svg>
