<svg width="48" height="48" viewBox="0 0 48 48" fill="none" xmlns="http://www.w3.org/2000/svg">
<path d="M0 24C0 10.7452 10.7452 0 24 0C37.2548 0 48 10.7452 48 24C48 37.2548 37.2548 48 24 48C10.7452 48 0 37.2548 0 24Z" fill="#76D7D2" fill-opacity="0.1"/>
<path fill-rule="evenodd" clip-rule="evenodd" d="M23.5 26.5996V21.4006L26.309 23.9996L23.5 26.5996ZM24.339 19.4526C23.841 18.9906 23.114 18.8706 22.488 19.1456C21.878 19.4116 21.5 19.9806 21.5 20.6296V27.3706C21.5 28.0196 21.878 28.5886 22.488 28.8546C22.711 28.9526 22.948 28.9996 23.181 28.9996C23.604 28.9996 24.019 28.8446 24.338 28.5486L27.98 25.1786C28.311 24.8726 28.5 24.4436 28.5 23.9996C28.5 23.5566 28.311 23.1266 27.98 22.8216L24.339 19.4526ZM24 32C19.589 32 16 28.411 16 24C16 19.589 19.589 16 24 16C28.411 16 32 19.589 32 24C32 28.411 28.411 32 24 32ZM24 14C18.486 14 14 18.486 14 24C14 29.514 18.486 34 24 34C29.514 34 34 29.514 34 24C34 18.486 29.514 14 24 14Z" fill="#52A7C1"/>
</svg>
